<svg width="205" height="149" viewBox="0 0 205 149" fill="none" xmlns="http://www.w3.org/2000/svg">
<rect width="204.003" height="149" fill="#303538"/>
<path d="M46.2041 104.144C45.6041 104.144 45.0581 103.988 44.5661 103.676C44.0741 103.364 43.6821 102.922 43.3901 102.35C43.0981 101.778 42.9521 101.1 42.9521 100.316C42.9521 99.664 43.0461 99.09 43.2341 98.594C43.4221 98.098 43.6801 97.682 44.0081 97.346C44.3361 97.01 44.7121 96.758 45.1361 96.59C45.5641 96.418 46.0161 96.332 46.4921 96.332C47.0801 96.332 47.5961 96.454 48.0401 96.698C48.4841 96.938 48.8641 97.32 49.1801 97.844L48.2921 98.156C48.0241 97.824 47.7361 97.58 47.4281 97.424C47.1241 97.264 46.8001 97.184 46.4561 97.184C46.0041 97.184 45.5881 97.31 45.2081 97.562C44.8281 97.814 44.5221 98.174 44.2901 98.642C44.0621 99.11 43.9481 99.668 43.9481 100.316C43.9481 100.892 44.0421 101.404 44.2301 101.852C44.4181 102.296 44.6841 102.646 45.0281 102.902C45.3761 103.154 45.7881 103.28 46.2641 103.28C46.6281 103.28 46.9541 103.196 47.2421 103.028C47.5341 102.86 47.7641 102.608 47.9321 102.272C48.1001 101.932 48.1841 101.504 48.1841 100.988H48.4721C48.4721 101.628 48.3961 102.184 48.2441 102.656C48.0921 103.128 47.8481 103.494 47.5121 103.754C47.1801 104.014 46.7441 104.144 46.2041 104.144ZM48.3521 104L48.1841 102.224V100.964L46.2881 100.904V100.268H49.0961V104H48.3521ZM54.5988 104.144C54.1788 104.144 53.8128 104.048 53.5008 103.856C53.1928 103.664 52.9548 103.384 52.7868 103.016C52.6188 102.644 52.5348 102.192 52.5348 101.66H52.9308C52.9308 102.016 53.0048 102.316 53.1528 102.56C53.3008 102.804 53.4928 102.99 53.7288 103.118C53.9688 103.242 54.2228 103.304 54.4908 103.304C54.7788 103.304 55.0548 103.222 55.3188 103.058C55.5828 102.89 55.7988 102.644 55.9668 102.32C56.1348 101.996 56.2188 101.596 56.2188 101.12C56.2188 100.664 56.1408 100.274 55.9848 99.95C55.8328 99.626 55.6268 99.378 55.3668 99.206C55.1068 99.034 54.8188 98.948 54.5028 98.948C54.2308 98.948 53.9748 99.014 53.7348 99.146C53.4948 99.278 53.3008 99.472 53.1528 99.728C53.0048 99.98 52.9308 100.292 52.9308 100.664H52.5348C52.5348 100.108 52.6268 99.642 52.8108 99.266C52.9948 98.886 53.2448 98.6 53.5608 98.408C53.8768 98.216 54.2308 98.12 54.6228 98.12C55.0708 98.12 55.4888 98.24 55.8768 98.48C56.2648 98.72 56.5788 99.064 56.8188 99.512C57.0588 99.96 57.1788 100.496 57.1788 101.12C57.1788 101.752 57.0568 102.294 56.8128 102.746C56.5728 103.198 56.2568 103.544 55.8648 103.784C55.4728 104.024 55.0508 104.144 54.5988 104.144ZM51.9948 106.82V98.264H52.7748L52.9308 99.608V106.82H51.9948ZM61.7983 104.144C61.2423 104.144 60.7783 104.066 60.4063 103.91C60.0343 103.75 59.7523 103.532 59.5603 103.256C59.3683 102.976 59.2663 102.656 59.2543 102.296H60.1543C60.1743 102.66 60.3203 102.934 60.5923 103.118C60.8683 103.298 61.2423 103.388 61.7143 103.388C61.9623 103.388 62.1903 103.348 62.3983 103.268C62.6063 103.188 62.7723 103.078 62.8963 102.938C63.0203 102.798 63.0823 102.64 63.0823 102.464C63.0823 102.24 63.0003 102.064 62.8363 101.936C62.6723 101.808 62.4103 101.696 62.0503 101.6L60.9343 101.24C60.4503 101.088 60.0783 100.88 59.8183 100.616C59.5623 100.348 59.4343 100.028 59.4343 99.656C59.4343 99.192 59.6383 98.82 60.0463 98.54C60.4543 98.26 60.9903 98.12 61.6543 98.12C62.3583 98.12 62.9043 98.264 63.2923 98.552C63.6803 98.84 63.8823 99.2 63.8983 99.632H62.9743C62.9383 99.38 62.8103 99.19 62.5903 99.062C62.3703 98.93 62.0583 98.864 61.6543 98.864C61.2663 98.864 60.9623 98.952 60.7423 99.128C60.5263 99.3 60.4183 99.492 60.4183 99.704C60.4183 100.1 60.7583 100.392 61.4383 100.58L62.5783 100.964C63.0703 101.112 63.4463 101.306 63.7063 101.546C63.9703 101.786 64.1023 102.092 64.1023 102.464C64.1023 102.752 64.0083 103.024 63.8203 103.28C63.6323 103.536 63.3663 103.744 63.0223 103.904C62.6783 104.064 62.2703 104.144 61.7983 104.144ZM78.3907 104V100.628C78.3907 100.08 78.2587 99.664 77.9947 99.38C77.7347 99.092 77.3827 98.948 76.9387 98.948C76.4187 98.948 76.0207 99.15 75.7447 99.554C75.4687 99.954 75.3307 100.508 75.3307 101.216H74.8987C74.8987 100.7 74.9487 100.248 75.0487 99.86C75.1527 99.472 75.3027 99.15 75.4987 98.894C75.6947 98.634 75.9327 98.44 76.2127 98.312C76.4927 98.184 76.8107 98.12 77.1667 98.12C77.6187 98.12 78.0047 98.222 78.3247 98.426C78.6487 98.626 78.8967 98.914 79.0687 99.29C79.2407 99.666 79.3267 100.112 79.3267 100.628V104H78.3907ZM70.3267 104V98.264H71.1307L71.2387 99.416C71.4187 99 71.6707 98.68 71.9947 98.456C72.3227 98.232 72.7147 98.12 73.1707 98.12C73.6227 98.12 74.0087 98.222 74.3287 98.426C74.6527 98.626 74.9007 98.914 75.0727 99.29C75.2447 99.666 75.3307 100.112 75.3307 100.628V104H74.4067V100.628C74.4067 100.08 74.2747 99.664 74.0107 99.38C73.7507 99.092 73.3947 98.948 72.9427 98.948C72.5987 98.948 72.3007 99.042 72.0487 99.23C71.7967 99.418 71.6027 99.688 71.4667 100.04C71.3307 100.388 71.2627 100.804 71.2627 101.288V104H70.3267ZM86.1732 98.252H87.1092V104H86.1732V98.252ZM82.1052 98.252H83.0412V101.828C83.0412 102.308 83.1572 102.672 83.3892 102.92C83.6252 103.168 83.9612 103.292 84.3972 103.292C84.7572 103.292 85.0692 103.196 85.3332 103.004C85.6012 102.812 85.8072 102.548 85.9512 102.212C86.0992 101.872 86.1732 101.484 86.1732 101.048H86.5212C86.5212 101.692 86.4272 102.242 86.2392 102.698C86.0552 103.154 85.7932 103.504 85.4532 103.748C85.1172 103.988 84.7212 104.108 84.2652 104.108C83.8332 104.108 83.4552 104.028 83.1312 103.868C82.8072 103.708 82.5552 103.466 82.3752 103.142C82.1952 102.814 82.1052 102.4 82.1052 101.9V98.252ZM98.3229 104V100.628C98.3229 100.08 98.1909 99.664 97.9269 99.38C97.6669 99.092 97.3149 98.948 96.8709 98.948C96.3509 98.948 95.9529 99.15 95.6769 99.554C95.4009 99.954 95.2629 100.508 95.2629 101.216H94.8309C94.8309 100.7 94.8809 100.248 94.9809 99.86C95.0849 99.472 95.2349 99.15 95.4309 98.894C95.6269 98.634 95.8649 98.44 96.1449 98.312C96.4249 98.184 96.7429 98.12 97.0989 98.12C97.5509 98.12 97.9369 98.222 98.2569 98.426C98.5809 98.626 98.8289 98.914 99.0009 99.29C99.1729 99.666 99.2589 100.112 99.2589 100.628V104H98.3229ZM90.2589 104V98.264H91.0629L91.1709 99.416C91.3509 99 91.6029 98.68 91.9269 98.456C92.2549 98.232 92.6469 98.12 93.1029 98.12C93.5549 98.12 93.9409 98.222 94.2609 98.426C94.5849 98.626 94.8329 98.914 95.0049 99.29C95.1769 99.666 95.2629 100.112 95.2629 100.628V104H94.3389V100.628C94.3389 100.08 94.2069 99.664 93.9429 99.38C93.6829 99.092 93.3269 98.948 92.8749 98.948C92.5309 98.948 92.2329 99.042 91.9809 99.23C91.7289 99.418 91.5349 99.688 91.3989 100.04C91.2629 100.388 91.1949 100.804 91.1949 101.288V104H90.2589ZM102.205 104V95.816H103.141V104H102.205ZM108.281 104.144C107.785 104.144 107.341 104.018 106.949 103.766C106.561 103.51 106.253 103.156 106.025 102.704C105.801 102.252 105.689 101.732 105.689 101.144C105.689 100.516 105.801 99.976 106.025 99.524C106.249 99.072 106.555 98.726 106.943 98.486C107.335 98.242 107.781 98.12 108.281 98.12C108.717 98.12 109.089 98.208 109.397 98.384C109.705 98.56 109.953 98.798 110.141 99.098C110.329 99.398 110.459 99.738 110.531 100.118C110.607 100.494 110.629 100.884 110.597 101.288H106.445V100.712H109.979L109.703 100.892C109.715 100.656 109.701 100.42 109.661 100.184C109.625 99.948 109.555 99.732 109.451 99.536C109.347 99.336 109.201 99.176 109.013 99.056C108.825 98.936 108.585 98.876 108.293 98.876C107.925 98.876 107.617 98.97 107.369 99.158C107.121 99.346 106.935 99.594 106.811 99.902C106.687 100.206 106.625 100.536 106.625 100.892V101.276C106.625 101.676 106.685 102.034 106.805 102.35C106.929 102.666 107.113 102.916 107.357 103.1C107.601 103.284 107.909 103.376 108.281 103.376C108.653 103.376 108.959 103.286 109.199 103.106C109.439 102.926 109.585 102.66 109.637 102.308H110.609C110.549 102.688 110.413 103.016 110.201 103.292C109.989 103.564 109.719 103.774 109.391 103.922C109.063 104.07 108.693 104.144 108.281 104.144ZM124.804 104V100.628C124.804 100.08 124.672 99.664 124.408 99.38C124.148 99.092 123.796 98.948 123.352 98.948C122.832 98.948 122.434 99.15 122.158 99.554C121.882 99.954 121.744 100.508 121.744 101.216H121.312C121.312 100.7 121.362 100.248 121.462 99.86C121.566 99.472 121.716 99.15 121.912 98.894C122.108 98.634 122.346 98.44 122.626 98.312C122.906 98.184 123.224 98.12 123.58 98.12C124.032 98.12 124.418 98.222 124.738 98.426C125.062 98.626 125.31 98.914 125.482 99.29C125.654 99.666 125.74 100.112 125.74 100.628V104H124.804ZM116.74 104V98.264H117.544L117.652 99.416C117.832 99 118.084 98.68 118.408 98.456C118.736 98.232 119.128 98.12 119.584 98.12C120.036 98.12 120.422 98.222 120.742 98.426C121.066 98.626 121.314 98.914 121.486 99.29C121.658 99.666 121.744 100.112 121.744 100.628V104H120.82V100.628C120.82 100.08 120.688 99.664 120.424 99.38C120.164 99.092 119.808 98.948 119.356 98.948C119.012 98.948 118.714 99.042 118.462 99.23C118.21 99.418 118.016 99.688 117.88 100.04C117.744 100.388 117.676 100.804 117.676 101.288V104H116.74ZM132.587 98.252H133.523V104H132.587V98.252ZM128.519 98.252H129.455V101.828C129.455 102.308 129.571 102.672 129.803 102.92C130.039 103.168 130.375 103.292 130.811 103.292C131.171 103.292 131.483 103.196 131.747 103.004C132.015 102.812 132.221 102.548 132.365 102.212C132.513 101.872 132.587 101.484 132.587 101.048H132.935C132.935 101.692 132.841 102.242 132.653 102.698C132.469 103.154 132.207 103.504 131.867 103.748C131.531 103.988 131.135 104.108 130.679 104.108C130.247 104.108 129.869 104.028 129.545 103.868C129.221 103.708 128.969 103.466 128.789 103.142C128.609 102.814 128.519 102.4 128.519 101.9V98.252ZM144.737 104V100.628C144.737 100.08 144.605 99.664 144.341 99.38C144.081 99.092 143.729 98.948 143.285 98.948C142.765 98.948 142.367 99.15 142.091 99.554C141.815 99.954 141.677 100.508 141.677 101.216H141.245C141.245 100.7 141.295 100.248 141.395 99.86C141.499 99.472 141.649 99.15 141.845 98.894C142.041 98.634 142.279 98.44 142.559 98.312C142.839 98.184 143.157 98.12 143.513 98.12C143.965 98.12 144.351 98.222 144.671 98.426C144.995 98.626 145.243 98.914 145.415 99.29C145.587 99.666 145.673 100.112 145.673 100.628V104H144.737ZM136.673 104V98.264H137.477L137.585 99.416C137.765 99 138.017 98.68 138.341 98.456C138.669 98.232 139.061 98.12 139.517 98.12C139.969 98.12 140.355 98.222 140.675 98.426C140.999 98.626 141.247 98.914 141.419 99.29C141.591 99.666 141.677 100.112 141.677 100.628V104H140.753V100.628C140.753 100.08 140.621 99.664 140.357 99.38C140.097 99.092 139.741 98.948 139.289 98.948C138.945 98.948 138.647 99.042 138.395 99.23C138.143 99.418 137.949 99.688 137.813 100.04C137.677 100.388 137.609 100.804 137.609 101.288V104H136.673ZM148.619 104V95.816H149.555V104H148.619ZM154.694 104.144C154.198 104.144 153.754 104.018 153.362 103.766C152.974 103.51 152.666 103.156 152.438 102.704C152.214 102.252 152.102 101.732 152.102 101.144C152.102 100.516 152.214 99.976 152.438 99.524C152.662 99.072 152.968 98.726 153.356 98.486C153.748 98.242 154.194 98.12 154.694 98.12C155.13 98.12 155.502 98.208 155.81 98.384C156.118 98.56 156.366 98.798 156.554 99.098C156.742 99.398 156.872 99.738 156.944 100.118C157.02 100.494 157.042 100.884 157.01 101.288H152.858V100.712H156.392L156.116 100.892C156.128 100.656 156.114 100.42 156.074 100.184C156.038 99.948 155.968 99.732 155.864 99.536C155.76 99.336 155.614 99.176 155.426 99.056C155.238 98.936 154.998 98.876 154.706 98.876C154.338 98.876 154.03 98.97 153.782 99.158C153.534 99.346 153.348 99.594 153.224 99.902C153.1 100.206 153.038 100.536 153.038 100.892V101.276C153.038 101.676 153.098 102.034 153.218 102.35C153.342 102.666 153.526 102.916 153.77 103.1C154.014 103.284 154.322 103.376 154.694 103.376C155.066 103.376 155.372 103.286 155.612 103.106C155.852 102.926 155.998 102.66 156.05 102.308H157.022C156.962 102.688 156.826 103.016 156.614 103.292C156.402 103.564 156.132 103.774 155.804 103.922C155.476 104.07 155.106 104.144 154.694 104.144ZM158.735 103.442C158.735 103.254 158.801 103.092 158.933 102.956C159.065 102.82 159.231 102.752 159.431 102.752C159.631 102.752 159.801 102.82 159.941 102.956C160.081 103.092 160.151 103.254 160.151 103.442C160.151 103.63 160.081 103.788 159.941 103.916C159.801 104.044 159.631 104.108 159.431 104.108C159.231 104.108 159.065 104.044 158.933 103.916C158.801 103.784 158.735 103.626 158.735 103.442ZM45.6521 117.004L47.8841 110.464H48.8801L46.1921 118H45.2201L42.5561 110.464H43.5521L45.7721 117.004H45.6521ZM54.1874 118L54.0674 116.74V114.28C54.0674 113.764 53.9574 113.394 53.7374 113.17C53.5174 112.942 53.1874 112.828 52.7474 112.828C52.4994 112.828 52.2734 112.864 52.0694 112.936C51.8694 113.008 51.7094 113.12 51.5894 113.272C51.4734 113.42 51.4154 113.612 51.4154 113.848H50.3714C50.3714 113.432 50.4734 113.098 50.6774 112.846C50.8814 112.59 51.1614 112.406 51.5174 112.294C51.8774 112.178 52.2874 112.12 52.7474 112.12C53.1874 112.12 53.5774 112.194 53.9174 112.342C54.2574 112.49 54.5234 112.726 54.7154 113.05C54.9074 113.37 55.0034 113.788 55.0034 114.304V118H54.1874ZM52.2314 118.144C51.7594 118.144 51.3694 118.06 51.0614 117.892C50.7534 117.724 50.5234 117.506 50.3714 117.238C50.2194 116.97 50.1434 116.688 50.1434 116.392C50.1434 116.004 50.2394 115.688 50.4314 115.444C50.6274 115.2 50.8934 115.022 51.2294 114.91C51.5654 114.794 51.9434 114.736 52.3634 114.736C52.6634 114.736 52.9634 114.766 53.2634 114.826C53.5674 114.886 53.8634 114.968 54.1514 115.072V115.66C53.9114 115.564 53.6394 115.488 53.3354 115.432C53.0354 115.376 52.7594 115.348 52.5074 115.348C52.1234 115.348 51.7994 115.428 51.5354 115.588C51.2714 115.744 51.1394 116.012 51.1394 116.392C51.1394 116.672 51.2394 116.912 51.4394 117.112C51.6434 117.312 51.9674 117.412 52.4114 117.412C52.7234 117.412 53.0034 117.34 53.2514 117.196C53.5034 117.048 53.7014 116.864 53.8454 116.644C53.9934 116.424 54.0674 116.204 54.0674 115.984H54.2954C54.2954 116.368 54.2114 116.724 54.0434 117.052C53.8794 117.38 53.6434 117.644 53.3354 117.844C53.0274 118.044 52.6594 118.144 52.2314 118.144ZM57.9648 118V112.252H58.9008V118H57.9648ZM58.6128 115.408C58.6128 114.68 58.6828 114.076 58.8228 113.596C58.9628 113.112 59.1668 112.752 59.4348 112.516C59.7068 112.276 60.0368 112.156 60.4248 112.156C60.5528 112.156 60.6688 112.166 60.7728 112.186C60.8808 112.202 60.9888 112.228 61.0968 112.264L61.0368 113.188C60.9248 113.152 60.8028 113.122 60.6708 113.098C60.5388 113.07 60.4208 113.056 60.3168 113.056C59.9768 113.056 59.7028 113.154 59.4948 113.35C59.2868 113.542 59.1348 113.814 59.0388 114.166C58.9468 114.518 58.9008 114.932 58.9008 115.408H58.6128ZM65.0127 118.144C64.5167 118.144 64.0727 118.018 63.6807 117.766C63.2927 117.51 62.9847 117.156 62.7567 116.704C62.5327 116.252 62.4207 115.732 62.4207 115.144C62.4207 114.516 62.5327 113.976 62.7567 113.524C62.9807 113.072 63.2867 112.726 63.6747 112.486C64.0667 112.242 64.5127 112.12 65.0127 112.12C65.4487 112.12 65.8207 112.208 66.1287 112.384C66.4367 112.56 66.6847 112.798 66.8727 113.098C67.0607 113.398 67.1907 113.738 67.2627 114.118C67.3387 114.494 67.3607 114.884 67.3287 115.288H63.1767V114.712H66.7107L66.4347 114.892C66.4467 114.656 66.4327 114.42 66.3927 114.184C66.3567 113.948 66.2867 113.732 66.1827 113.536C66.0787 113.336 65.9327 113.176 65.7447 113.056C65.5567 112.936 65.3167 112.876 65.0247 112.876C64.6567 112.876 64.3487 112.97 64.1007 113.158C63.8527 113.346 63.6667 113.594 63.5427 113.902C63.4187 114.206 63.3567 114.536 63.3567 114.892V115.276C63.3567 115.676 63.4167 116.034 63.5367 116.35C63.6607 116.666 63.8447 116.916 64.0887 117.1C64.3327 117.284 64.6407 117.376 65.0127 117.376C65.3847 117.376 65.6907 117.286 65.9307 117.106C66.1707 116.926 66.3167 116.66 66.3687 116.308H67.3407C67.2807 116.688 67.1447 117.016 66.9327 117.292C66.7207 117.564 66.4507 117.774 66.1227 117.922C65.7947 118.07 65.4247 118.144 65.0127 118.144ZM73.9848 118V114.628C73.9848 114.08 73.8528 113.664 73.5888 113.38C73.3288 113.092 72.9728 112.948 72.5208 112.948C72.1768 112.948 71.8788 113.042 71.6268 113.23C71.3748 113.418 71.1808 113.688 71.0448 114.04C70.9088 114.388 70.8408 114.804 70.8408 115.288H70.4808C70.4808 114.62 70.5688 114.05 70.7448 113.578C70.9208 113.106 71.1768 112.746 71.5128 112.498C71.8528 112.246 72.2648 112.12 72.7488 112.12C73.2008 112.12 73.5868 112.222 73.9068 112.426C74.2308 112.626 74.4788 112.914 74.6508 113.29C74.8228 113.666 74.9088 114.112 74.9088 114.628V118H73.9848ZM69.9048 118V109.816H70.8408V118H69.9048ZM81.767 112.252H82.703V118H81.767V112.252ZM77.699 112.252H78.635V115.828C78.635 116.308 78.751 116.672 78.983 116.92C79.219 117.168 79.555 117.292 79.991 117.292C80.351 117.292 80.663 117.196 80.927 117.004C81.195 116.812 81.401 116.548 81.545 116.212C81.693 115.872 81.767 115.484 81.767 115.048H82.115C82.115 115.692 82.021 116.242 81.833 116.698C81.649 117.154 81.387 117.504 81.047 117.748C80.711 117.988 80.315 118.108 79.859 118.108C79.427 118.108 79.049 118.028 78.725 117.868C78.401 117.708 78.149 117.466 77.969 117.142C77.789 116.814 77.699 116.4 77.699 115.9V112.252ZM87.9166 118.144C87.3606 118.144 86.8966 118.066 86.5246 117.91C86.1526 117.75 85.8706 117.532 85.6786 117.256C85.4866 116.976 85.3846 116.656 85.3726 116.296H86.2726C86.2926 116.66 86.4386 116.934 86.7106 117.118C86.9866 117.298 87.3606 117.388 87.8326 117.388C88.0806 117.388 88.3086 117.348 88.5166 117.268C88.7246 117.188 88.8906 117.078 89.0146 116.938C89.1386 116.798 89.2006 116.64 89.2006 116.464C89.2006 116.24 89.1186 116.064 88.9546 115.936C88.7906 115.808 88.5286 115.696 88.1686 115.6L87.0526 115.24C86.5686 115.088 86.1966 114.88 85.9366 114.616C85.6806 114.348 85.5526 114.028 85.5526 113.656C85.5526 113.192 85.7566 112.82 86.1646 112.54C86.5726 112.26 87.1086 112.12 87.7726 112.12C88.4766 112.12 89.0226 112.264 89.4106 112.552C89.7986 112.84 90.0006 113.2 90.0166 113.632H89.0926C89.0566 113.38 88.9286 113.19 88.7086 113.062C88.4886 112.93 88.1766 112.864 87.7726 112.864C87.3846 112.864 87.0806 112.952 86.8606 113.128C86.6446 113.3 86.5366 113.492 86.5366 113.704C86.5366 114.1 86.8766 114.392 87.5566 114.58L88.6966 114.964C89.1886 115.112 89.5646 115.306 89.8246 115.546C90.0886 115.786 90.2206 116.092 90.2206 116.464C90.2206 116.752 90.1266 117.024 89.9386 117.28C89.7506 117.536 89.4846 117.744 89.1406 117.904C88.7966 118.064 88.3886 118.144 87.9166 118.144ZM98.509 118.144C97.953 118.144 97.489 118.066 97.117 117.91C96.745 117.75 96.463 117.532 96.271 117.256C96.079 116.976 95.977 116.656 95.965 116.296H96.865C96.885 116.66 97.031 116.934 97.303 117.118C97.579 117.298 97.953 117.388 98.425 117.388C98.673 117.388 98.901 117.348 99.109 117.268C99.317 117.188 99.483 117.078 99.607 116.938C99.731 116.798 99.793 116.64 99.793 116.464C99.793 116.24 99.711 116.064 99.547 115.936C99.383 115.808 99.121 115.696 98.761 115.6L97.645 115.24C97.161 115.088 96.789 114.88 96.529 114.616C96.273 114.348 96.145 114.028 96.145 113.656C96.145 113.192 96.349 112.82 96.757 112.54C97.165 112.26 97.701 112.12 98.365 112.12C99.069 112.12 99.615 112.264 100.003 112.552C100.391 112.84 100.593 113.2 100.609 113.632H99.685C99.649 113.38 99.521 113.19 99.301 113.062C99.081 112.93 98.769 112.864 98.365 112.864C97.977 112.864 97.673 112.952 97.453 113.128C97.237 113.3 97.129 113.492 97.129 113.704C97.129 114.1 97.469 114.392 98.149 114.58L99.289 114.964C99.781 115.112 100.157 115.306 100.417 115.546C100.681 115.786 100.813 116.092 100.813 116.464C100.813 116.752 100.719 117.024 100.531 117.28C100.343 117.536 100.077 117.744 99.733 117.904C99.389 118.064 98.981 118.144 98.509 118.144ZM107.37 112.252H108.306V118H107.37V112.252ZM103.302 112.252H104.238V115.828C104.238 116.308 104.354 116.672 104.586 116.92C104.822 117.168 105.158 117.292 105.594 117.292C105.954 117.292 106.266 117.196 106.53 117.004C106.798 116.812 107.004 116.548 107.148 116.212C107.296 115.872 107.37 115.484 107.37 115.048H107.718C107.718 115.692 107.624 116.242 107.436 116.698C107.252 117.154 106.99 117.504 106.65 117.748C106.314 117.988 105.918 118.108 105.462 118.108C105.03 118.108 104.652 118.028 104.328 117.868C104.004 117.708 103.752 117.466 103.572 117.142C103.392 116.814 103.302 116.4 103.302 115.9V112.252ZM113.519 118.144C112.963 118.144 112.499 118.066 112.127 117.91C111.755 117.75 111.473 117.532 111.281 117.256C111.089 116.976 110.987 116.656 110.975 116.296H111.875C111.895 116.66 112.041 116.934 112.313 117.118C112.589 117.298 112.963 117.388 113.435 117.388C113.683 117.388 113.911 117.348 114.119 117.268C114.327 117.188 114.493 117.078 114.617 116.938C114.741 116.798 114.803 116.64 114.803 116.464C114.803 116.24 114.721 116.064 114.557 115.936C114.393 115.808 114.131 115.696 113.771 115.6L112.655 115.24C112.171 115.088 111.799 114.88 111.539 114.616C111.283 114.348 111.155 114.028 111.155 113.656C111.155 113.192 111.359 112.82 111.767 112.54C112.175 112.26 112.711 112.12 113.375 112.12C114.079 112.12 114.625 112.264 115.013 112.552C115.401 112.84 115.603 113.2 115.619 113.632H114.695C114.659 113.38 114.531 113.19 114.311 113.062C114.091 112.93 113.779 112.864 113.375 112.864C112.987 112.864 112.683 112.952 112.463 113.128C112.247 113.3 112.139 113.492 112.139 113.704C112.139 114.1 112.479 114.392 113.159 114.58L114.299 114.964C114.791 115.112 115.167 115.306 115.427 115.546C115.691 115.786 115.823 116.092 115.823 116.464C115.823 116.752 115.729 117.024 115.541 117.28C115.353 117.536 115.087 117.744 114.743 117.904C114.399 118.064 113.991 118.144 113.519 118.144ZM122.576 110.908C122.384 110.908 122.232 110.854 122.12 110.746C122.008 110.634 121.952 110.488 121.952 110.308C121.952 110.132 122.008 109.992 122.12 109.888C122.232 109.784 122.384 109.732 122.576 109.732C122.768 109.732 122.92 109.784 123.032 109.888C123.144 109.992 123.2 110.132 123.2 110.308C123.2 110.488 123.144 110.634 123.032 110.746C122.92 110.854 122.768 110.908 122.576 110.908ZM122.108 118V112.252H123.044V118H122.108ZM131.961 118.144C131.497 118.144 131.071 118.02 130.683 117.772C130.295 117.52 129.985 117.168 129.753 116.716C129.521 116.26 129.405 115.724 129.405 115.108C129.405 114.496 129.519 113.966 129.747 113.518C129.975 113.07 130.277 112.726 130.653 112.486C131.033 112.242 131.449 112.12 131.901 112.12C132.321 112.12 132.689 112.222 133.005 112.426C133.325 112.63 133.573 112.924 133.749 113.308C133.925 113.692 134.013 114.156 134.013 114.7H133.653C133.653 114.32 133.577 114 133.425 113.74C133.277 113.48 133.083 113.284 132.843 113.152C132.603 113.016 132.345 112.948 132.069 112.948C131.757 112.948 131.471 113.036 131.211 113.212C130.955 113.384 130.749 113.632 130.593 113.956C130.441 114.276 130.365 114.66 130.365 115.108C130.365 115.564 130.441 115.956 130.593 116.284C130.749 116.612 130.955 116.864 131.211 117.04C131.471 117.216 131.757 117.304 132.069 117.304C132.329 117.304 132.579 117.236 132.819 117.1C133.063 116.964 133.263 116.766 133.419 116.506C133.575 116.242 133.653 115.924 133.653 115.552H134.013C134.013 116.108 133.921 116.58 133.737 116.968C133.557 117.352 133.311 117.644 132.999 117.844C132.691 118.044 132.345 118.144 131.961 118.144ZM133.809 118L133.653 116.656V109.816H134.589V118H133.809ZM141.643 112.252H142.579V118H141.643V112.252ZM137.575 112.252H138.511V115.828C138.511 116.308 138.627 116.672 138.859 116.92C139.095 117.168 139.431 117.292 139.867 117.292C140.227 117.292 140.539 117.196 140.803 117.004C141.071 116.812 141.277 116.548 141.421 116.212C141.569 115.872 141.643 115.484 141.643 115.048H141.991C141.991 115.692 141.897 116.242 141.709 116.698C141.525 117.154 141.263 117.504 140.923 117.748C140.587 117.988 140.191 118.108 139.735 118.108C139.303 118.108 138.925 118.028 138.601 117.868C138.277 117.708 138.025 117.466 137.845 117.142C137.665 116.814 137.575 116.4 137.575 115.9V112.252ZM147.792 118.144C147.236 118.144 146.772 118.066 146.4 117.91C146.028 117.75 145.746 117.532 145.554 117.256C145.362 116.976 145.26 116.656 145.248 116.296H146.148C146.168 116.66 146.314 116.934 146.586 117.118C146.862 117.298 147.236 117.388 147.708 117.388C147.956 117.388 148.184 117.348 148.392 117.268C148.6 117.188 148.766 117.078 148.89 116.938C149.014 116.798 149.076 116.64 149.076 116.464C149.076 116.24 148.994 116.064 148.83 115.936C148.666 115.808 148.404 115.696 148.044 115.6L146.928 115.24C146.444 115.088 146.072 114.88 145.812 114.616C145.556 114.348 145.428 114.028 145.428 113.656C145.428 113.192 145.632 112.82 146.04 112.54C146.448 112.26 146.984 112.12 147.648 112.12C148.352 112.12 148.898 112.264 149.286 112.552C149.674 112.84 149.876 113.2 149.892 113.632H148.968C148.932 113.38 148.804 113.19 148.584 113.062C148.364 112.93 148.052 112.864 147.648 112.864C147.26 112.864 146.956 112.952 146.736 113.128C146.52 113.3 146.412 113.492 146.412 113.704C146.412 114.1 146.752 114.392 147.432 114.58L148.572 114.964C149.064 115.112 149.44 115.306 149.7 115.546C149.964 115.786 150.096 116.092 150.096 116.464C150.096 116.752 150.002 117.024 149.814 117.28C149.626 117.536 149.36 117.744 149.016 117.904C148.672 118.064 148.264 118.144 147.792 118.144Z" fill="white"/>
<path d="M94.6437 38.6109C90.9068 38.6109 87.2537 39.0412 84.1466 39.8474C81.0394 40.6536 78.6177 41.7995 77.1876 43.1402C75.7576 44.4808 75.3834 45.9561 76.1124 47.3793C76.8415 48.8026 78.641 50.1099 81.2834 51.136C83.9258 52.1621 87.2925 52.8609 90.9576 53.144C94.6228 53.4271 98.4218 53.2818 101.874 52.7265C105.327 52.1712 108.278 51.2308 110.354 50.0242C112.43 48.8176 113.538 47.3991 113.538 45.9479C113.532 44.0027 111.54 42.1378 107.998 40.7623C104.456 39.3868 99.6531 38.6131 94.6437 38.6109ZM94.6437 49.6165C92.7752 49.6165 90.9487 49.4013 89.3951 48.9982C87.8416 48.5951 86.6307 48.0222 85.9157 47.3518C85.2006 46.6815 85.0135 45.9439 85.3781 45.2323C85.7426 44.5206 86.6423 43.867 87.9636 43.3539C89.2848 42.8409 90.9681 42.4915 92.8007 42.3499C94.6332 42.2084 96.5327 42.281 98.259 42.5587C99.9852 42.8363 101.461 43.3065 102.499 43.9098C103.537 44.5131 104.091 45.2224 104.091 45.9479C104.088 46.9206 103.092 47.853 101.321 48.5407C99.5496 49.2285 97.1484 49.6153 94.6437 49.6165Z" fill="white"/>
<path d="M130.951 31.8381C121.974 28.3531 109.991 26.2828 97.3142 26.0269C84.6376 25.771 72.1662 27.3476 62.307 30.4524C52.4478 33.5572 45.8998 37.9701 43.9267 42.8394C41.9535 47.7087 44.6952 52.6892 51.6225 56.8197L87.3171 78.0986C88.1115 78.5721 89.1976 78.9612 90.477 79.2304C91.7564 79.4997 93.1886 79.6408 94.6439 79.6408C96.0991 79.6408 97.5314 79.4997 98.8108 79.2304C100.09 78.9612 101.176 78.5721 101.971 78.0986L137.666 56.8197C144.094 52.9881 146.935 48.4149 145.712 43.8667C144.49 39.3185 139.278 35.0717 130.951 31.8381ZM129.751 54.8173L94.644 75.7451L59.5369 54.8173C48.7907 48.4112 51.0955 39.8384 65.0171 34.4321C68.9077 32.9213 73.5266 31.7228 78.61 30.9051C83.6934 30.0875 89.1418 29.6666 94.644 29.6666C100.146 29.6666 105.595 30.0875 110.678 30.9051C115.761 31.7228 120.38 32.9213 124.271 34.4321C138.192 39.8384 140.497 48.4112 129.751 54.8173Z" fill="white"/>
</svg>
