<svg width="390" height="103" viewBox="0 0 390 103" fill="none" xmlns="http://www.w3.org/2000/svg">
<rect x="2.14285" y="2" width="387.857" height="98.8346" fill="#D9D9D9"/>
<rect y="2" width="390" height="20.4485" fill="#979797"/>
<rect y="22.4485" width="390" height="20.4485" fill="#D9D9D9"/>
<rect y="41.3823" width="390" height="20.4485" fill="#979797"/>
<path d="M14.714 44.65C15.1193 44.992 15.322 45.391 15.322 45.847C15.322 46.303 15.2017 46.6323 14.961 46.835C14.733 47.025 14.4543 47.1137 14.125 47.101C14.125 45.6317 13.3523 44.897 11.807 44.897C11.085 44.897 10.4833 45.068 10.002 45.41C9.53333 45.752 9.299 46.227 9.299 46.835C9.299 47.557 9.64733 48.1397 10.344 48.583C10.724 48.8237 11.0343 49.001 11.275 49.115C11.5157 49.229 11.8957 49.4 12.415 49.628C12.9343 49.8433 13.3333 50.0207 13.612 50.16C13.9033 50.2993 14.22 50.483 14.562 50.711C14.904 50.9263 15.1573 51.1353 15.322 51.338C15.7273 51.8573 15.93 52.459 15.93 53.143C15.93 54.283 15.4993 55.2583 14.638 56.069C13.7893 56.8797 12.6683 57.285 11.275 57.285C10.2743 57.285 9.38767 57.0823 8.615 56.677C7.855 56.2717 7.475 55.7333 7.475 55.062C7.475 54.7327 7.57 54.4603 7.76 54.245C7.96267 54.0297 8.235 53.922 8.577 53.922C8.729 54.682 9.06467 55.2583 9.584 55.651C10.1033 56.0437 10.7937 56.24 11.655 56.24C12.5163 56.24 13.2257 56.0057 13.783 55.537C14.3403 55.0557 14.619 54.4223 14.619 53.637C14.619 52.9023 14.3593 52.345 13.84 51.965C13.4347 51.661 12.9977 51.414 12.529 51.224C12.073 51.0213 11.674 50.844 11.332 50.692C10.99 50.54 10.6417 50.3753 10.287 50.198C9.945 50.008 9.57133 49.7673 9.166 49.476C8.38067 48.906 7.988 48.1333 7.988 47.158C7.988 46.1827 8.36167 45.3973 9.109 44.802C9.869 44.194 10.8063 43.8773 11.921 43.852C13.099 43.8267 14.03 44.0927 14.714 44.65ZM28.3388 57H24.7288V56.848C24.7288 56.4427 24.9314 56.221 25.3368 56.183L26.1158 56.145V51.376C26.1158 50.4513 25.9194 49.761 25.5268 49.305C25.1341 48.8363 24.6211 48.602 23.9878 48.602C23.3671 48.602 22.8541 48.7033 22.4488 48.906C22.0561 49.1087 21.6318 49.4127 21.1758 49.818V56.107L22.6198 56.221C22.6704 56.7403 22.4931 57 22.0878 57H18.4778V56.848C18.4778 56.544 18.5664 56.354 18.7438 56.278C18.8324 56.2273 18.9401 56.1957 19.0668 56.183L19.8648 56.145V45.011L18.8768 44.916C18.5728 44.878 18.4208 44.6057 18.4208 44.099L21.1758 43.738V48.773C22.0498 47.8737 23.0441 47.424 24.1588 47.424C25.0454 47.424 25.8054 47.7343 26.4388 48.355C27.0721 48.963 27.3951 49.932 27.4078 51.262L27.4268 56.107L28.8518 56.221C28.9024 56.7403 28.7314 57 28.3388 57ZM34.9915 57H31.3815V56.848C31.3815 56.544 31.4701 56.354 31.6475 56.278C31.7361 56.2273 31.8438 56.1957 31.9705 56.183L32.7685 56.145V48.621L31.7805 48.545C31.4765 48.507 31.3245 48.2347 31.3245 47.728L34.0795 47.424V56.107L35.5235 56.221C35.5741 56.7403 35.3968 57 34.9915 57ZM33.9465 45.695C33.7691 45.8597 33.5411 45.942 33.2625 45.942C32.9838 45.942 32.7558 45.8597 32.5785 45.695C32.4138 45.5177 32.3315 45.2897 32.3315 45.011C32.3315 44.7323 32.4138 44.5043 32.5785 44.327C32.7558 44.1497 32.9838 44.061 33.2625 44.061C33.5411 44.061 33.7691 44.1497 33.9465 44.327C34.1238 44.5043 34.2125 44.7323 34.2125 45.011C34.2125 45.2897 34.1238 45.5177 33.9465 45.695ZM47.7978 57H44.2638V56.848C44.2638 56.544 44.3524 56.354 44.5298 56.278C44.6184 56.2273 44.7261 56.1957 44.8528 56.183L45.6888 56.145V51.224C45.6888 49.4507 44.9858 48.564 43.5798 48.564C43.0604 48.564 42.5918 48.6653 42.1738 48.868C41.7558 49.0707 41.2808 49.3937 40.7488 49.837V56.107L42.0978 56.221C42.1484 56.7403 41.9774 57 41.5848 57H38.0128V56.848C38.0128 56.4427 38.2154 56.221 38.6208 56.183L39.4378 56.145V48.659L38.4498 48.545C38.1458 48.5197 37.9938 48.26 37.9938 47.766L40.4448 47.443L40.6918 48.887H40.7488C41.7748 47.9117 42.8324 47.424 43.9218 47.424C44.7704 47.424 45.4924 47.7217 46.0878 48.317C46.6958 48.9123 46.9998 49.8307 46.9998 51.072V56.107L48.3298 56.221C48.3804 56.7403 48.2031 57 47.7978 57ZM56.7711 47.709H59.2791C59.2664 47.747 59.2664 47.7977 59.2791 47.861C59.2918 47.9117 59.2854 47.975 59.2601 48.051C59.2474 48.1143 59.2284 48.1777 59.2031 48.241C59.1271 48.393 58.8864 48.488 58.4811 48.526L55.2321 56.525H55.2511C54.9091 57.437 54.5608 58.2223 54.2061 58.881C53.8641 59.5397 53.5918 59.9893 53.3891 60.23C52.8951 60.8507 52.4074 61.161 51.9261 61.161C51.4448 61.161 51.0901 61.0597 50.8621 60.857C50.6341 60.667 50.5201 60.4327 50.5201 60.154C50.5201 59.888 50.5898 59.6663 50.7291 59.489C50.8811 59.3243 51.0458 59.242 51.2231 59.242C51.4131 59.242 51.5398 59.2547 51.6031 59.28C51.4891 59.7867 51.6348 60.04 52.0401 60.04C52.3694 60.04 52.7431 59.6663 53.1611 58.919C53.5791 58.1717 53.9528 57.38 54.2821 56.544L50.9761 48.602H50.9571L50.0261 48.488C49.9754 47.9687 50.1528 47.709 50.5581 47.709H53.7501V47.842C53.7501 48.146 53.6614 48.336 53.4841 48.412C53.3828 48.4627 53.0344 48.5133 52.4391 48.564L54.9091 54.929L57.3411 48.602L56.2391 48.488C56.1884 47.9687 56.3658 47.709 56.7711 47.709Z" fill="black"/>
<rect y="61.8309" width="390" height="20.4485" fill="#D9D9D9"/>
<rect y="82.2794" width="390" height="20.4485" fill="#979797"/>
<path d="M7.798 97V96.696C7.798 96.4173 7.92467 96.24 8.178 96.164C8.24133 96.1387 8.311 96.126 8.387 96.126L9.261 96.088V85.049L7.874 84.935C7.836 84.3777 8.00067 84.099 8.368 84.099H12.529C15.303 84.099 16.69 85.1503 16.69 87.253C16.69 88.2917 16.3607 89.1277 15.702 89.761C15.056 90.3817 14.201 90.7807 13.137 90.958C13.9097 92.592 14.714 93.865 15.55 94.777C16.3987 95.689 17.1333 96.145 17.754 96.145C17.7413 96.487 17.64 96.7657 17.45 96.981C17.2727 97.1837 17.0447 97.285 16.766 97.285C16.2467 97.285 15.664 96.9493 15.018 96.278C13.7893 94.986 12.776 93.2443 11.978 91.053H11.921C11.503 91.053 11.0723 91.034 10.629 90.996V96.05L12.073 96.164C12.1237 96.7213 11.9527 97 11.56 97H7.798ZM10.629 85.011V90.122C11.161 90.1473 11.5347 90.16 11.75 90.16C12.89 90.16 13.7577 89.9257 14.353 89.457C14.9483 88.9883 15.246 88.336 15.246 87.5C15.246 86.3853 14.8913 85.657 14.182 85.315C13.574 85.0237 12.7823 84.9033 11.807 84.954L10.667 85.011H10.629ZM28.3018 96.411C28.3018 97.0063 27.9092 97.304 27.1238 97.304C26.3385 97.304 25.8825 96.905 25.7558 96.107C24.9452 96.8923 23.9698 97.285 22.8298 97.285C21.9558 97.285 21.2592 97.0633 20.7398 96.62C20.2332 96.164 19.9798 95.5497 19.9798 94.777C19.9798 94.0043 20.2648 93.352 20.8348 92.82C21.4048 92.288 22.3485 92.022 23.6658 92.022C24.4385 92.022 25.1225 92.1107 25.7178 92.288V90.787C25.7178 90.065 25.5342 89.4887 25.1668 89.058C24.8122 88.6147 24.2865 88.393 23.5898 88.393C22.8932 88.393 22.3928 88.583 22.0888 88.963C21.7975 89.3303 21.6328 89.761 21.5948 90.255C21.2908 90.2803 21.0375 90.217 20.8348 90.065C20.6322 89.913 20.5308 89.666 20.5308 89.324C20.5308 88.7793 20.8095 88.3297 21.3668 87.975C21.9242 87.6077 22.6462 87.424 23.5328 87.424C24.3055 87.424 25.0402 87.614 25.7368 87.994C26.1295 88.1967 26.4462 88.5323 26.6868 89.001C26.9275 89.4697 27.0478 90.0397 27.0478 90.711V96.259L28.3018 96.411ZM25.7178 93.428C25.1352 93.1113 24.4575 92.953 23.6848 92.953C22.9122 92.953 22.3422 93.0987 21.9748 93.39C21.6202 93.6813 21.4428 94.0803 21.4428 94.587C21.4428 95.0937 21.6012 95.499 21.9178 95.803C22.2345 96.0943 22.6715 96.24 23.2288 96.24C24.1155 96.24 24.9452 95.898 25.7178 95.214V93.428ZM34.3049 97H30.6949V96.848C30.6949 96.544 30.7836 96.354 30.9609 96.278C31.0496 96.2273 31.1573 96.1957 31.2839 96.183L32.0819 96.145V88.621L31.0939 88.545C30.7899 88.507 30.6379 88.2347 30.6379 87.728L33.3929 87.424V96.107L34.8369 96.221C34.8876 96.7403 34.7103 97 34.3049 97ZM33.2599 85.695C33.0826 85.8597 32.8546 85.942 32.5759 85.942C32.2973 85.942 32.0693 85.8597 31.8919 85.695C31.7273 85.5177 31.6449 85.2897 31.6449 85.011C31.6449 84.7323 31.7273 84.5043 31.8919 84.327C32.0693 84.1497 32.2973 84.061 32.5759 84.061C32.8546 84.061 33.0826 84.1497 33.2599 84.327C33.4373 84.5043 33.5259 84.7323 33.5259 85.011C33.5259 85.2897 33.4373 85.5177 33.2599 85.695ZM47.1112 97H43.5772V96.848C43.5772 96.544 43.6659 96.354 43.8432 96.278C43.9319 96.2273 44.0396 96.1957 44.1662 96.183L45.0022 96.145V91.224C45.0022 89.4507 44.2992 88.564 42.8932 88.564C42.3739 88.564 41.9052 88.6653 41.4872 88.868C41.0692 89.0707 40.5942 89.3937 40.0622 89.837V96.107L41.4112 96.221C41.4619 96.7403 41.2909 97 40.8982 97H37.3262V96.848C37.3262 96.4427 37.5289 96.221 37.9342 96.183L38.7512 96.145V88.659L37.7632 88.545C37.4592 88.5197 37.3072 88.26 37.3072 87.766L39.7582 87.443L40.0052 88.887H40.0622C41.0882 87.9117 42.1459 87.424 43.2352 87.424C44.0839 87.424 44.8059 87.7217 45.4012 88.317C46.0092 88.9123 46.3132 89.8307 46.3132 91.072V96.107L47.6432 96.221C47.6939 96.7403 47.5166 97 47.1112 97ZM52.2846 88.773C53.2092 87.8737 54.1972 87.424 55.2486 87.424C56.3126 87.424 57.1929 87.8103 57.8896 88.583C58.5989 89.3557 58.9662 90.521 58.9916 92.079C59.0296 93.637 58.6496 94.8973 57.8516 95.86C57.0536 96.81 55.9326 97.285 54.4886 97.285C53.7666 97.285 53.0319 97.1203 52.2846 96.791L50.9736 96.297V85.011L49.9856 84.897C49.6816 84.8717 49.5296 84.5993 49.5296 84.08L52.2846 83.738V88.773ZM52.2846 95.328C52.9686 95.9487 53.7919 96.259 54.7546 96.259C55.7299 96.259 56.4456 95.8853 56.9016 95.138C57.3576 94.3907 57.5856 93.4597 57.5856 92.345C57.5856 91.2303 57.3576 90.3183 56.9016 89.609C56.4582 88.8997 55.7679 88.545 54.8306 88.545C54.3619 88.545 53.9439 88.64 53.5766 88.83C53.2092 89.02 52.7786 89.3177 52.2846 89.723V95.328ZM65.713 88.412C64.8516 88.412 64.1866 88.7857 63.718 89.533C63.2493 90.2803 63.015 91.2367 63.015 92.402C63.015 93.5547 63.243 94.4983 63.699 95.233C64.155 95.955 64.8136 96.316 65.675 96.316C66.5363 96.3033 67.2013 95.936 67.67 95.214C68.1386 94.492 68.373 93.561 68.373 92.421C68.373 91.2683 68.145 90.312 67.689 89.552C67.2456 88.7793 66.587 88.3993 65.713 88.412ZM65.827 87.424C66.7896 87.424 67.6573 87.728 68.43 88.336C68.8353 88.6653 69.1583 89.1467 69.399 89.78C69.6523 90.4133 69.779 91.1733 69.779 92.06C69.8043 93.6307 69.437 94.8973 68.677 95.86C67.917 96.81 66.891 97.285 65.599 97.285C64.307 97.285 63.3253 96.8797 62.654 96.069C61.9826 95.2583 61.6343 94.0867 61.609 92.554C61.5963 91.0213 61.97 89.7863 62.73 88.849C63.5026 87.899 64.535 87.424 65.827 87.424ZM82.5054 87.709H84.9564C85.0071 88.2157 84.8234 88.4817 84.4054 88.507L84.2914 88.526L81.1374 97H80.3394L78.2874 91.11L76.0834 97H75.3044L72.4924 88.602L71.7324 88.488C71.6944 87.9687 71.8591 87.709 72.2264 87.709H75.2664V87.842C75.2664 87.9433 75.2537 88.0193 75.2284 88.07C75.2157 88.108 75.1904 88.165 75.1524 88.241C75.1017 88.393 74.9371 88.4817 74.6584 88.507L73.9554 88.564L75.9124 95.176L78.2494 88.507H78.8954L80.9474 95.024L83.0754 88.602L81.9924 88.488C81.9417 87.9687 82.1127 87.709 82.5054 87.709Z" fill="black"/>
<line x1="195.5" y1="2" x2="195.5" y2="102.728" stroke="black"/>
<path d="M7.798 17.886C7.798 17.392 7.99433 17.145 8.387 17.145L9.261 17.069V6.068L7.874 5.954C7.82333 5.384 7.988 5.099 8.368 5.099H12.339C13.6057 5.099 14.5557 5.39667 15.189 5.992C15.835 6.58733 16.158 7.33467 16.158 8.234C16.158 9.602 15.455 10.5773 14.049 11.16C14.809 11.2993 15.455 11.635 15.987 12.167C16.519 12.699 16.785 13.383 16.785 14.219C16.7977 15.397 16.4113 16.3217 15.626 16.993C14.8407 17.6643 13.7767 18 12.434 18H7.798V17.886ZM10.629 6.011V10.894H11.446C12.5987 10.894 13.4283 10.6787 13.935 10.248C14.4543 9.80467 14.714 9.15867 14.714 8.31C14.714 7.46133 14.4353 6.84067 13.878 6.448C13.3333 6.05533 12.5607 5.89067 11.56 5.954L10.648 6.011H10.629ZM15.36 14.409C15.36 13.4083 15.0687 12.7053 14.486 12.3C13.9033 11.8947 12.966 11.7047 11.674 11.73L10.629 11.749V17.069L11.959 17.088C14.2263 17.126 15.36 16.233 15.36 14.409ZM22.921 18H19.349V17.848C19.349 17.4427 19.5516 17.221 19.957 17.183L20.774 17.145V5.992L19.786 5.897C19.482 5.859 19.33 5.593 19.33 5.099L22.085 4.738V17.107L23.434 17.221C23.4846 17.7403 23.3136 18 22.921 18ZM34.2475 17.411C34.2475 18.0063 33.8548 18.304 33.0695 18.304C32.2842 18.304 31.8282 17.905 31.7015 17.107C30.8908 17.8923 29.9155 18.285 28.7755 18.285C27.9015 18.285 27.2048 18.0633 26.6855 17.62C26.1788 17.164 25.9255 16.5497 25.9255 15.777C25.9255 15.0043 26.2105 14.352 26.7805 13.82C27.3505 13.288 28.2942 13.022 29.6115 13.022C30.3842 13.022 31.0682 13.1107 31.6635 13.288V11.787C31.6635 11.065 31.4798 10.4887 31.1125 10.058C30.7578 9.61467 30.2322 9.393 29.5355 9.393C28.8388 9.393 28.3385 9.583 28.0345 9.963C27.7432 10.3303 27.5785 10.761 27.5405 11.255C27.2365 11.2803 26.9832 11.217 26.7805 11.065C26.5778 10.913 26.4765 10.666 26.4765 10.324C26.4765 9.77933 26.7552 9.32967 27.3125 8.975C27.8698 8.60767 28.5918 8.424 29.4785 8.424C30.2512 8.424 30.9858 8.614 31.6825 8.994C32.0752 9.19667 32.3918 9.53233 32.6325 10.001C32.8732 10.4697 32.9935 11.0397 32.9935 11.711V17.259L34.2475 17.411ZM31.6635 14.428C31.0808 14.1113 30.4032 13.953 29.6305 13.953C28.8578 13.953 28.2878 14.0987 27.9205 14.39C27.5658 14.6813 27.3885 15.0803 27.3885 15.587C27.3885 16.0937 27.5468 16.499 27.8635 16.803C28.1802 17.0943 28.6172 17.24 29.1745 17.24C30.0612 17.24 30.8908 16.898 31.6635 16.214V14.428ZM40.9536 8.424C41.7643 8.424 42.4039 8.58867 42.8726 8.918C43.3539 9.24733 43.5946 9.68433 43.5946 10.229C43.5946 10.9257 43.2399 11.2613 42.5306 11.236C42.5179 10.7673 42.3533 10.3557 42.0366 10.001C41.7326 9.63367 41.2703 9.45 40.6496 9.45C39.7503 9.45 39.0599 9.82367 38.5786 10.571C38.1099 11.3183 37.8756 12.262 37.8756 13.402C37.8756 14.4027 38.0719 15.264 38.4646 15.986C38.9206 16.784 39.7059 17.183 40.8206 17.183C41.7326 17.183 42.6003 16.8473 43.4236 16.176C43.5883 16.29 43.6706 16.442 43.6706 16.632C43.6706 17.012 43.3096 17.3857 42.5876 17.753C41.8656 18.1077 41.0929 18.285 40.2696 18.285C39.0663 18.285 38.1353 17.867 37.4766 17.031C36.8306 16.195 36.4949 15.055 36.4696 13.611C36.4443 12.1543 36.8306 10.9257 37.6286 9.925C38.4266 8.92433 39.5349 8.424 40.9536 8.424ZM51.9954 8.709H54.9784V8.842C54.9784 9.146 54.8897 9.336 54.7124 9.412C54.6237 9.46267 54.3324 9.51333 53.8384 9.564L51.1214 12.547L54.4464 17.107L55.7194 17.221C55.7701 17.7403 55.5864 18 55.1684 18H53.6104L50.2854 13.459L49.0694 14.789V17.107L50.5134 17.221C50.5641 17.7403 50.3931 18 50.0004 18H46.3714V17.848C46.3714 17.544 46.4601 17.354 46.6374 17.278C46.7261 17.2273 46.8337 17.1957 46.9604 17.183L47.7584 17.145V6.011L46.7704 5.897C46.4664 5.87167 46.3144 5.59933 46.3144 5.08L49.0694 4.738V13.554L52.6034 9.602L51.4634 9.488C51.4127 8.96867 51.5901 8.709 51.9954 8.709Z" fill="black"/>
<path d="M16.405 26.137V28.683C16.405 29.063 16.1263 29.2277 15.569 29.177L15.36 27.106L10.648 27.087V31.951L14.296 31.704C14.372 32.1347 14.372 32.5907 14.296 33.072L10.648 32.863V38.05L12.301 38.164C12.3517 38.7213 12.1807 39 11.788 39H7.798C7.798 39 7.798 38.9493 7.798 38.848C7.798 38.5187 7.88667 38.3033 8.064 38.202C8.15267 38.164 8.26033 38.1387 8.387 38.126L9.261 38.088V27.087L7.874 26.973C7.82333 26.4157 8.00067 26.137 8.406 26.137H16.405ZM27.0958 38.411C27.0958 39.0063 26.7031 39.304 25.9178 39.304C25.1324 39.304 24.6764 38.905 24.5498 38.107C23.7391 38.8923 22.7638 39.285 21.6238 39.285C20.7498 39.285 20.0531 39.0633 19.5338 38.62C19.0271 38.164 18.7738 37.5497 18.7738 36.777C18.7738 36.0043 19.0588 35.352 19.6288 34.82C20.1988 34.288 21.1424 34.022 22.4598 34.022C23.2324 34.022 23.9164 34.1107 24.5118 34.288V32.787C24.5118 32.065 24.3281 31.4887 23.9608 31.058C23.6061 30.6147 23.0804 30.393 22.3838 30.393C21.6871 30.393 21.1868 30.583 20.8828 30.963C20.5914 31.3303 20.4268 31.761 20.3888 32.255C20.0848 32.2803 19.8314 32.217 19.6288 32.065C19.4261 31.913 19.3248 31.666 19.3248 31.324C19.3248 30.7793 19.6034 30.3297 20.1608 29.975C20.7181 29.6077 21.4401 29.424 22.3268 29.424C23.0994 29.424 23.8341 29.614 24.5308 29.994C24.9234 30.1967 25.2401 30.5323 25.4808 31.001C25.7214 31.4697 25.8418 32.0397 25.8418 32.711V38.259L27.0958 38.411ZM24.5118 35.428C23.9291 35.1113 23.2514 34.953 22.4788 34.953C21.7061 34.953 21.1361 35.0987 20.7688 35.39C20.4141 35.6813 20.2368 36.0803 20.2368 36.587C20.2368 37.0937 20.3951 37.499 20.7118 37.803C21.0284 38.0943 21.4654 38.24 22.0228 38.24C22.9094 38.24 23.7391 37.898 24.5118 37.214V35.428ZM37.4119 39.285C36.5759 39.285 36.1262 38.8227 36.0629 37.898C35.1382 38.8227 34.1439 39.285 33.0799 39.285C32.0159 39.285 31.1292 38.8987 30.4199 38.126C29.7232 37.3407 29.3559 36.1753 29.3179 34.63C29.2799 33.072 29.6599 31.818 30.4579 30.868C31.2685 29.9053 32.3959 29.424 33.8399 29.424C34.6125 29.424 35.3472 29.5887 36.0439 29.918V27.011L35.0559 26.897C34.7519 26.8717 34.5999 26.5993 34.5999 26.08L37.3549 25.738V38.24L38.5709 38.392C38.5455 38.9873 38.1592 39.285 37.4119 39.285ZM36.0439 31.381C35.3599 30.7603 34.5302 30.45 33.5549 30.45C32.5922 30.45 31.8765 30.8237 31.4079 31.571C30.9519 32.3057 30.7239 33.2303 30.7239 34.345C30.7239 35.4597 30.9519 36.378 31.4079 37.1C31.8639 37.8093 32.5605 38.164 33.4979 38.164C33.9665 38.164 34.3845 38.069 34.7519 37.879C35.1192 37.689 35.5499 37.385 36.0439 36.967V31.381ZM48.2218 34.003H42.2558C42.2432 34.1297 42.2368 34.326 42.2368 34.592C42.2368 35.6687 42.4648 36.5427 42.9208 37.214C43.3768 37.8727 44.0862 38.202 45.0488 38.202C46.0115 38.202 46.9298 37.86 47.8038 37.176C47.9558 37.3027 48.0318 37.461 48.0318 37.651C48.0318 38.0057 47.6835 38.3667 46.9868 38.734C46.3028 39.1013 45.5302 39.285 44.6688 39.285C43.4908 39.285 42.5472 38.8987 41.8378 38.126C41.1412 37.3533 40.7928 36.1753 40.7928 34.592C40.7928 33.0087 41.2108 31.7547 42.0468 30.83C42.8828 29.8927 43.8708 29.424 45.0108 29.424C46.1508 29.424 46.9742 29.785 47.4808 30.507C47.9875 31.229 48.2345 32.0903 48.2218 33.091V34.003ZM46.8348 33.148C46.8348 32.2993 46.6702 31.628 46.3408 31.134C46.0115 30.6273 45.5302 30.374 44.8968 30.374C44.2762 30.374 43.7442 30.621 43.3008 31.115C42.8575 31.609 42.5472 32.2867 42.3698 33.148H46.8348ZM58.7847 39.285C57.9487 39.285 57.499 38.8227 57.4357 37.898C56.511 38.8227 55.5167 39.285 54.4527 39.285C53.3887 39.285 52.502 38.8987 51.7926 38.126C51.096 37.3407 50.7286 36.1753 50.6906 34.63C50.6526 33.072 51.0326 31.818 51.8306 30.868C52.6413 29.9053 53.7686 29.424 55.2127 29.424C55.9853 29.424 56.72 29.5887 57.4166 29.918V27.011L56.4287 26.897C56.1246 26.8717 55.9726 26.5993 55.9726 26.08L58.7277 25.738V38.24L59.9437 38.392C59.9183 38.9873 59.532 39.285 58.7847 39.285ZM57.4166 31.381C56.7327 30.7603 55.903 30.45 54.9277 30.45C53.965 30.45 53.2493 30.8237 52.7806 31.571C52.3246 32.3057 52.0966 33.2303 52.0966 34.345C52.0966 35.4597 52.3246 36.378 52.7806 37.1C53.2366 37.8093 53.9333 38.164 54.8706 38.164C55.3393 38.164 55.7573 38.069 56.1247 37.879C56.492 37.689 56.9226 37.385 57.4166 36.967V31.381Z" fill="black"/>
<path d="M8.368 63.099H12.358C13.916 63.099 15.094 63.4347 15.892 64.106C16.69 64.7647 17.089 65.626 17.089 66.69C17.089 68.134 16.614 69.1853 15.664 69.844C14.7267 70.5027 13.4663 70.832 11.883 70.832C11.465 70.832 11.047 70.813 10.629 70.775V75.05L12.073 75.164C12.1237 75.7213 11.9463 76 11.541 76H7.798C7.798 76 7.798 75.9493 7.798 75.848C7.798 75.5187 7.88667 75.3033 8.064 75.202C8.15267 75.164 8.26033 75.1387 8.387 75.126L9.261 75.088V64.049L7.874 63.935C7.836 63.3777 8.00067 63.099 8.368 63.099ZM11.712 69.939C14.3213 69.939 15.626 68.932 15.626 66.918C15.626 64.7773 14.3023 63.7893 11.655 63.954L10.629 64.011V69.901C10.8823 69.9263 11.2433 69.939 11.712 69.939ZM18.9088 67.26C18.9088 66.8927 19.0862 66.709 19.4408 66.709H21.6638V72.314C21.6638 73.2513 21.8602 73.9607 22.2528 74.442C22.6455 74.9107 23.2282 75.145 24.0008 75.145C24.7862 75.145 25.5778 74.7967 26.3758 74.1V67.602L24.9128 67.507C24.8622 66.975 25.0332 66.709 25.4258 66.709H27.6868V74.917L28.6178 75.012C28.9092 75.0373 29.0548 75.3097 29.0548 75.829L26.7558 76.019L26.5088 75.012C25.6602 75.8607 24.6912 76.285 23.6018 76.285C22.7278 76.285 21.9678 75.9747 21.3218 75.354C20.6758 74.7333 20.3528 73.758 20.3528 72.428V67.602L18.9088 67.507V67.26ZM34.2279 67.963C34.6079 67.5577 35.0766 67.203 35.6339 66.899C36.2039 66.5823 36.6662 66.424 37.0209 66.424C37.3882 66.424 37.6859 66.5127 37.9139 66.69C38.1419 66.8547 38.2559 67.1207 38.2559 67.488C38.2559 68.1467 38.1482 68.5963 37.9329 68.837C37.7682 68.9763 37.5086 69.0333 37.1539 69.008C37.1539 68.096 36.9132 67.64 36.4319 67.64C35.8239 67.64 35.0892 68.0707 34.2279 68.932V75.107L35.8619 75.221C35.9126 75.7403 35.7352 76 35.3299 76H31.5299V75.848C31.5299 75.544 31.6186 75.354 31.7959 75.278C31.8846 75.2273 31.9922 75.1957 32.1189 75.183L32.9169 75.145V67.716L31.8909 67.602C31.6122 67.5767 31.4729 67.317 31.4729 66.823L34.0379 66.5L34.1709 67.963H34.2279ZM42.4026 67.83C43.3906 66.8927 44.404 66.424 45.4426 66.424C46.4813 66.424 47.349 66.8167 48.0456 67.602C48.755 68.3747 49.1223 69.54 49.1476 71.098C49.1856 72.6433 48.8056 73.8973 48.0076 74.86C47.2096 75.81 46.0886 76.285 44.6446 76.285C43.9226 76.285 43.188 76.1203 42.4406 75.791V79.173L43.8846 79.287C43.9353 79.8063 43.758 80.066 43.3526 80.066H39.7426V79.914C39.7426 79.61 39.8313 79.42 40.0086 79.344C40.11 79.306 40.4836 79.2617 41.1296 79.211V67.697L40.1226 67.583C39.8313 67.5577 39.6856 67.3107 39.6856 66.842L42.1366 66.519L42.4026 67.83ZM42.4406 74.328C43.0993 74.9487 43.9226 75.259 44.9106 75.259C45.8986 75.259 46.6143 74.8853 47.0576 74.138C47.5136 73.3907 47.7416 72.4597 47.7416 71.345C47.7416 70.2303 47.5136 69.3183 47.0576 68.609C46.6143 67.8997 45.924 67.545 44.9866 67.545C44.518 67.545 44.1 67.64 43.7326 67.83C43.3653 68.02 42.9346 68.3177 42.4406 68.723V74.328ZM55.4718 76H51.8998V75.848C51.8998 75.4427 52.1025 75.221 52.5078 75.183L53.3248 75.145V63.992L52.3368 63.897C52.0328 63.859 51.8808 63.593 51.8808 63.099L54.6358 62.738V75.107L55.9848 75.221C56.0355 75.7403 55.8645 76 55.4718 76ZM65.7723 71.003H59.8063C59.7937 71.1297 59.7873 71.326 59.7873 71.592C59.7873 72.6687 60.0153 73.5427 60.4713 74.214C60.9273 74.8727 61.6367 75.202 62.5993 75.202C63.562 75.202 64.4803 74.86 65.3543 74.176C65.5063 74.3027 65.5823 74.461 65.5823 74.651C65.5823 75.0057 65.234 75.3667 64.5373 75.734C63.8533 76.1013 63.0807 76.285 62.2193 76.285C61.0413 76.285 60.0977 75.8987 59.3883 75.126C58.6917 74.3533 58.3433 73.1753 58.3433 71.592C58.3433 70.0087 58.7613 68.7547 59.5973 67.83C60.4333 66.8927 61.4213 66.424 62.5613 66.424C63.7013 66.424 64.5247 66.785 65.0313 67.507C65.538 68.229 65.785 69.0903 65.7723 70.091V71.003ZM64.3853 70.148C64.3853 69.2993 64.2207 68.628 63.8913 68.134C63.562 67.6273 63.0807 67.374 62.4473 67.374C61.8267 67.374 61.2947 67.621 60.8513 68.115C60.408 68.609 60.0977 69.2867 59.9203 70.148H64.3853Z" fill="black"/>
<path d="M222.832 11.56C223.064 11.448 223.256 11.284 223.408 11.068C223.568 10.844 223.648 10.572 223.648 10.252C223.648 9.924 223.544 9.66 223.336 9.46C223.136 9.252 222.856 9.148 222.496 9.148C222.144 9.148 221.872 9.256 221.68 9.472C221.496 9.68 221.4 9.964 221.392 10.324C221.16 10.308 220.984 10.244 220.864 10.132C220.744 10.012 220.696 9.86 220.72 9.676C220.744 9.364 220.928 9.096 221.272 8.872C221.624 8.648 222.072 8.536 222.616 8.536C223.168 8.536 223.628 8.688 223.996 8.992C224.364 9.296 224.548 9.7 224.548 10.204C224.548 10.58 224.428 10.932 224.188 11.26C223.948 11.58 223.584 11.836 223.096 12.028C223.648 12.116 224.084 12.332 224.404 12.676C224.732 13.012 224.896 13.436 224.896 13.948C224.896 14.588 224.648 15.12 224.152 15.544C223.664 15.968 223.032 16.18 222.256 16.18C221.72 16.18 221.276 16.08 220.924 15.88C220.58 15.672 220.408 15.404 220.408 15.076C220.408 14.748 220.584 14.548 220.936 14.476C221 14.812 221.148 15.08 221.38 15.28C221.62 15.48 221.964 15.58 222.412 15.58C222.86 15.58 223.236 15.432 223.54 15.136C223.852 14.84 224 14.476 223.984 14.044C223.976 13.604 223.84 13.268 223.576 13.036C223.312 12.796 223.012 12.644 222.676 12.58C222.34 12.516 221.972 12.5 221.572 12.532L221.56 11.872C221.968 11.872 222.392 11.768 222.832 11.56ZM226.547 10.096C226.547 9.656 226.747 9.288 227.147 8.992C227.555 8.688 228.075 8.536 228.707 8.536C229.339 8.536 229.847 8.712 230.231 9.064C230.615 9.408 230.807 9.872 230.807 10.456C230.807 11.336 230.359 12.296 229.463 13.336C229.151 13.696 228.911 13.96 228.743 14.128C228.583 14.296 228.331 14.54 227.987 14.86C227.651 15.18 227.463 15.36 227.423 15.4L230.315 15.364L230.423 14.632C230.447 14.464 230.527 14.348 230.663 14.284C230.799 14.22 230.907 14.212 230.987 14.26V16H226.439C226.375 15.808 226.351 15.664 226.367 15.568C226.719 15.256 227.155 14.828 227.675 14.284C228.203 13.732 228.531 13.376 228.659 13.216C228.787 13.048 228.947 12.832 229.139 12.568C229.331 12.304 229.471 12.072 229.559 11.872C229.799 11.36 229.919 10.908 229.919 10.516C229.919 10.116 229.803 9.792 229.571 9.544C229.339 9.288 229.007 9.16 228.575 9.16C228.143 9.16 227.811 9.3 227.579 9.58C227.355 9.86 227.243 10.252 227.243 10.756C227.051 10.764 226.887 10.716 226.751 10.612C226.615 10.508 226.547 10.336 226.547 10.096ZM232.632 15.532C232.632 15.356 232.688 15.212 232.8 15.1C232.92 14.98 233.072 14.92 233.256 14.92C233.448 14.92 233.604 14.98 233.724 15.1C233.844 15.22 233.904 15.416 233.904 15.688C233.904 15.96 233.796 16.26 233.58 16.588C233.372 16.924 233.148 17.144 232.908 17.248C232.868 17.264 232.816 17.24 232.752 17.176C232.696 17.12 232.668 17.076 232.668 17.044C232.916 16.868 233.084 16.584 233.172 16.192C233.012 16.176 232.88 16.108 232.776 15.988C232.68 15.86 232.632 15.708 232.632 15.532ZM241.896 11.56C242.128 11.448 242.32 11.284 242.472 11.068C242.632 10.844 242.712 10.572 242.712 10.252C242.712 9.924 242.608 9.66 242.4 9.46C242.2 9.252 241.92 9.148 241.56 9.148C241.208 9.148 240.936 9.256 240.744 9.472C240.56 9.68 240.464 9.964 240.456 10.324C240.224 10.308 240.048 10.244 239.928 10.132C239.808 10.012 239.76 9.86 239.784 9.676C239.808 9.364 239.992 9.096 240.336 8.872C240.688 8.648 241.136 8.536 241.68 8.536C242.232 8.536 242.692 8.688 243.06 8.992C243.428 9.296 243.612 9.7 243.612 10.204C243.612 10.58 243.492 10.932 243.252 11.26C243.012 11.58 242.648 11.836 242.16 12.028C242.712 12.116 243.148 12.332 243.468 12.676C243.796 13.012 243.96 13.436 243.96 13.948C243.96 14.588 243.712 15.12 243.216 15.544C242.728 15.968 242.096 16.18 241.32 16.18C240.784 16.18 240.34 16.08 239.988 15.88C239.644 15.672 239.472 15.404 239.472 15.076C239.472 14.748 239.648 14.548 240 14.476C240.064 14.812 240.212 15.08 240.444 15.28C240.684 15.48 241.028 15.58 241.476 15.58C241.924 15.58 242.3 15.432 242.604 15.136C242.916 14.84 243.064 14.476 243.048 14.044C243.04 13.604 242.904 13.268 242.64 13.036C242.376 12.796 242.076 12.644 241.74 12.58C241.404 12.516 241.036 12.5 240.636 12.532L240.624 11.872C241.032 11.872 241.456 11.768 241.896 11.56ZM250.386 13.636V14.26H249.33V16L248.502 16.12V14.26H245.478C245.326 14.012 245.242 13.82 245.226 13.684L248.55 8.656C248.806 8.584 249.058 8.576 249.306 8.632L249.318 13.636H250.386ZM248.502 13.636V9.712L245.97 13.636H248.502ZM251.789 15.532C251.789 15.356 251.845 15.212 251.957 15.1C252.077 14.98 252.229 14.92 252.413 14.92C252.605 14.92 252.761 14.98 252.881 15.1C253.001 15.22 253.061 15.416 253.061 15.688C253.061 15.96 252.953 16.26 252.737 16.588C252.529 16.924 252.305 17.144 252.065 17.248C252.025 17.264 251.973 17.24 251.909 17.176C251.853 17.12 251.825 17.076 251.825 17.044C252.073 16.868 252.241 16.584 252.329 16.192C252.169 16.176 252.037 16.108 251.933 15.988C251.837 15.86 251.789 15.708 251.789 15.532ZM261.053 11.56C261.285 11.448 261.477 11.284 261.629 11.068C261.789 10.844 261.869 10.572 261.869 10.252C261.869 9.924 261.765 9.66 261.557 9.46C261.357 9.252 261.077 9.148 260.717 9.148C260.365 9.148 260.093 9.256 259.901 9.472C259.717 9.68 259.621 9.964 259.613 10.324C259.381 10.308 259.205 10.244 259.085 10.132C258.965 10.012 258.917 9.86 258.941 9.676C258.965 9.364 259.149 9.096 259.493 8.872C259.845 8.648 260.293 8.536 260.837 8.536C261.389 8.536 261.849 8.688 262.217 8.992C262.585 9.296 262.769 9.7 262.769 10.204C262.769 10.58 262.649 10.932 262.409 11.26C262.169 11.58 261.805 11.836 261.317 12.028C261.869 12.116 262.305 12.332 262.625 12.676C262.953 13.012 263.117 13.436 263.117 13.948C263.117 14.588 262.869 15.12 262.373 15.544C261.885 15.968 261.253 16.18 260.477 16.18C259.941 16.18 259.497 16.08 259.145 15.88C258.801 15.672 258.629 15.404 258.629 15.076C258.629 14.748 258.805 14.548 259.157 14.476C259.221 14.812 259.369 15.08 259.601 15.28C259.841 15.48 260.185 15.58 260.633 15.58C261.081 15.58 261.457 15.432 261.761 15.136C262.073 14.84 262.221 14.476 262.205 14.044C262.197 13.604 262.061 13.268 261.797 13.036C261.533 12.796 261.233 12.644 260.897 12.58C260.561 12.516 260.193 12.5 259.793 12.532L259.781 11.872C260.189 11.872 260.613 11.768 261.053 11.56ZM265.68 12.292C266.208 11.948 266.788 11.776 267.42 11.776C268.06 11.776 268.552 11.952 268.896 12.304C269.24 12.656 269.412 13.16 269.412 13.816C269.412 14.472 269.204 15.032 268.788 15.496C268.38 15.952 267.828 16.18 267.132 16.18C265.556 16.18 264.768 15.132 264.768 13.036C264.768 11.572 265.028 10.456 265.548 9.688C266.068 8.92 266.8 8.536 267.744 8.536C268.184 8.536 268.52 8.608 268.752 8.752C268.984 8.896 269.1 9.08 269.1 9.304C269.1 9.664 268.908 9.86 268.524 9.892C268.524 9.684 268.452 9.504 268.308 9.352C268.164 9.2 267.944 9.124 267.648 9.124C267.096 9.124 266.648 9.4 266.304 9.952C265.96 10.496 265.752 11.276 265.68 12.292ZM265.656 13.048C265.656 14.736 266.156 15.58 267.156 15.58C267.596 15.58 267.936 15.436 268.176 15.148C268.416 14.852 268.536 14.448 268.536 13.936C268.536 13.424 268.416 13.04 268.176 12.784C267.944 12.52 267.572 12.388 267.06 12.388C266.556 12.388 266.088 12.564 265.656 12.916V13.048ZM271.04 15.532C271.04 15.356 271.096 15.212 271.208 15.1C271.328 14.98 271.48 14.92 271.664 14.92C271.856 14.92 272.012 14.98 272.132 15.1C272.252 15.22 272.312 15.416 272.312 15.688C272.312 15.96 272.204 16.26 271.988 16.588C271.78 16.924 271.556 17.144 271.316 17.248C271.276 17.264 271.224 17.24 271.16 17.176C271.104 17.12 271.076 17.076 271.076 17.044C271.324 16.868 271.492 16.584 271.58 16.192C271.42 16.176 271.288 16.108 271.184 15.988C271.088 15.86 271.04 15.708 271.04 15.532ZM280.304 11.56C280.536 11.448 280.728 11.284 280.88 11.068C281.04 10.844 281.12 10.572 281.12 10.252C281.12 9.924 281.016 9.66 280.808 9.46C280.608 9.252 280.328 9.148 279.968 9.148C279.616 9.148 279.344 9.256 279.152 9.472C278.968 9.68 278.872 9.964 278.864 10.324C278.632 10.308 278.456 10.244 278.336 10.132C278.216 10.012 278.168 9.86 278.192 9.676C278.216 9.364 278.4 9.096 278.744 8.872C279.096 8.648 279.544 8.536 280.088 8.536C280.64 8.536 281.1 8.688 281.468 8.992C281.836 9.296 282.02 9.7 282.02 10.204C282.02 10.58 281.9 10.932 281.66 11.26C281.42 11.58 281.056 11.836 280.568 12.028C281.12 12.116 281.556 12.332 281.876 12.676C282.204 13.012 282.368 13.436 282.368 13.948C282.368 14.588 282.12 15.12 281.624 15.544C281.136 15.968 280.504 16.18 279.728 16.18C279.192 16.18 278.748 16.08 278.396 15.88C278.052 15.672 277.88 15.404 277.88 15.076C277.88 14.748 278.056 14.548 278.408 14.476C278.472 14.812 278.62 15.08 278.852 15.28C279.092 15.48 279.436 15.58 279.884 15.58C280.332 15.58 280.708 15.432 281.012 15.136C281.324 14.84 281.472 14.476 281.456 14.044C281.448 13.604 281.312 13.268 281.048 13.036C280.784 12.796 280.484 12.644 280.148 12.58C279.812 12.516 279.444 12.5 279.044 12.532L279.032 11.872C279.44 11.872 279.864 11.768 280.304 11.56ZM288.495 13.984C288.495 14.568 288.275 15.08 287.835 15.52C287.395 15.96 286.819 16.18 286.107 16.18C285.395 16.18 284.855 16.008 284.487 15.664C284.127 15.32 283.939 14.904 283.923 14.416C283.907 13.928 284.051 13.488 284.355 13.096C284.659 12.704 285.043 12.38 285.507 12.124C284.755 11.62 284.379 11.028 284.379 10.348C284.379 9.82 284.555 9.388 284.907 9.052C285.267 8.708 285.719 8.536 286.263 8.536C286.807 8.536 287.255 8.68 287.607 8.968C287.967 9.256 288.147 9.652 288.147 10.156C288.147 10.884 287.759 11.496 286.983 11.992C287.463 12.28 287.835 12.572 288.099 12.868C288.363 13.156 288.495 13.528 288.495 13.984ZM286.299 9.088C285.963 9.088 285.683 9.192 285.459 9.4C285.243 9.608 285.135 9.868 285.135 10.18C285.135 10.492 285.247 10.76 285.471 10.984C285.703 11.208 286.067 11.46 286.563 11.74C287.115 11.316 287.391 10.812 287.391 10.228C287.391 9.884 287.295 9.608 287.103 9.4C286.911 9.192 286.643 9.088 286.299 9.088ZM285.087 13.228C284.855 13.556 284.739 13.904 284.739 14.272C284.739 14.64 284.859 14.952 285.099 15.208C285.347 15.464 285.707 15.592 286.179 15.592C286.651 15.592 287.027 15.464 287.307 15.208C287.595 14.952 287.739 14.644 287.739 14.284C287.739 13.916 287.615 13.604 287.367 13.348C287.119 13.092 286.767 12.84 286.311 12.592L285.975 12.412C285.615 12.62 285.319 12.892 285.087 13.228ZM298.895 13.636V14.26H297.839V16L297.011 16.12V14.26H293.987C293.835 14.012 293.751 13.82 293.735 13.684L297.059 8.656C297.315 8.584 297.567 8.576 297.815 8.632L297.827 13.636H298.895ZM297.011 13.636V9.712L294.479 13.636H297.011ZM304.557 12.412C304.557 11.308 304.417 10.492 304.137 9.964C303.857 9.428 303.417 9.16 302.817 9.16C302.225 9.16 301.785 9.436 301.497 9.988C301.217 10.532 301.077 11.348 301.077 12.436C301.077 13.524 301.217 14.316 301.497 14.812C301.785 15.308 302.229 15.556 302.829 15.556C303.429 15.556 303.865 15.308 304.137 14.812C304.417 14.308 304.557 13.508 304.557 12.412ZM302.829 8.536C303.717 8.528 304.369 8.844 304.785 9.484C305.209 10.116 305.421 11.084 305.421 12.388C305.421 13.684 305.205 14.64 304.773 15.256C304.349 15.872 303.697 16.18 302.817 16.18C301.937 16.18 301.281 15.872 300.849 15.256C300.425 14.64 300.213 13.688 300.213 12.4C300.213 11.112 300.425 10.148 300.849 9.508C301.281 8.868 301.941 8.544 302.829 8.536ZM307.064 15.532C307.064 15.356 307.12 15.212 307.232 15.1C307.352 14.98 307.504 14.92 307.688 14.92C307.88 14.92 308.036 14.98 308.156 15.1C308.276 15.22 308.336 15.416 308.336 15.688C308.336 15.96 308.228 16.26 308.012 16.588C307.804 16.924 307.58 17.144 307.34 17.248C307.3 17.264 307.248 17.24 307.184 17.176C307.128 17.12 307.1 17.076 307.1 17.044C307.348 16.868 307.516 16.584 307.604 16.192C307.444 16.176 307.312 16.108 307.208 15.988C307.112 15.86 307.064 15.708 307.064 15.532ZM318.884 13.636V14.26H317.828V16L317 16.12V14.26H313.976C313.824 14.012 313.74 13.82 313.724 13.684L317.048 8.656C317.304 8.584 317.556 8.576 317.804 8.632L317.816 13.636H318.884ZM317 13.636V9.712L314.468 13.636H317ZM320.395 10.096C320.395 9.656 320.595 9.288 320.995 8.992C321.403 8.688 321.923 8.536 322.555 8.536C323.187 8.536 323.695 8.712 324.079 9.064C324.463 9.408 324.655 9.872 324.655 10.456C324.655 11.336 324.207 12.296 323.311 13.336C322.999 13.696 322.759 13.96 322.591 14.128C322.431 14.296 322.179 14.54 321.835 14.86C321.499 15.18 321.311 15.36 321.271 15.4L324.163 15.364L324.271 14.632C324.295 14.464 324.375 14.348 324.511 14.284C324.647 14.22 324.755 14.212 324.835 14.26V16H320.287C320.223 15.808 320.199 15.664 320.215 15.568C320.567 15.256 321.003 14.828 321.523 14.284C322.051 13.732 322.379 13.376 322.507 13.216C322.635 13.048 322.795 12.832 322.987 12.568C323.179 12.304 323.319 12.072 323.407 11.872C323.647 11.36 323.767 10.908 323.767 10.516C323.767 10.116 323.651 9.792 323.419 9.544C323.187 9.288 322.855 9.16 322.423 9.16C321.991 9.16 321.659 9.3 321.427 9.58C321.203 9.86 321.091 10.252 321.091 10.756C320.899 10.764 320.735 10.716 320.599 10.612C320.463 10.508 320.395 10.336 320.395 10.096ZM326.479 15.532C326.479 15.356 326.535 15.212 326.647 15.1C326.767 14.98 326.919 14.92 327.103 14.92C327.295 14.92 327.451 14.98 327.571 15.1C327.691 15.22 327.751 15.416 327.751 15.688C327.751 15.96 327.643 16.26 327.427 16.588C327.219 16.924 326.995 17.144 326.755 17.248C326.715 17.264 326.663 17.24 326.599 17.176C326.543 17.12 326.515 17.076 326.515 17.044C326.763 16.868 326.931 16.584 327.019 16.192C326.859 16.176 326.727 16.108 326.623 15.988C326.527 15.86 326.479 15.708 326.479 15.532ZM338.3 13.636V14.26H337.244V16L336.416 16.12V14.26H333.392C333.24 14.012 333.156 13.82 333.14 13.684L336.464 8.656C336.72 8.584 336.972 8.576 337.22 8.632L337.232 13.636H338.3ZM336.416 13.636V9.712L333.884 13.636H336.416ZM344.586 13.636V14.26H343.53V16L342.702 16.12V14.26H339.678C339.526 14.012 339.442 13.82 339.426 13.684L342.75 8.656C343.006 8.584 343.258 8.576 343.506 8.632L343.518 13.636H344.586ZM342.702 13.636V9.712L340.17 13.636H342.702ZM345.988 15.532C345.988 15.356 346.044 15.212 346.156 15.1C346.276 14.98 346.428 14.92 346.612 14.92C346.804 14.92 346.96 14.98 347.08 15.1C347.2 15.22 347.26 15.416 347.26 15.688C347.26 15.96 347.152 16.26 346.936 16.588C346.728 16.924 346.504 17.144 346.264 17.248C346.224 17.264 346.172 17.24 346.108 17.176C346.052 17.12 346.024 17.076 346.024 17.044C346.272 16.868 346.44 16.584 346.528 16.192C346.368 16.176 346.236 16.108 346.132 15.988C346.036 15.86 345.988 15.708 345.988 15.532ZM357.808 13.636V14.26H356.752V16L355.924 16.12V14.26H352.9C352.748 14.012 352.664 13.82 352.648 13.684L355.972 8.656C356.228 8.584 356.48 8.576 356.728 8.632L356.74 13.636H357.808ZM355.924 13.636V9.712L353.392 13.636H355.924ZM360.231 12.292C360.759 11.948 361.339 11.776 361.971 11.776C362.611 11.776 363.103 11.952 363.447 12.304C363.791 12.656 363.963 13.16 363.963 13.816C363.963 14.472 363.755 15.032 363.339 15.496C362.931 15.952 362.379 16.18 361.683 16.18C360.107 16.18 359.319 15.132 359.319 13.036C359.319 11.572 359.579 10.456 360.099 9.688C360.619 8.92 361.351 8.536 362.295 8.536C362.735 8.536 363.071 8.608 363.303 8.752C363.535 8.896 363.651 9.08 363.651 9.304C363.651 9.664 363.459 9.86 363.075 9.892C363.075 9.684 363.003 9.504 362.859 9.352C362.715 9.2 362.495 9.124 362.199 9.124C361.647 9.124 361.199 9.4 360.855 9.952C360.511 10.496 360.303 11.276 360.231 12.292ZM360.207 13.048C360.207 14.736 360.707 15.58 361.707 15.58C362.147 15.58 362.487 15.436 362.727 15.148C362.967 14.852 363.087 14.448 363.087 13.936C363.087 13.424 362.967 13.04 362.727 12.784C362.495 12.52 362.123 12.388 361.611 12.388C361.107 12.388 360.639 12.564 360.207 12.916V13.048Z" fill="black"/>
<path d="M222.832 30.56C223.064 30.448 223.256 30.284 223.408 30.068C223.568 29.844 223.648 29.572 223.648 29.252C223.648 28.924 223.544 28.66 223.336 28.46C223.136 28.252 222.856 28.148 222.496 28.148C222.144 28.148 221.872 28.256 221.68 28.472C221.496 28.68 221.4 28.964 221.392 29.324C221.16 29.308 220.984 29.244 220.864 29.132C220.744 29.012 220.696 28.86 220.72 28.676C220.744 28.364 220.928 28.096 221.272 27.872C221.624 27.648 222.072 27.536 222.616 27.536C223.168 27.536 223.628 27.688 223.996 27.992C224.364 28.296 224.548 28.7 224.548 29.204C224.548 29.58 224.428 29.932 224.188 30.26C223.948 30.58 223.584 30.836 223.096 31.028C223.648 31.116 224.084 31.332 224.404 31.676C224.732 32.012 224.896 32.436 224.896 32.948C224.896 33.588 224.648 34.12 224.152 34.544C223.664 34.968 223.032 35.18 222.256 35.18C221.72 35.18 221.276 35.08 220.924 34.88C220.58 34.672 220.408 34.404 220.408 34.076C220.408 33.748 220.584 33.548 220.936 33.476C221 33.812 221.148 34.08 221.38 34.28C221.62 34.48 221.964 34.58 222.412 34.58C222.86 34.58 223.236 34.432 223.54 34.136C223.852 33.84 224 33.476 223.984 33.044C223.976 32.604 223.84 32.268 223.576 32.036C223.312 31.796 223.012 31.644 222.676 31.58C222.34 31.516 221.972 31.5 221.572 31.532L221.56 30.872C221.968 30.872 222.392 30.768 222.832 30.56ZM226.547 29.096C226.547 28.656 226.747 28.288 227.147 27.992C227.555 27.688 228.075 27.536 228.707 27.536C229.339 27.536 229.847 27.712 230.231 28.064C230.615 28.408 230.807 28.872 230.807 29.456C230.807 30.336 230.359 31.296 229.463 32.336C229.151 32.696 228.911 32.96 228.743 33.128C228.583 33.296 228.331 33.54 227.987 33.86C227.651 34.18 227.463 34.36 227.423 34.4L230.315 34.364L230.423 33.632C230.447 33.464 230.527 33.348 230.663 33.284C230.799 33.22 230.907 33.212 230.987 33.26V35H226.439C226.375 34.808 226.351 34.664 226.367 34.568C226.719 34.256 227.155 33.828 227.675 33.284C228.203 32.732 228.531 32.376 228.659 32.216C228.787 32.048 228.947 31.832 229.139 31.568C229.331 31.304 229.471 31.072 229.559 30.872C229.799 30.36 229.919 29.908 229.919 29.516C229.919 29.116 229.803 28.792 229.571 28.544C229.339 28.288 229.007 28.16 228.575 28.16C228.143 28.16 227.811 28.3 227.579 28.58C227.355 28.86 227.243 29.252 227.243 29.756C227.051 29.764 226.887 29.716 226.751 29.612C226.615 29.508 226.547 29.336 226.547 29.096ZM232.632 34.532C232.632 34.356 232.688 34.212 232.8 34.1C232.92 33.98 233.072 33.92 233.256 33.92C233.448 33.92 233.604 33.98 233.724 34.1C233.844 34.22 233.904 34.416 233.904 34.688C233.904 34.96 233.796 35.26 233.58 35.588C233.372 35.924 233.148 36.144 232.908 36.248C232.868 36.264 232.816 36.24 232.752 36.176C232.696 36.12 232.668 36.076 232.668 36.044C232.916 35.868 233.084 35.584 233.172 35.192C233.012 35.176 232.88 35.108 232.776 34.988C232.68 34.86 232.632 34.708 232.632 34.532ZM241.896 30.56C242.128 30.448 242.32 30.284 242.472 30.068C242.632 29.844 242.712 29.572 242.712 29.252C242.712 28.924 242.608 28.66 242.4 28.46C242.2 28.252 241.92 28.148 241.56 28.148C241.208 28.148 240.936 28.256 240.744 28.472C240.56 28.68 240.464 28.964 240.456 29.324C240.224 29.308 240.048 29.244 239.928 29.132C239.808 29.012 239.76 28.86 239.784 28.676C239.808 28.364 239.992 28.096 240.336 27.872C240.688 27.648 241.136 27.536 241.68 27.536C242.232 27.536 242.692 27.688 243.06 27.992C243.428 28.296 243.612 28.7 243.612 29.204C243.612 29.58 243.492 29.932 243.252 30.26C243.012 30.58 242.648 30.836 242.16 31.028C242.712 31.116 243.148 31.332 243.468 31.676C243.796 32.012 243.96 32.436 243.96 32.948C243.96 33.588 243.712 34.12 243.216 34.544C242.728 34.968 242.096 35.18 241.32 35.18C240.784 35.18 240.34 35.08 239.988 34.88C239.644 34.672 239.472 34.404 239.472 34.076C239.472 33.748 239.648 33.548 240 33.476C240.064 33.812 240.212 34.08 240.444 34.28C240.684 34.48 241.028 34.58 241.476 34.58C241.924 34.58 242.3 34.432 242.604 34.136C242.916 33.84 243.064 33.476 243.048 33.044C243.04 32.604 242.904 32.268 242.64 32.036C242.376 31.796 242.076 31.644 241.74 31.58C241.404 31.516 241.036 31.5 240.636 31.532L240.624 30.872C241.032 30.872 241.456 30.768 241.896 30.56ZM250.386 32.636V33.26H249.33V35L248.502 35.12V33.26H245.478C245.326 33.012 245.242 32.82 245.226 32.684L248.55 27.656C248.806 27.584 249.058 27.576 249.306 27.632L249.318 32.636H250.386ZM248.502 32.636V28.712L245.97 32.636H248.502ZM251.789 34.532C251.789 34.356 251.845 34.212 251.957 34.1C252.077 33.98 252.229 33.92 252.413 33.92C252.605 33.92 252.761 33.98 252.881 34.1C253.001 34.22 253.061 34.416 253.061 34.688C253.061 34.96 252.953 35.26 252.737 35.588C252.529 35.924 252.305 36.144 252.065 36.248C252.025 36.264 251.973 36.24 251.909 36.176C251.853 36.12 251.825 36.076 251.825 36.044C252.073 35.868 252.241 35.584 252.329 35.192C252.169 35.176 252.037 35.108 251.933 34.988C251.837 34.86 251.789 34.708 251.789 34.532ZM261.053 30.56C261.285 30.448 261.477 30.284 261.629 30.068C261.789 29.844 261.869 29.572 261.869 29.252C261.869 28.924 261.765 28.66 261.557 28.46C261.357 28.252 261.077 28.148 260.717 28.148C260.365 28.148 260.093 28.256 259.901 28.472C259.717 28.68 259.621 28.964 259.613 29.324C259.381 29.308 259.205 29.244 259.085 29.132C258.965 29.012 258.917 28.86 258.941 28.676C258.965 28.364 259.149 28.096 259.493 27.872C259.845 27.648 260.293 27.536 260.837 27.536C261.389 27.536 261.849 27.688 262.217 27.992C262.585 28.296 262.769 28.7 262.769 29.204C262.769 29.58 262.649 29.932 262.409 30.26C262.169 30.58 261.805 30.836 261.317 31.028C261.869 31.116 262.305 31.332 262.625 31.676C262.953 32.012 263.117 32.436 263.117 32.948C263.117 33.588 262.869 34.12 262.373 34.544C261.885 34.968 261.253 35.18 260.477 35.18C259.941 35.18 259.497 35.08 259.145 34.88C258.801 34.672 258.629 34.404 258.629 34.076C258.629 33.748 258.805 33.548 259.157 33.476C259.221 33.812 259.369 34.08 259.601 34.28C259.841 34.48 260.185 34.58 260.633 34.58C261.081 34.58 261.457 34.432 261.761 34.136C262.073 33.84 262.221 33.476 262.205 33.044C262.197 32.604 262.061 32.268 261.797 32.036C261.533 31.796 261.233 31.644 260.897 31.58C260.561 31.516 260.193 31.5 259.793 31.532L259.781 30.872C260.189 30.872 260.613 30.768 261.053 30.56ZM265.68 31.292C266.208 30.948 266.788 30.776 267.42 30.776C268.06 30.776 268.552 30.952 268.896 31.304C269.24 31.656 269.412 32.16 269.412 32.816C269.412 33.472 269.204 34.032 268.788 34.496C268.38 34.952 267.828 35.18 267.132 35.18C265.556 35.18 264.768 34.132 264.768 32.036C264.768 30.572 265.028 29.456 265.548 28.688C266.068 27.92 266.8 27.536 267.744 27.536C268.184 27.536 268.52 27.608 268.752 27.752C268.984 27.896 269.1 28.08 269.1 28.304C269.1 28.664 268.908 28.86 268.524 28.892C268.524 28.684 268.452 28.504 268.308 28.352C268.164 28.2 267.944 28.124 267.648 28.124C267.096 28.124 266.648 28.4 266.304 28.952C265.96 29.496 265.752 30.276 265.68 31.292ZM265.656 32.048C265.656 33.736 266.156 34.58 267.156 34.58C267.596 34.58 267.936 34.436 268.176 34.148C268.416 33.852 268.536 33.448 268.536 32.936C268.536 32.424 268.416 32.04 268.176 31.784C267.944 31.52 267.572 31.388 267.06 31.388C266.556 31.388 266.088 31.564 265.656 31.916V32.048ZM271.04 34.532C271.04 34.356 271.096 34.212 271.208 34.1C271.328 33.98 271.48 33.92 271.664 33.92C271.856 33.92 272.012 33.98 272.132 34.1C272.252 34.22 272.312 34.416 272.312 34.688C272.312 34.96 272.204 35.26 271.988 35.588C271.78 35.924 271.556 36.144 271.316 36.248C271.276 36.264 271.224 36.24 271.16 36.176C271.104 36.12 271.076 36.076 271.076 36.044C271.324 35.868 271.492 35.584 271.58 35.192C271.42 35.176 271.288 35.108 271.184 34.988C271.088 34.86 271.04 34.708 271.04 34.532ZM280.304 30.56C280.536 30.448 280.728 30.284 280.88 30.068C281.04 29.844 281.12 29.572 281.12 29.252C281.12 28.924 281.016 28.66 280.808 28.46C280.608 28.252 280.328 28.148 279.968 28.148C279.616 28.148 279.344 28.256 279.152 28.472C278.968 28.68 278.872 28.964 278.864 29.324C278.632 29.308 278.456 29.244 278.336 29.132C278.216 29.012 278.168 28.86 278.192 28.676C278.216 28.364 278.4 28.096 278.744 27.872C279.096 27.648 279.544 27.536 280.088 27.536C280.64 27.536 281.1 27.688 281.468 27.992C281.836 28.296 282.02 28.7 282.02 29.204C282.02 29.58 281.9 29.932 281.66 30.26C281.42 30.58 281.056 30.836 280.568 31.028C281.12 31.116 281.556 31.332 281.876 31.676C282.204 32.012 282.368 32.436 282.368 32.948C282.368 33.588 282.12 34.12 281.624 34.544C281.136 34.968 280.504 35.18 279.728 35.18C279.192 35.18 278.748 35.08 278.396 34.88C278.052 34.672 277.88 34.404 277.88 34.076C277.88 33.748 278.056 33.548 278.408 33.476C278.472 33.812 278.62 34.08 278.852 34.28C279.092 34.48 279.436 34.58 279.884 34.58C280.332 34.58 280.708 34.432 281.012 34.136C281.324 33.84 281.472 33.476 281.456 33.044C281.448 32.604 281.312 32.268 281.048 32.036C280.784 31.796 280.484 31.644 280.148 31.58C279.812 31.516 279.444 31.5 279.044 31.532L279.032 30.872C279.44 30.872 279.864 30.768 280.304 30.56ZM288.495 32.984C288.495 33.568 288.275 34.08 287.835 34.52C287.395 34.96 286.819 35.18 286.107 35.18C285.395 35.18 284.855 35.008 284.487 34.664C284.127 34.32 283.939 33.904 283.923 33.416C283.907 32.928 284.051 32.488 284.355 32.096C284.659 31.704 285.043 31.38 285.507 31.124C284.755 30.62 284.379 30.028 284.379 29.348C284.379 28.82 284.555 28.388 284.907 28.052C285.267 27.708 285.719 27.536 286.263 27.536C286.807 27.536 287.255 27.68 287.607 27.968C287.967 28.256 288.147 28.652 288.147 29.156C288.147 29.884 287.759 30.496 286.983 30.992C287.463 31.28 287.835 31.572 288.099 31.868C288.363 32.156 288.495 32.528 288.495 32.984ZM286.299 28.088C285.963 28.088 285.683 28.192 285.459 28.4C285.243 28.608 285.135 28.868 285.135 29.18C285.135 29.492 285.247 29.76 285.471 29.984C285.703 30.208 286.067 30.46 286.563 30.74C287.115 30.316 287.391 29.812 287.391 29.228C287.391 28.884 287.295 28.608 287.103 28.4C286.911 28.192 286.643 28.088 286.299 28.088ZM285.087 32.228C284.855 32.556 284.739 32.904 284.739 33.272C284.739 33.64 284.859 33.952 285.099 34.208C285.347 34.464 285.707 34.592 286.179 34.592C286.651 34.592 287.027 34.464 287.307 34.208C287.595 33.952 287.739 33.644 287.739 33.284C287.739 32.916 287.615 32.604 287.367 32.348C287.119 32.092 286.767 31.84 286.311 31.592L285.975 31.412C285.615 31.62 285.319 31.892 285.087 32.228ZM298.895 32.636V33.26H297.839V35L297.011 35.12V33.26H293.987C293.835 33.012 293.751 32.82 293.735 32.684L297.059 27.656C297.315 27.584 297.567 27.576 297.815 27.632L297.827 32.636H298.895ZM297.011 32.636V28.712L294.479 32.636H297.011ZM304.557 31.412C304.557 30.308 304.417 29.492 304.137 28.964C303.857 28.428 303.417 28.16 302.817 28.16C302.225 28.16 301.785 28.436 301.497 28.988C301.217 29.532 301.077 30.348 301.077 31.436C301.077 32.524 301.217 33.316 301.497 33.812C301.785 34.308 302.229 34.556 302.829 34.556C303.429 34.556 303.865 34.308 304.137 33.812C304.417 33.308 304.557 32.508 304.557 31.412ZM302.829 27.536C303.717 27.528 304.369 27.844 304.785 28.484C305.209 29.116 305.421 30.084 305.421 31.388C305.421 32.684 305.205 33.64 304.773 34.256C304.349 34.872 303.697 35.18 302.817 35.18C301.937 35.18 301.281 34.872 300.849 34.256C300.425 33.64 300.213 32.688 300.213 31.4C300.213 30.112 300.425 29.148 300.849 28.508C301.281 27.868 301.941 27.544 302.829 27.536ZM307.064 34.532C307.064 34.356 307.12 34.212 307.232 34.1C307.352 33.98 307.504 33.92 307.688 33.92C307.88 33.92 308.036 33.98 308.156 34.1C308.276 34.22 308.336 34.416 308.336 34.688C308.336 34.96 308.228 35.26 308.012 35.588C307.804 35.924 307.58 36.144 307.34 36.248C307.3 36.264 307.248 36.24 307.184 36.176C307.128 36.12 307.1 36.076 307.1 36.044C307.348 35.868 307.516 35.584 307.604 35.192C307.444 35.176 307.312 35.108 307.208 34.988C307.112 34.86 307.064 34.708 307.064 34.532ZM318.884 32.636V33.26H317.828V35L317 35.12V33.26H313.976C313.824 33.012 313.74 32.82 313.724 32.684L317.048 27.656C317.304 27.584 317.556 27.576 317.804 27.632L317.816 32.636H318.884ZM317 32.636V28.712L314.468 32.636H317ZM320.395 29.096C320.395 28.656 320.595 28.288 320.995 27.992C321.403 27.688 321.923 27.536 322.555 27.536C323.187 27.536 323.695 27.712 324.079 28.064C324.463 28.408 324.655 28.872 324.655 29.456C324.655 30.336 324.207 31.296 323.311 32.336C322.999 32.696 322.759 32.96 322.591 33.128C322.431 33.296 322.179 33.54 321.835 33.86C321.499 34.18 321.311 34.36 321.271 34.4L324.163 34.364L324.271 33.632C324.295 33.464 324.375 33.348 324.511 33.284C324.647 33.22 324.755 33.212 324.835 33.26V35H320.287C320.223 34.808 320.199 34.664 320.215 34.568C320.567 34.256 321.003 33.828 321.523 33.284C322.051 32.732 322.379 32.376 322.507 32.216C322.635 32.048 322.795 31.832 322.987 31.568C323.179 31.304 323.319 31.072 323.407 30.872C323.647 30.36 323.767 29.908 323.767 29.516C323.767 29.116 323.651 28.792 323.419 28.544C323.187 28.288 322.855 28.16 322.423 28.16C321.991 28.16 321.659 28.3 321.427 28.58C321.203 28.86 321.091 29.252 321.091 29.756C320.899 29.764 320.735 29.716 320.599 29.612C320.463 29.508 320.395 29.336 320.395 29.096ZM326.479 34.532C326.479 34.356 326.535 34.212 326.647 34.1C326.767 33.98 326.919 33.92 327.103 33.92C327.295 33.92 327.451 33.98 327.571 34.1C327.691 34.22 327.751 34.416 327.751 34.688C327.751 34.96 327.643 35.26 327.427 35.588C327.219 35.924 326.995 36.144 326.755 36.248C326.715 36.264 326.663 36.24 326.599 36.176C326.543 36.12 326.515 36.076 326.515 36.044C326.763 35.868 326.931 35.584 327.019 35.192C326.859 35.176 326.727 35.108 326.623 34.988C326.527 34.86 326.479 34.708 326.479 34.532ZM338.3 32.636V33.26H337.244V35L336.416 35.12V33.26H333.392C333.24 33.012 333.156 32.82 333.14 32.684L336.464 27.656C336.72 27.584 336.972 27.576 337.22 27.632L337.232 32.636H338.3ZM336.416 32.636V28.712L333.884 32.636H336.416ZM344.586 32.636V33.26H343.53V35L342.702 35.12V33.26H339.678C339.526 33.012 339.442 32.82 339.426 32.684L342.75 27.656C343.006 27.584 343.258 27.576 343.506 27.632L343.518 32.636H344.586ZM342.702 32.636V28.712L340.17 32.636H342.702ZM345.988 34.532C345.988 34.356 346.044 34.212 346.156 34.1C346.276 33.98 346.428 33.92 346.612 33.92C346.804 33.92 346.96 33.98 347.08 34.1C347.2 34.22 347.26 34.416 347.26 34.688C347.26 34.96 347.152 35.26 346.936 35.588C346.728 35.924 346.504 36.144 346.264 36.248C346.224 36.264 346.172 36.24 346.108 36.176C346.052 36.12 346.024 36.076 346.024 36.044C346.272 35.868 346.44 35.584 346.528 35.192C346.368 35.176 346.236 35.108 346.132 34.988C346.036 34.86 345.988 34.708 345.988 34.532ZM357.808 32.636V33.26H356.752V35L355.924 35.12V33.26H352.9C352.748 33.012 352.664 32.82 352.648 32.684L355.972 27.656C356.228 27.584 356.48 27.576 356.728 27.632L356.74 32.636H357.808ZM355.924 32.636V28.712L353.392 32.636H355.924ZM360.231 31.292C360.759 30.948 361.339 30.776 361.971 30.776C362.611 30.776 363.103 30.952 363.447 31.304C363.791 31.656 363.963 32.16 363.963 32.816C363.963 33.472 363.755 34.032 363.339 34.496C362.931 34.952 362.379 35.18 361.683 35.18C360.107 35.18 359.319 34.132 359.319 32.036C359.319 30.572 359.579 29.456 360.099 28.688C360.619 27.92 361.351 27.536 362.295 27.536C362.735 27.536 363.071 27.608 363.303 27.752C363.535 27.896 363.651 28.08 363.651 28.304C363.651 28.664 363.459 28.86 363.075 28.892C363.075 28.684 363.003 28.504 362.859 28.352C362.715 28.2 362.495 28.124 362.199 28.124C361.647 28.124 361.199 28.4 360.855 28.952C360.511 29.496 360.303 30.276 360.231 31.292ZM360.207 32.048C360.207 33.736 360.707 34.58 361.707 34.58C362.147 34.58 362.487 34.436 362.727 34.148C362.967 33.852 363.087 33.448 363.087 32.936C363.087 32.424 362.967 32.04 362.727 31.784C362.495 31.52 362.123 31.388 361.611 31.388C361.107 31.388 360.639 31.564 360.207 31.916V32.048Z" fill="black"/>
<path d="M222.832 51.56C223.064 51.448 223.256 51.284 223.408 51.068C223.568 50.844 223.648 50.572 223.648 50.252C223.648 49.924 223.544 49.66 223.336 49.46C223.136 49.252 222.856 49.148 222.496 49.148C222.144 49.148 221.872 49.256 221.68 49.472C221.496 49.68 221.4 49.964 221.392 50.324C221.16 50.308 220.984 50.244 220.864 50.132C220.744 50.012 220.696 49.86 220.72 49.676C220.744 49.364 220.928 49.096 221.272 48.872C221.624 48.648 222.072 48.536 222.616 48.536C223.168 48.536 223.628 48.688 223.996 48.992C224.364 49.296 224.548 49.7 224.548 50.204C224.548 50.58 224.428 50.932 224.188 51.26C223.948 51.58 223.584 51.836 223.096 52.028C223.648 52.116 224.084 52.332 224.404 52.676C224.732 53.012 224.896 53.436 224.896 53.948C224.896 54.588 224.648 55.12 224.152 55.544C223.664 55.968 223.032 56.18 222.256 56.18C221.72 56.18 221.276 56.08 220.924 55.88C220.58 55.672 220.408 55.404 220.408 55.076C220.408 54.748 220.584 54.548 220.936 54.476C221 54.812 221.148 55.08 221.38 55.28C221.62 55.48 221.964 55.58 222.412 55.58C222.86 55.58 223.236 55.432 223.54 55.136C223.852 54.84 224 54.476 223.984 54.044C223.976 53.604 223.84 53.268 223.576 53.036C223.312 52.796 223.012 52.644 222.676 52.58C222.34 52.516 221.972 52.5 221.572 52.532L221.56 51.872C221.968 51.872 222.392 51.768 222.832 51.56ZM226.547 50.096C226.547 49.656 226.747 49.288 227.147 48.992C227.555 48.688 228.075 48.536 228.707 48.536C229.339 48.536 229.847 48.712 230.231 49.064C230.615 49.408 230.807 49.872 230.807 50.456C230.807 51.336 230.359 52.296 229.463 53.336C229.151 53.696 228.911 53.96 228.743 54.128C228.583 54.296 228.331 54.54 227.987 54.86C227.651 55.18 227.463 55.36 227.423 55.4L230.315 55.364L230.423 54.632C230.447 54.464 230.527 54.348 230.663 54.284C230.799 54.22 230.907 54.212 230.987 54.26V56H226.439C226.375 55.808 226.351 55.664 226.367 55.568C226.719 55.256 227.155 54.828 227.675 54.284C228.203 53.732 228.531 53.376 228.659 53.216C228.787 53.048 228.947 52.832 229.139 52.568C229.331 52.304 229.471 52.072 229.559 51.872C229.799 51.36 229.919 50.908 229.919 50.516C229.919 50.116 229.803 49.792 229.571 49.544C229.339 49.288 229.007 49.16 228.575 49.16C228.143 49.16 227.811 49.3 227.579 49.58C227.355 49.86 227.243 50.252 227.243 50.756C227.051 50.764 226.887 50.716 226.751 50.612C226.615 50.508 226.547 50.336 226.547 50.096ZM232.632 55.532C232.632 55.356 232.688 55.212 232.8 55.1C232.92 54.98 233.072 54.92 233.256 54.92C233.448 54.92 233.604 54.98 233.724 55.1C233.844 55.22 233.904 55.416 233.904 55.688C233.904 55.96 233.796 56.26 233.58 56.588C233.372 56.924 233.148 57.144 232.908 57.248C232.868 57.264 232.816 57.24 232.752 57.176C232.696 57.12 232.668 57.076 232.668 57.044C232.916 56.868 233.084 56.584 233.172 56.192C233.012 56.176 232.88 56.108 232.776 55.988C232.68 55.86 232.632 55.708 232.632 55.532ZM241.896 51.56C242.128 51.448 242.32 51.284 242.472 51.068C242.632 50.844 242.712 50.572 242.712 50.252C242.712 49.924 242.608 49.66 242.4 49.46C242.2 49.252 241.92 49.148 241.56 49.148C241.208 49.148 240.936 49.256 240.744 49.472C240.56 49.68 240.464 49.964 240.456 50.324C240.224 50.308 240.048 50.244 239.928 50.132C239.808 50.012 239.76 49.86 239.784 49.676C239.808 49.364 239.992 49.096 240.336 48.872C240.688 48.648 241.136 48.536 241.68 48.536C242.232 48.536 242.692 48.688 243.06 48.992C243.428 49.296 243.612 49.7 243.612 50.204C243.612 50.58 243.492 50.932 243.252 51.26C243.012 51.58 242.648 51.836 242.16 52.028C242.712 52.116 243.148 52.332 243.468 52.676C243.796 53.012 243.96 53.436 243.96 53.948C243.96 54.588 243.712 55.12 243.216 55.544C242.728 55.968 242.096 56.18 241.32 56.18C240.784 56.18 240.34 56.08 239.988 55.88C239.644 55.672 239.472 55.404 239.472 55.076C239.472 54.748 239.648 54.548 240 54.476C240.064 54.812 240.212 55.08 240.444 55.28C240.684 55.48 241.028 55.58 241.476 55.58C241.924 55.58 242.3 55.432 242.604 55.136C242.916 54.84 243.064 54.476 243.048 54.044C243.04 53.604 242.904 53.268 242.64 53.036C242.376 52.796 242.076 52.644 241.74 52.58C241.404 52.516 241.036 52.5 240.636 52.532L240.624 51.872C241.032 51.872 241.456 51.768 241.896 51.56ZM250.386 53.636V54.26H249.33V56L248.502 56.12V54.26H245.478C245.326 54.012 245.242 53.82 245.226 53.684L248.55 48.656C248.806 48.584 249.058 48.576 249.306 48.632L249.318 53.636H250.386ZM248.502 53.636V49.712L245.97 53.636H248.502ZM251.789 55.532C251.789 55.356 251.845 55.212 251.957 55.1C252.077 54.98 252.229 54.92 252.413 54.92C252.605 54.92 252.761 54.98 252.881 55.1C253.001 55.22 253.061 55.416 253.061 55.688C253.061 55.96 252.953 56.26 252.737 56.588C252.529 56.924 252.305 57.144 252.065 57.248C252.025 57.264 251.973 57.24 251.909 57.176C251.853 57.12 251.825 57.076 251.825 57.044C252.073 56.868 252.241 56.584 252.329 56.192C252.169 56.176 252.037 56.108 251.933 55.988C251.837 55.86 251.789 55.708 251.789 55.532ZM261.053 51.56C261.285 51.448 261.477 51.284 261.629 51.068C261.789 50.844 261.869 50.572 261.869 50.252C261.869 49.924 261.765 49.66 261.557 49.46C261.357 49.252 261.077 49.148 260.717 49.148C260.365 49.148 260.093 49.256 259.901 49.472C259.717 49.68 259.621 49.964 259.613 50.324C259.381 50.308 259.205 50.244 259.085 50.132C258.965 50.012 258.917 49.86 258.941 49.676C258.965 49.364 259.149 49.096 259.493 48.872C259.845 48.648 260.293 48.536 260.837 48.536C261.389 48.536 261.849 48.688 262.217 48.992C262.585 49.296 262.769 49.7 262.769 50.204C262.769 50.58 262.649 50.932 262.409 51.26C262.169 51.58 261.805 51.836 261.317 52.028C261.869 52.116 262.305 52.332 262.625 52.676C262.953 53.012 263.117 53.436 263.117 53.948C263.117 54.588 262.869 55.12 262.373 55.544C261.885 55.968 261.253 56.18 260.477 56.18C259.941 56.18 259.497 56.08 259.145 55.88C258.801 55.672 258.629 55.404 258.629 55.076C258.629 54.748 258.805 54.548 259.157 54.476C259.221 54.812 259.369 55.08 259.601 55.28C259.841 55.48 260.185 55.58 260.633 55.58C261.081 55.58 261.457 55.432 261.761 55.136C262.073 54.84 262.221 54.476 262.205 54.044C262.197 53.604 262.061 53.268 261.797 53.036C261.533 52.796 261.233 52.644 260.897 52.58C260.561 52.516 260.193 52.5 259.793 52.532L259.781 51.872C260.189 51.872 260.613 51.768 261.053 51.56ZM265.68 52.292C266.208 51.948 266.788 51.776 267.42 51.776C268.06 51.776 268.552 51.952 268.896 52.304C269.24 52.656 269.412 53.16 269.412 53.816C269.412 54.472 269.204 55.032 268.788 55.496C268.38 55.952 267.828 56.18 267.132 56.18C265.556 56.18 264.768 55.132 264.768 53.036C264.768 51.572 265.028 50.456 265.548 49.688C266.068 48.92 266.8 48.536 267.744 48.536C268.184 48.536 268.52 48.608 268.752 48.752C268.984 48.896 269.1 49.08 269.1 49.304C269.1 49.664 268.908 49.86 268.524 49.892C268.524 49.684 268.452 49.504 268.308 49.352C268.164 49.2 267.944 49.124 267.648 49.124C267.096 49.124 266.648 49.4 266.304 49.952C265.96 50.496 265.752 51.276 265.68 52.292ZM265.656 53.048C265.656 54.736 266.156 55.58 267.156 55.58C267.596 55.58 267.936 55.436 268.176 55.148C268.416 54.852 268.536 54.448 268.536 53.936C268.536 53.424 268.416 53.04 268.176 52.784C267.944 52.52 267.572 52.388 267.06 52.388C266.556 52.388 266.088 52.564 265.656 52.916V53.048ZM271.04 55.532C271.04 55.356 271.096 55.212 271.208 55.1C271.328 54.98 271.48 54.92 271.664 54.92C271.856 54.92 272.012 54.98 272.132 55.1C272.252 55.22 272.312 55.416 272.312 55.688C272.312 55.96 272.204 56.26 271.988 56.588C271.78 56.924 271.556 57.144 271.316 57.248C271.276 57.264 271.224 57.24 271.16 57.176C271.104 57.12 271.076 57.076 271.076 57.044C271.324 56.868 271.492 56.584 271.58 56.192C271.42 56.176 271.288 56.108 271.184 55.988C271.088 55.86 271.04 55.708 271.04 55.532ZM280.304 51.56C280.536 51.448 280.728 51.284 280.88 51.068C281.04 50.844 281.12 50.572 281.12 50.252C281.12 49.924 281.016 49.66 280.808 49.46C280.608 49.252 280.328 49.148 279.968 49.148C279.616 49.148 279.344 49.256 279.152 49.472C278.968 49.68 278.872 49.964 278.864 50.324C278.632 50.308 278.456 50.244 278.336 50.132C278.216 50.012 278.168 49.86 278.192 49.676C278.216 49.364 278.4 49.096 278.744 48.872C279.096 48.648 279.544 48.536 280.088 48.536C280.64 48.536 281.1 48.688 281.468 48.992C281.836 49.296 282.02 49.7 282.02 50.204C282.02 50.58 281.9 50.932 281.66 51.26C281.42 51.58 281.056 51.836 280.568 52.028C281.12 52.116 281.556 52.332 281.876 52.676C282.204 53.012 282.368 53.436 282.368 53.948C282.368 54.588 282.12 55.12 281.624 55.544C281.136 55.968 280.504 56.18 279.728 56.18C279.192 56.18 278.748 56.08 278.396 55.88C278.052 55.672 277.88 55.404 277.88 55.076C277.88 54.748 278.056 54.548 278.408 54.476C278.472 54.812 278.62 55.08 278.852 55.28C279.092 55.48 279.436 55.58 279.884 55.58C280.332 55.58 280.708 55.432 281.012 55.136C281.324 54.84 281.472 54.476 281.456 54.044C281.448 53.604 281.312 53.268 281.048 53.036C280.784 52.796 280.484 52.644 280.148 52.58C279.812 52.516 279.444 52.5 279.044 52.532L279.032 51.872C279.44 51.872 279.864 51.768 280.304 51.56ZM288.495 53.984C288.495 54.568 288.275 55.08 287.835 55.52C287.395 55.96 286.819 56.18 286.107 56.18C285.395 56.18 284.855 56.008 284.487 55.664C284.127 55.32 283.939 54.904 283.923 54.416C283.907 53.928 284.051 53.488 284.355 53.096C284.659 52.704 285.043 52.38 285.507 52.124C284.755 51.62 284.379 51.028 284.379 50.348C284.379 49.82 284.555 49.388 284.907 49.052C285.267 48.708 285.719 48.536 286.263 48.536C286.807 48.536 287.255 48.68 287.607 48.968C287.967 49.256 288.147 49.652 288.147 50.156C288.147 50.884 287.759 51.496 286.983 51.992C287.463 52.28 287.835 52.572 288.099 52.868C288.363 53.156 288.495 53.528 288.495 53.984ZM286.299 49.088C285.963 49.088 285.683 49.192 285.459 49.4C285.243 49.608 285.135 49.868 285.135 50.18C285.135 50.492 285.247 50.76 285.471 50.984C285.703 51.208 286.067 51.46 286.563 51.74C287.115 51.316 287.391 50.812 287.391 50.228C287.391 49.884 287.295 49.608 287.103 49.4C286.911 49.192 286.643 49.088 286.299 49.088ZM285.087 53.228C284.855 53.556 284.739 53.904 284.739 54.272C284.739 54.64 284.859 54.952 285.099 55.208C285.347 55.464 285.707 55.592 286.179 55.592C286.651 55.592 287.027 55.464 287.307 55.208C287.595 54.952 287.739 54.644 287.739 54.284C287.739 53.916 287.615 53.604 287.367 53.348C287.119 53.092 286.767 52.84 286.311 52.592L285.975 52.412C285.615 52.62 285.319 52.892 285.087 53.228ZM298.895 53.636V54.26H297.839V56L297.011 56.12V54.26H293.987C293.835 54.012 293.751 53.82 293.735 53.684L297.059 48.656C297.315 48.584 297.567 48.576 297.815 48.632L297.827 53.636H298.895ZM297.011 53.636V49.712L294.479 53.636H297.011ZM304.557 52.412C304.557 51.308 304.417 50.492 304.137 49.964C303.857 49.428 303.417 49.16 302.817 49.16C302.225 49.16 301.785 49.436 301.497 49.988C301.217 50.532 301.077 51.348 301.077 52.436C301.077 53.524 301.217 54.316 301.497 54.812C301.785 55.308 302.229 55.556 302.829 55.556C303.429 55.556 303.865 55.308 304.137 54.812C304.417 54.308 304.557 53.508 304.557 52.412ZM302.829 48.536C303.717 48.528 304.369 48.844 304.785 49.484C305.209 50.116 305.421 51.084 305.421 52.388C305.421 53.684 305.205 54.64 304.773 55.256C304.349 55.872 303.697 56.18 302.817 56.18C301.937 56.18 301.281 55.872 300.849 55.256C300.425 54.64 300.213 53.688 300.213 52.4C300.213 51.112 300.425 50.148 300.849 49.508C301.281 48.868 301.941 48.544 302.829 48.536ZM307.064 55.532C307.064 55.356 307.12 55.212 307.232 55.1C307.352 54.98 307.504 54.92 307.688 54.92C307.88 54.92 308.036 54.98 308.156 55.1C308.276 55.22 308.336 55.416 308.336 55.688C308.336 55.96 308.228 56.26 308.012 56.588C307.804 56.924 307.58 57.144 307.34 57.248C307.3 57.264 307.248 57.24 307.184 57.176C307.128 57.12 307.1 57.076 307.1 57.044C307.348 56.868 307.516 56.584 307.604 56.192C307.444 56.176 307.312 56.108 307.208 55.988C307.112 55.86 307.064 55.708 307.064 55.532ZM318.884 53.636V54.26H317.828V56L317 56.12V54.26H313.976C313.824 54.012 313.74 53.82 313.724 53.684L317.048 48.656C317.304 48.584 317.556 48.576 317.804 48.632L317.816 53.636H318.884ZM317 53.636V49.712L314.468 53.636H317ZM320.395 50.096C320.395 49.656 320.595 49.288 320.995 48.992C321.403 48.688 321.923 48.536 322.555 48.536C323.187 48.536 323.695 48.712 324.079 49.064C324.463 49.408 324.655 49.872 324.655 50.456C324.655 51.336 324.207 52.296 323.311 53.336C322.999 53.696 322.759 53.96 322.591 54.128C322.431 54.296 322.179 54.54 321.835 54.86C321.499 55.18 321.311 55.36 321.271 55.4L324.163 55.364L324.271 54.632C324.295 54.464 324.375 54.348 324.511 54.284C324.647 54.22 324.755 54.212 324.835 54.26V56H320.287C320.223 55.808 320.199 55.664 320.215 55.568C320.567 55.256 321.003 54.828 321.523 54.284C322.051 53.732 322.379 53.376 322.507 53.216C322.635 53.048 322.795 52.832 322.987 52.568C323.179 52.304 323.319 52.072 323.407 51.872C323.647 51.36 323.767 50.908 323.767 50.516C323.767 50.116 323.651 49.792 323.419 49.544C323.187 49.288 322.855 49.16 322.423 49.16C321.991 49.16 321.659 49.3 321.427 49.58C321.203 49.86 321.091 50.252 321.091 50.756C320.899 50.764 320.735 50.716 320.599 50.612C320.463 50.508 320.395 50.336 320.395 50.096ZM326.479 55.532C326.479 55.356 326.535 55.212 326.647 55.1C326.767 54.98 326.919 54.92 327.103 54.92C327.295 54.92 327.451 54.98 327.571 55.1C327.691 55.22 327.751 55.416 327.751 55.688C327.751 55.96 327.643 56.26 327.427 56.588C327.219 56.924 326.995 57.144 326.755 57.248C326.715 57.264 326.663 57.24 326.599 57.176C326.543 57.12 326.515 57.076 326.515 57.044C326.763 56.868 326.931 56.584 327.019 56.192C326.859 56.176 326.727 56.108 326.623 55.988C326.527 55.86 326.479 55.708 326.479 55.532ZM338.3 53.636V54.26H337.244V56L336.416 56.12V54.26H333.392C333.24 54.012 333.156 53.82 333.14 53.684L336.464 48.656C336.72 48.584 336.972 48.576 337.22 48.632L337.232 53.636H338.3ZM336.416 53.636V49.712L333.884 53.636H336.416ZM344.586 53.636V54.26H343.53V56L342.702 56.12V54.26H339.678C339.526 54.012 339.442 53.82 339.426 53.684L342.75 48.656C343.006 48.584 343.258 48.576 343.506 48.632L343.518 53.636H344.586ZM342.702 53.636V49.712L340.17 53.636H342.702ZM345.988 55.532C345.988 55.356 346.044 55.212 346.156 55.1C346.276 54.98 346.428 54.92 346.612 54.92C346.804 54.92 346.96 54.98 347.08 55.1C347.2 55.22 347.26 55.416 347.26 55.688C347.26 55.96 347.152 56.26 346.936 56.588C346.728 56.924 346.504 57.144 346.264 57.248C346.224 57.264 346.172 57.24 346.108 57.176C346.052 57.12 346.024 57.076 346.024 57.044C346.272 56.868 346.44 56.584 346.528 56.192C346.368 56.176 346.236 56.108 346.132 55.988C346.036 55.86 345.988 55.708 345.988 55.532ZM357.808 53.636V54.26H356.752V56L355.924 56.12V54.26H352.9C352.748 54.012 352.664 53.82 352.648 53.684L355.972 48.656C356.228 48.584 356.48 48.576 356.728 48.632L356.74 53.636H357.808ZM355.924 53.636V49.712L353.392 53.636H355.924ZM360.231 52.292C360.759 51.948 361.339 51.776 361.971 51.776C362.611 51.776 363.103 51.952 363.447 52.304C363.791 52.656 363.963 53.16 363.963 53.816C363.963 54.472 363.755 55.032 363.339 55.496C362.931 55.952 362.379 56.18 361.683 56.18C360.107 56.18 359.319 55.132 359.319 53.036C359.319 51.572 359.579 50.456 360.099 49.688C360.619 48.92 361.351 48.536 362.295 48.536C362.735 48.536 363.071 48.608 363.303 48.752C363.535 48.896 363.651 49.08 363.651 49.304C363.651 49.664 363.459 49.86 363.075 49.892C363.075 49.684 363.003 49.504 362.859 49.352C362.715 49.2 362.495 49.124 362.199 49.124C361.647 49.124 361.199 49.4 360.855 49.952C360.511 50.496 360.303 51.276 360.231 52.292ZM360.207 53.048C360.207 54.736 360.707 55.58 361.707 55.58C362.147 55.58 362.487 55.436 362.727 55.148C362.967 54.852 363.087 54.448 363.087 53.936C363.087 53.424 362.967 53.04 362.727 52.784C362.495 52.52 362.123 52.388 361.611 52.388C361.107 52.388 360.639 52.564 360.207 52.916V53.048Z" fill="black"/>
<path d="M222.832 69.56C223.064 69.448 223.256 69.284 223.408 69.068C223.568 68.844 223.648 68.572 223.648 68.252C223.648 67.924 223.544 67.66 223.336 67.46C223.136 67.252 222.856 67.148 222.496 67.148C222.144 67.148 221.872 67.256 221.68 67.472C221.496 67.68 221.4 67.964 221.392 68.324C221.16 68.308 220.984 68.244 220.864 68.132C220.744 68.012 220.696 67.86 220.72 67.676C220.744 67.364 220.928 67.096 221.272 66.872C221.624 66.648 222.072 66.536 222.616 66.536C223.168 66.536 223.628 66.688 223.996 66.992C224.364 67.296 224.548 67.7 224.548 68.204C224.548 68.58 224.428 68.932 224.188 69.26C223.948 69.58 223.584 69.836 223.096 70.028C223.648 70.116 224.084 70.332 224.404 70.676C224.732 71.012 224.896 71.436 224.896 71.948C224.896 72.588 224.648 73.12 224.152 73.544C223.664 73.968 223.032 74.18 222.256 74.18C221.72 74.18 221.276 74.08 220.924 73.88C220.58 73.672 220.408 73.404 220.408 73.076C220.408 72.748 220.584 72.548 220.936 72.476C221 72.812 221.148 73.08 221.38 73.28C221.62 73.48 221.964 73.58 222.412 73.58C222.86 73.58 223.236 73.432 223.54 73.136C223.852 72.84 224 72.476 223.984 72.044C223.976 71.604 223.84 71.268 223.576 71.036C223.312 70.796 223.012 70.644 222.676 70.58C222.34 70.516 221.972 70.5 221.572 70.532L221.56 69.872C221.968 69.872 222.392 69.768 222.832 69.56ZM226.547 68.096C226.547 67.656 226.747 67.288 227.147 66.992C227.555 66.688 228.075 66.536 228.707 66.536C229.339 66.536 229.847 66.712 230.231 67.064C230.615 67.408 230.807 67.872 230.807 68.456C230.807 69.336 230.359 70.296 229.463 71.336C229.151 71.696 228.911 71.96 228.743 72.128C228.583 72.296 228.331 72.54 227.987 72.86C227.651 73.18 227.463 73.36 227.423 73.4L230.315 73.364L230.423 72.632C230.447 72.464 230.527 72.348 230.663 72.284C230.799 72.22 230.907 72.212 230.987 72.26V74H226.439C226.375 73.808 226.351 73.664 226.367 73.568C226.719 73.256 227.155 72.828 227.675 72.284C228.203 71.732 228.531 71.376 228.659 71.216C228.787 71.048 228.947 70.832 229.139 70.568C229.331 70.304 229.471 70.072 229.559 69.872C229.799 69.36 229.919 68.908 229.919 68.516C229.919 68.116 229.803 67.792 229.571 67.544C229.339 67.288 229.007 67.16 228.575 67.16C228.143 67.16 227.811 67.3 227.579 67.58C227.355 67.86 227.243 68.252 227.243 68.756C227.051 68.764 226.887 68.716 226.751 68.612C226.615 68.508 226.547 68.336 226.547 68.096ZM232.632 73.532C232.632 73.356 232.688 73.212 232.8 73.1C232.92 72.98 233.072 72.92 233.256 72.92C233.448 72.92 233.604 72.98 233.724 73.1C233.844 73.22 233.904 73.416 233.904 73.688C233.904 73.96 233.796 74.26 233.58 74.588C233.372 74.924 233.148 75.144 232.908 75.248C232.868 75.264 232.816 75.24 232.752 75.176C232.696 75.12 232.668 75.076 232.668 75.044C232.916 74.868 233.084 74.584 233.172 74.192C233.012 74.176 232.88 74.108 232.776 73.988C232.68 73.86 232.632 73.708 232.632 73.532ZM241.896 69.56C242.128 69.448 242.32 69.284 242.472 69.068C242.632 68.844 242.712 68.572 242.712 68.252C242.712 67.924 242.608 67.66 242.4 67.46C242.2 67.252 241.92 67.148 241.56 67.148C241.208 67.148 240.936 67.256 240.744 67.472C240.56 67.68 240.464 67.964 240.456 68.324C240.224 68.308 240.048 68.244 239.928 68.132C239.808 68.012 239.76 67.86 239.784 67.676C239.808 67.364 239.992 67.096 240.336 66.872C240.688 66.648 241.136 66.536 241.68 66.536C242.232 66.536 242.692 66.688 243.06 66.992C243.428 67.296 243.612 67.7 243.612 68.204C243.612 68.58 243.492 68.932 243.252 69.26C243.012 69.58 242.648 69.836 242.16 70.028C242.712 70.116 243.148 70.332 243.468 70.676C243.796 71.012 243.96 71.436 243.96 71.948C243.96 72.588 243.712 73.12 243.216 73.544C242.728 73.968 242.096 74.18 241.32 74.18C240.784 74.18 240.34 74.08 239.988 73.88C239.644 73.672 239.472 73.404 239.472 73.076C239.472 72.748 239.648 72.548 240 72.476C240.064 72.812 240.212 73.08 240.444 73.28C240.684 73.48 241.028 73.58 241.476 73.58C241.924 73.58 242.3 73.432 242.604 73.136C242.916 72.84 243.064 72.476 243.048 72.044C243.04 71.604 242.904 71.268 242.64 71.036C242.376 70.796 242.076 70.644 241.74 70.58C241.404 70.516 241.036 70.5 240.636 70.532L240.624 69.872C241.032 69.872 241.456 69.768 241.896 69.56ZM250.386 71.636V72.26H249.33V74L248.502 74.12V72.26H245.478C245.326 72.012 245.242 71.82 245.226 71.684L248.55 66.656C248.806 66.584 249.058 66.576 249.306 66.632L249.318 71.636H250.386ZM248.502 71.636V67.712L245.97 71.636H248.502ZM251.789 73.532C251.789 73.356 251.845 73.212 251.957 73.1C252.077 72.98 252.229 72.92 252.413 72.92C252.605 72.92 252.761 72.98 252.881 73.1C253.001 73.22 253.061 73.416 253.061 73.688C253.061 73.96 252.953 74.26 252.737 74.588C252.529 74.924 252.305 75.144 252.065 75.248C252.025 75.264 251.973 75.24 251.909 75.176C251.853 75.12 251.825 75.076 251.825 75.044C252.073 74.868 252.241 74.584 252.329 74.192C252.169 74.176 252.037 74.108 251.933 73.988C251.837 73.86 251.789 73.708 251.789 73.532ZM261.053 69.56C261.285 69.448 261.477 69.284 261.629 69.068C261.789 68.844 261.869 68.572 261.869 68.252C261.869 67.924 261.765 67.66 261.557 67.46C261.357 67.252 261.077 67.148 260.717 67.148C260.365 67.148 260.093 67.256 259.901 67.472C259.717 67.68 259.621 67.964 259.613 68.324C259.381 68.308 259.205 68.244 259.085 68.132C258.965 68.012 258.917 67.86 258.941 67.676C258.965 67.364 259.149 67.096 259.493 66.872C259.845 66.648 260.293 66.536 260.837 66.536C261.389 66.536 261.849 66.688 262.217 66.992C262.585 67.296 262.769 67.7 262.769 68.204C262.769 68.58 262.649 68.932 262.409 69.26C262.169 69.58 261.805 69.836 261.317 70.028C261.869 70.116 262.305 70.332 262.625 70.676C262.953 71.012 263.117 71.436 263.117 71.948C263.117 72.588 262.869 73.12 262.373 73.544C261.885 73.968 261.253 74.18 260.477 74.18C259.941 74.18 259.497 74.08 259.145 73.88C258.801 73.672 258.629 73.404 258.629 73.076C258.629 72.748 258.805 72.548 259.157 72.476C259.221 72.812 259.369 73.08 259.601 73.28C259.841 73.48 260.185 73.58 260.633 73.58C261.081 73.58 261.457 73.432 261.761 73.136C262.073 72.84 262.221 72.476 262.205 72.044C262.197 71.604 262.061 71.268 261.797 71.036C261.533 70.796 261.233 70.644 260.897 70.58C260.561 70.516 260.193 70.5 259.793 70.532L259.781 69.872C260.189 69.872 260.613 69.768 261.053 69.56ZM265.68 70.292C266.208 69.948 266.788 69.776 267.42 69.776C268.06 69.776 268.552 69.952 268.896 70.304C269.24 70.656 269.412 71.16 269.412 71.816C269.412 72.472 269.204 73.032 268.788 73.496C268.38 73.952 267.828 74.18 267.132 74.18C265.556 74.18 264.768 73.132 264.768 71.036C264.768 69.572 265.028 68.456 265.548 67.688C266.068 66.92 266.8 66.536 267.744 66.536C268.184 66.536 268.52 66.608 268.752 66.752C268.984 66.896 269.1 67.08 269.1 67.304C269.1 67.664 268.908 67.86 268.524 67.892C268.524 67.684 268.452 67.504 268.308 67.352C268.164 67.2 267.944 67.124 267.648 67.124C267.096 67.124 266.648 67.4 266.304 67.952C265.96 68.496 265.752 69.276 265.68 70.292ZM265.656 71.048C265.656 72.736 266.156 73.58 267.156 73.58C267.596 73.58 267.936 73.436 268.176 73.148C268.416 72.852 268.536 72.448 268.536 71.936C268.536 71.424 268.416 71.04 268.176 70.784C267.944 70.52 267.572 70.388 267.06 70.388C266.556 70.388 266.088 70.564 265.656 70.916V71.048ZM271.04 73.532C271.04 73.356 271.096 73.212 271.208 73.1C271.328 72.98 271.48 72.92 271.664 72.92C271.856 72.92 272.012 72.98 272.132 73.1C272.252 73.22 272.312 73.416 272.312 73.688C272.312 73.96 272.204 74.26 271.988 74.588C271.78 74.924 271.556 75.144 271.316 75.248C271.276 75.264 271.224 75.24 271.16 75.176C271.104 75.12 271.076 75.076 271.076 75.044C271.324 74.868 271.492 74.584 271.58 74.192C271.42 74.176 271.288 74.108 271.184 73.988C271.088 73.86 271.04 73.708 271.04 73.532ZM280.304 69.56C280.536 69.448 280.728 69.284 280.88 69.068C281.04 68.844 281.12 68.572 281.12 68.252C281.12 67.924 281.016 67.66 280.808 67.46C280.608 67.252 280.328 67.148 279.968 67.148C279.616 67.148 279.344 67.256 279.152 67.472C278.968 67.68 278.872 67.964 278.864 68.324C278.632 68.308 278.456 68.244 278.336 68.132C278.216 68.012 278.168 67.86 278.192 67.676C278.216 67.364 278.4 67.096 278.744 66.872C279.096 66.648 279.544 66.536 280.088 66.536C280.64 66.536 281.1 66.688 281.468 66.992C281.836 67.296 282.02 67.7 282.02 68.204C282.02 68.58 281.9 68.932 281.66 69.26C281.42 69.58 281.056 69.836 280.568 70.028C281.12 70.116 281.556 70.332 281.876 70.676C282.204 71.012 282.368 71.436 282.368 71.948C282.368 72.588 282.12 73.12 281.624 73.544C281.136 73.968 280.504 74.18 279.728 74.18C279.192 74.18 278.748 74.08 278.396 73.88C278.052 73.672 277.88 73.404 277.88 73.076C277.88 72.748 278.056 72.548 278.408 72.476C278.472 72.812 278.62 73.08 278.852 73.28C279.092 73.48 279.436 73.58 279.884 73.58C280.332 73.58 280.708 73.432 281.012 73.136C281.324 72.84 281.472 72.476 281.456 72.044C281.448 71.604 281.312 71.268 281.048 71.036C280.784 70.796 280.484 70.644 280.148 70.58C279.812 70.516 279.444 70.5 279.044 70.532L279.032 69.872C279.44 69.872 279.864 69.768 280.304 69.56ZM288.495 71.984C288.495 72.568 288.275 73.08 287.835 73.52C287.395 73.96 286.819 74.18 286.107 74.18C285.395 74.18 284.855 74.008 284.487 73.664C284.127 73.32 283.939 72.904 283.923 72.416C283.907 71.928 284.051 71.488 284.355 71.096C284.659 70.704 285.043 70.38 285.507 70.124C284.755 69.62 284.379 69.028 284.379 68.348C284.379 67.82 284.555 67.388 284.907 67.052C285.267 66.708 285.719 66.536 286.263 66.536C286.807 66.536 287.255 66.68 287.607 66.968C287.967 67.256 288.147 67.652 288.147 68.156C288.147 68.884 287.759 69.496 286.983 69.992C287.463 70.28 287.835 70.572 288.099 70.868C288.363 71.156 288.495 71.528 288.495 71.984ZM286.299 67.088C285.963 67.088 285.683 67.192 285.459 67.4C285.243 67.608 285.135 67.868 285.135 68.18C285.135 68.492 285.247 68.76 285.471 68.984C285.703 69.208 286.067 69.46 286.563 69.74C287.115 69.316 287.391 68.812 287.391 68.228C287.391 67.884 287.295 67.608 287.103 67.4C286.911 67.192 286.643 67.088 286.299 67.088ZM285.087 71.228C284.855 71.556 284.739 71.904 284.739 72.272C284.739 72.64 284.859 72.952 285.099 73.208C285.347 73.464 285.707 73.592 286.179 73.592C286.651 73.592 287.027 73.464 287.307 73.208C287.595 72.952 287.739 72.644 287.739 72.284C287.739 71.916 287.615 71.604 287.367 71.348C287.119 71.092 286.767 70.84 286.311 70.592L285.975 70.412C285.615 70.62 285.319 70.892 285.087 71.228ZM298.895 71.636V72.26H297.839V74L297.011 74.12V72.26H293.987C293.835 72.012 293.751 71.82 293.735 71.684L297.059 66.656C297.315 66.584 297.567 66.576 297.815 66.632L297.827 71.636H298.895ZM297.011 71.636V67.712L294.479 71.636H297.011ZM304.557 70.412C304.557 69.308 304.417 68.492 304.137 67.964C303.857 67.428 303.417 67.16 302.817 67.16C302.225 67.16 301.785 67.436 301.497 67.988C301.217 68.532 301.077 69.348 301.077 70.436C301.077 71.524 301.217 72.316 301.497 72.812C301.785 73.308 302.229 73.556 302.829 73.556C303.429 73.556 303.865 73.308 304.137 72.812C304.417 72.308 304.557 71.508 304.557 70.412ZM302.829 66.536C303.717 66.528 304.369 66.844 304.785 67.484C305.209 68.116 305.421 69.084 305.421 70.388C305.421 71.684 305.205 72.64 304.773 73.256C304.349 73.872 303.697 74.18 302.817 74.18C301.937 74.18 301.281 73.872 300.849 73.256C300.425 72.64 300.213 71.688 300.213 70.4C300.213 69.112 300.425 68.148 300.849 67.508C301.281 66.868 301.941 66.544 302.829 66.536ZM307.064 73.532C307.064 73.356 307.12 73.212 307.232 73.1C307.352 72.98 307.504 72.92 307.688 72.92C307.88 72.92 308.036 72.98 308.156 73.1C308.276 73.22 308.336 73.416 308.336 73.688C308.336 73.96 308.228 74.26 308.012 74.588C307.804 74.924 307.58 75.144 307.34 75.248C307.3 75.264 307.248 75.24 307.184 75.176C307.128 75.12 307.1 75.076 307.1 75.044C307.348 74.868 307.516 74.584 307.604 74.192C307.444 74.176 307.312 74.108 307.208 73.988C307.112 73.86 307.064 73.708 307.064 73.532ZM318.884 71.636V72.26H317.828V74L317 74.12V72.26H313.976C313.824 72.012 313.74 71.82 313.724 71.684L317.048 66.656C317.304 66.584 317.556 66.576 317.804 66.632L317.816 71.636H318.884ZM317 71.636V67.712L314.468 71.636H317ZM320.395 68.096C320.395 67.656 320.595 67.288 320.995 66.992C321.403 66.688 321.923 66.536 322.555 66.536C323.187 66.536 323.695 66.712 324.079 67.064C324.463 67.408 324.655 67.872 324.655 68.456C324.655 69.336 324.207 70.296 323.311 71.336C322.999 71.696 322.759 71.96 322.591 72.128C322.431 72.296 322.179 72.54 321.835 72.86C321.499 73.18 321.311 73.36 321.271 73.4L324.163 73.364L324.271 72.632C324.295 72.464 324.375 72.348 324.511 72.284C324.647 72.22 324.755 72.212 324.835 72.26V74H320.287C320.223 73.808 320.199 73.664 320.215 73.568C320.567 73.256 321.003 72.828 321.523 72.284C322.051 71.732 322.379 71.376 322.507 71.216C322.635 71.048 322.795 70.832 322.987 70.568C323.179 70.304 323.319 70.072 323.407 69.872C323.647 69.36 323.767 68.908 323.767 68.516C323.767 68.116 323.651 67.792 323.419 67.544C323.187 67.288 322.855 67.16 322.423 67.16C321.991 67.16 321.659 67.3 321.427 67.58C321.203 67.86 321.091 68.252 321.091 68.756C320.899 68.764 320.735 68.716 320.599 68.612C320.463 68.508 320.395 68.336 320.395 68.096ZM326.479 73.532C326.479 73.356 326.535 73.212 326.647 73.1C326.767 72.98 326.919 72.92 327.103 72.92C327.295 72.92 327.451 72.98 327.571 73.1C327.691 73.22 327.751 73.416 327.751 73.688C327.751 73.96 327.643 74.26 327.427 74.588C327.219 74.924 326.995 75.144 326.755 75.248C326.715 75.264 326.663 75.24 326.599 75.176C326.543 75.12 326.515 75.076 326.515 75.044C326.763 74.868 326.931 74.584 327.019 74.192C326.859 74.176 326.727 74.108 326.623 73.988C326.527 73.86 326.479 73.708 326.479 73.532ZM338.3 71.636V72.26H337.244V74L336.416 74.12V72.26H333.392C333.24 72.012 333.156 71.82 333.14 71.684L336.464 66.656C336.72 66.584 336.972 66.576 337.22 66.632L337.232 71.636H338.3ZM336.416 71.636V67.712L333.884 71.636H336.416ZM344.586 71.636V72.26H343.53V74L342.702 74.12V72.26H339.678C339.526 72.012 339.442 71.82 339.426 71.684L342.75 66.656C343.006 66.584 343.258 66.576 343.506 66.632L343.518 71.636H344.586ZM342.702 71.636V67.712L340.17 71.636H342.702ZM345.988 73.532C345.988 73.356 346.044 73.212 346.156 73.1C346.276 72.98 346.428 72.92 346.612 72.92C346.804 72.92 346.96 72.98 347.08 73.1C347.2 73.22 347.26 73.416 347.26 73.688C347.26 73.96 347.152 74.26 346.936 74.588C346.728 74.924 346.504 75.144 346.264 75.248C346.224 75.264 346.172 75.24 346.108 75.176C346.052 75.12 346.024 75.076 346.024 75.044C346.272 74.868 346.44 74.584 346.528 74.192C346.368 74.176 346.236 74.108 346.132 73.988C346.036 73.86 345.988 73.708 345.988 73.532ZM357.808 71.636V72.26H356.752V74L355.924 74.12V72.26H352.9C352.748 72.012 352.664 71.82 352.648 71.684L355.972 66.656C356.228 66.584 356.48 66.576 356.728 66.632L356.74 71.636H357.808ZM355.924 71.636V67.712L353.392 71.636H355.924ZM360.231 70.292C360.759 69.948 361.339 69.776 361.971 69.776C362.611 69.776 363.103 69.952 363.447 70.304C363.791 70.656 363.963 71.16 363.963 71.816C363.963 72.472 363.755 73.032 363.339 73.496C362.931 73.952 362.379 74.18 361.683 74.18C360.107 74.18 359.319 73.132 359.319 71.036C359.319 69.572 359.579 68.456 360.099 67.688C360.619 66.92 361.351 66.536 362.295 66.536C362.735 66.536 363.071 66.608 363.303 66.752C363.535 66.896 363.651 67.08 363.651 67.304C363.651 67.664 363.459 67.86 363.075 67.892C363.075 67.684 363.003 67.504 362.859 67.352C362.715 67.2 362.495 67.124 362.199 67.124C361.647 67.124 361.199 67.4 360.855 67.952C360.511 68.496 360.303 69.276 360.231 70.292ZM360.207 71.048C360.207 72.736 360.707 73.58 361.707 73.58C362.147 73.58 362.487 73.436 362.727 73.148C362.967 72.852 363.087 72.448 363.087 71.936C363.087 71.424 362.967 71.04 362.727 70.784C362.495 70.52 362.123 70.388 361.611 70.388C361.107 70.388 360.639 70.564 360.207 70.916V71.048Z" fill="black"/>
<path d="M222.832 91.56C223.064 91.448 223.256 91.284 223.408 91.068C223.568 90.844 223.648 90.572 223.648 90.252C223.648 89.924 223.544 89.66 223.336 89.46C223.136 89.252 222.856 89.148 222.496 89.148C222.144 89.148 221.872 89.256 221.68 89.472C221.496 89.68 221.4 89.964 221.392 90.324C221.16 90.308 220.984 90.244 220.864 90.132C220.744 90.012 220.696 89.86 220.72 89.676C220.744 89.364 220.928 89.096 221.272 88.872C221.624 88.648 222.072 88.536 222.616 88.536C223.168 88.536 223.628 88.688 223.996 88.992C224.364 89.296 224.548 89.7 224.548 90.204C224.548 90.58 224.428 90.932 224.188 91.26C223.948 91.58 223.584 91.836 223.096 92.028C223.648 92.116 224.084 92.332 224.404 92.676C224.732 93.012 224.896 93.436 224.896 93.948C224.896 94.588 224.648 95.12 224.152 95.544C223.664 95.968 223.032 96.18 222.256 96.18C221.72 96.18 221.276 96.08 220.924 95.88C220.58 95.672 220.408 95.404 220.408 95.076C220.408 94.748 220.584 94.548 220.936 94.476C221 94.812 221.148 95.08 221.38 95.28C221.62 95.48 221.964 95.58 222.412 95.58C222.86 95.58 223.236 95.432 223.54 95.136C223.852 94.84 224 94.476 223.984 94.044C223.976 93.604 223.84 93.268 223.576 93.036C223.312 92.796 223.012 92.644 222.676 92.58C222.34 92.516 221.972 92.5 221.572 92.532L221.56 91.872C221.968 91.872 222.392 91.768 222.832 91.56ZM226.547 90.096C226.547 89.656 226.747 89.288 227.147 88.992C227.555 88.688 228.075 88.536 228.707 88.536C229.339 88.536 229.847 88.712 230.231 89.064C230.615 89.408 230.807 89.872 230.807 90.456C230.807 91.336 230.359 92.296 229.463 93.336C229.151 93.696 228.911 93.96 228.743 94.128C228.583 94.296 228.331 94.54 227.987 94.86C227.651 95.18 227.463 95.36 227.423 95.4L230.315 95.364L230.423 94.632C230.447 94.464 230.527 94.348 230.663 94.284C230.799 94.22 230.907 94.212 230.987 94.26V96H226.439C226.375 95.808 226.351 95.664 226.367 95.568C226.719 95.256 227.155 94.828 227.675 94.284C228.203 93.732 228.531 93.376 228.659 93.216C228.787 93.048 228.947 92.832 229.139 92.568C229.331 92.304 229.471 92.072 229.559 91.872C229.799 91.36 229.919 90.908 229.919 90.516C229.919 90.116 229.803 89.792 229.571 89.544C229.339 89.288 229.007 89.16 228.575 89.16C228.143 89.16 227.811 89.3 227.579 89.58C227.355 89.86 227.243 90.252 227.243 90.756C227.051 90.764 226.887 90.716 226.751 90.612C226.615 90.508 226.547 90.336 226.547 90.096ZM232.632 95.532C232.632 95.356 232.688 95.212 232.8 95.1C232.92 94.98 233.072 94.92 233.256 94.92C233.448 94.92 233.604 94.98 233.724 95.1C233.844 95.22 233.904 95.416 233.904 95.688C233.904 95.96 233.796 96.26 233.58 96.588C233.372 96.924 233.148 97.144 232.908 97.248C232.868 97.264 232.816 97.24 232.752 97.176C232.696 97.12 232.668 97.076 232.668 97.044C232.916 96.868 233.084 96.584 233.172 96.192C233.012 96.176 232.88 96.108 232.776 95.988C232.68 95.86 232.632 95.708 232.632 95.532ZM241.896 91.56C242.128 91.448 242.32 91.284 242.472 91.068C242.632 90.844 242.712 90.572 242.712 90.252C242.712 89.924 242.608 89.66 242.4 89.46C242.2 89.252 241.92 89.148 241.56 89.148C241.208 89.148 240.936 89.256 240.744 89.472C240.56 89.68 240.464 89.964 240.456 90.324C240.224 90.308 240.048 90.244 239.928 90.132C239.808 90.012 239.76 89.86 239.784 89.676C239.808 89.364 239.992 89.096 240.336 88.872C240.688 88.648 241.136 88.536 241.68 88.536C242.232 88.536 242.692 88.688 243.06 88.992C243.428 89.296 243.612 89.7 243.612 90.204C243.612 90.58 243.492 90.932 243.252 91.26C243.012 91.58 242.648 91.836 242.16 92.028C242.712 92.116 243.148 92.332 243.468 92.676C243.796 93.012 243.96 93.436 243.96 93.948C243.96 94.588 243.712 95.12 243.216 95.544C242.728 95.968 242.096 96.18 241.32 96.18C240.784 96.18 240.34 96.08 239.988 95.88C239.644 95.672 239.472 95.404 239.472 95.076C239.472 94.748 239.648 94.548 240 94.476C240.064 94.812 240.212 95.08 240.444 95.28C240.684 95.48 241.028 95.58 241.476 95.58C241.924 95.58 242.3 95.432 242.604 95.136C242.916 94.84 243.064 94.476 243.048 94.044C243.04 93.604 242.904 93.268 242.64 93.036C242.376 92.796 242.076 92.644 241.74 92.58C241.404 92.516 241.036 92.5 240.636 92.532L240.624 91.872C241.032 91.872 241.456 91.768 241.896 91.56ZM250.386 93.636V94.26H249.33V96L248.502 96.12V94.26H245.478C245.326 94.012 245.242 93.82 245.226 93.684L248.55 88.656C248.806 88.584 249.058 88.576 249.306 88.632L249.318 93.636H250.386ZM248.502 93.636V89.712L245.97 93.636H248.502ZM251.789 95.532C251.789 95.356 251.845 95.212 251.957 95.1C252.077 94.98 252.229 94.92 252.413 94.92C252.605 94.92 252.761 94.98 252.881 95.1C253.001 95.22 253.061 95.416 253.061 95.688C253.061 95.96 252.953 96.26 252.737 96.588C252.529 96.924 252.305 97.144 252.065 97.248C252.025 97.264 251.973 97.24 251.909 97.176C251.853 97.12 251.825 97.076 251.825 97.044C252.073 96.868 252.241 96.584 252.329 96.192C252.169 96.176 252.037 96.108 251.933 95.988C251.837 95.86 251.789 95.708 251.789 95.532ZM261.053 91.56C261.285 91.448 261.477 91.284 261.629 91.068C261.789 90.844 261.869 90.572 261.869 90.252C261.869 89.924 261.765 89.66 261.557 89.46C261.357 89.252 261.077 89.148 260.717 89.148C260.365 89.148 260.093 89.256 259.901 89.472C259.717 89.68 259.621 89.964 259.613 90.324C259.381 90.308 259.205 90.244 259.085 90.132C258.965 90.012 258.917 89.86 258.941 89.676C258.965 89.364 259.149 89.096 259.493 88.872C259.845 88.648 260.293 88.536 260.837 88.536C261.389 88.536 261.849 88.688 262.217 88.992C262.585 89.296 262.769 89.7 262.769 90.204C262.769 90.58 262.649 90.932 262.409 91.26C262.169 91.58 261.805 91.836 261.317 92.028C261.869 92.116 262.305 92.332 262.625 92.676C262.953 93.012 263.117 93.436 263.117 93.948C263.117 94.588 262.869 95.12 262.373 95.544C261.885 95.968 261.253 96.18 260.477 96.18C259.941 96.18 259.497 96.08 259.145 95.88C258.801 95.672 258.629 95.404 258.629 95.076C258.629 94.748 258.805 94.548 259.157 94.476C259.221 94.812 259.369 95.08 259.601 95.28C259.841 95.48 260.185 95.58 260.633 95.58C261.081 95.58 261.457 95.432 261.761 95.136C262.073 94.84 262.221 94.476 262.205 94.044C262.197 93.604 262.061 93.268 261.797 93.036C261.533 92.796 261.233 92.644 260.897 92.58C260.561 92.516 260.193 92.5 259.793 92.532L259.781 91.872C260.189 91.872 260.613 91.768 261.053 91.56ZM265.68 92.292C266.208 91.948 266.788 91.776 267.42 91.776C268.06 91.776 268.552 91.952 268.896 92.304C269.24 92.656 269.412 93.16 269.412 93.816C269.412 94.472 269.204 95.032 268.788 95.496C268.38 95.952 267.828 96.18 267.132 96.18C265.556 96.18 264.768 95.132 264.768 93.036C264.768 91.572 265.028 90.456 265.548 89.688C266.068 88.92 266.8 88.536 267.744 88.536C268.184 88.536 268.52 88.608 268.752 88.752C268.984 88.896 269.1 89.08 269.1 89.304C269.1 89.664 268.908 89.86 268.524 89.892C268.524 89.684 268.452 89.504 268.308 89.352C268.164 89.2 267.944 89.124 267.648 89.124C267.096 89.124 266.648 89.4 266.304 89.952C265.96 90.496 265.752 91.276 265.68 92.292ZM265.656 93.048C265.656 94.736 266.156 95.58 267.156 95.58C267.596 95.58 267.936 95.436 268.176 95.148C268.416 94.852 268.536 94.448 268.536 93.936C268.536 93.424 268.416 93.04 268.176 92.784C267.944 92.52 267.572 92.388 267.06 92.388C266.556 92.388 266.088 92.564 265.656 92.916V93.048ZM271.04 95.532C271.04 95.356 271.096 95.212 271.208 95.1C271.328 94.98 271.48 94.92 271.664 94.92C271.856 94.92 272.012 94.98 272.132 95.1C272.252 95.22 272.312 95.416 272.312 95.688C272.312 95.96 272.204 96.26 271.988 96.588C271.78 96.924 271.556 97.144 271.316 97.248C271.276 97.264 271.224 97.24 271.16 97.176C271.104 97.12 271.076 97.076 271.076 97.044C271.324 96.868 271.492 96.584 271.58 96.192C271.42 96.176 271.288 96.108 271.184 95.988C271.088 95.86 271.04 95.708 271.04 95.532ZM280.304 91.56C280.536 91.448 280.728 91.284 280.88 91.068C281.04 90.844 281.12 90.572 281.12 90.252C281.12 89.924 281.016 89.66 280.808 89.46C280.608 89.252 280.328 89.148 279.968 89.148C279.616 89.148 279.344 89.256 279.152 89.472C278.968 89.68 278.872 89.964 278.864 90.324C278.632 90.308 278.456 90.244 278.336 90.132C278.216 90.012 278.168 89.86 278.192 89.676C278.216 89.364 278.4 89.096 278.744 88.872C279.096 88.648 279.544 88.536 280.088 88.536C280.64 88.536 281.1 88.688 281.468 88.992C281.836 89.296 282.02 89.7 282.02 90.204C282.02 90.58 281.9 90.932 281.66 91.26C281.42 91.58 281.056 91.836 280.568 92.028C281.12 92.116 281.556 92.332 281.876 92.676C282.204 93.012 282.368 93.436 282.368 93.948C282.368 94.588 282.12 95.12 281.624 95.544C281.136 95.968 280.504 96.18 279.728 96.18C279.192 96.18 278.748 96.08 278.396 95.88C278.052 95.672 277.88 95.404 277.88 95.076C277.88 94.748 278.056 94.548 278.408 94.476C278.472 94.812 278.62 95.08 278.852 95.28C279.092 95.48 279.436 95.58 279.884 95.58C280.332 95.58 280.708 95.432 281.012 95.136C281.324 94.84 281.472 94.476 281.456 94.044C281.448 93.604 281.312 93.268 281.048 93.036C280.784 92.796 280.484 92.644 280.148 92.58C279.812 92.516 279.444 92.5 279.044 92.532L279.032 91.872C279.44 91.872 279.864 91.768 280.304 91.56ZM288.495 93.984C288.495 94.568 288.275 95.08 287.835 95.52C287.395 95.96 286.819 96.18 286.107 96.18C285.395 96.18 284.855 96.008 284.487 95.664C284.127 95.32 283.939 94.904 283.923 94.416C283.907 93.928 284.051 93.488 284.355 93.096C284.659 92.704 285.043 92.38 285.507 92.124C284.755 91.62 284.379 91.028 284.379 90.348C284.379 89.82 284.555 89.388 284.907 89.052C285.267 88.708 285.719 88.536 286.263 88.536C286.807 88.536 287.255 88.68 287.607 88.968C287.967 89.256 288.147 89.652 288.147 90.156C288.147 90.884 287.759 91.496 286.983 91.992C287.463 92.28 287.835 92.572 288.099 92.868C288.363 93.156 288.495 93.528 288.495 93.984ZM286.299 89.088C285.963 89.088 285.683 89.192 285.459 89.4C285.243 89.608 285.135 89.868 285.135 90.18C285.135 90.492 285.247 90.76 285.471 90.984C285.703 91.208 286.067 91.46 286.563 91.74C287.115 91.316 287.391 90.812 287.391 90.228C287.391 89.884 287.295 89.608 287.103 89.4C286.911 89.192 286.643 89.088 286.299 89.088ZM285.087 93.228C284.855 93.556 284.739 93.904 284.739 94.272C284.739 94.64 284.859 94.952 285.099 95.208C285.347 95.464 285.707 95.592 286.179 95.592C286.651 95.592 287.027 95.464 287.307 95.208C287.595 94.952 287.739 94.644 287.739 94.284C287.739 93.916 287.615 93.604 287.367 93.348C287.119 93.092 286.767 92.84 286.311 92.592L285.975 92.412C285.615 92.62 285.319 92.892 285.087 93.228ZM298.895 93.636V94.26H297.839V96L297.011 96.12V94.26H293.987C293.835 94.012 293.751 93.82 293.735 93.684L297.059 88.656C297.315 88.584 297.567 88.576 297.815 88.632L297.827 93.636H298.895ZM297.011 93.636V89.712L294.479 93.636H297.011ZM304.557 92.412C304.557 91.308 304.417 90.492 304.137 89.964C303.857 89.428 303.417 89.16 302.817 89.16C302.225 89.16 301.785 89.436 301.497 89.988C301.217 90.532 301.077 91.348 301.077 92.436C301.077 93.524 301.217 94.316 301.497 94.812C301.785 95.308 302.229 95.556 302.829 95.556C303.429 95.556 303.865 95.308 304.137 94.812C304.417 94.308 304.557 93.508 304.557 92.412ZM302.829 88.536C303.717 88.528 304.369 88.844 304.785 89.484C305.209 90.116 305.421 91.084 305.421 92.388C305.421 93.684 305.205 94.64 304.773 95.256C304.349 95.872 303.697 96.18 302.817 96.18C301.937 96.18 301.281 95.872 300.849 95.256C300.425 94.64 300.213 93.688 300.213 92.4C300.213 91.112 300.425 90.148 300.849 89.508C301.281 88.868 301.941 88.544 302.829 88.536ZM307.064 95.532C307.064 95.356 307.12 95.212 307.232 95.1C307.352 94.98 307.504 94.92 307.688 94.92C307.88 94.92 308.036 94.98 308.156 95.1C308.276 95.22 308.336 95.416 308.336 95.688C308.336 95.96 308.228 96.26 308.012 96.588C307.804 96.924 307.58 97.144 307.34 97.248C307.3 97.264 307.248 97.24 307.184 97.176C307.128 97.12 307.1 97.076 307.1 97.044C307.348 96.868 307.516 96.584 307.604 96.192C307.444 96.176 307.312 96.108 307.208 95.988C307.112 95.86 307.064 95.708 307.064 95.532ZM318.884 93.636V94.26H317.828V96L317 96.12V94.26H313.976C313.824 94.012 313.74 93.82 313.724 93.684L317.048 88.656C317.304 88.584 317.556 88.576 317.804 88.632L317.816 93.636H318.884ZM317 93.636V89.712L314.468 93.636H317ZM320.395 90.096C320.395 89.656 320.595 89.288 320.995 88.992C321.403 88.688 321.923 88.536 322.555 88.536C323.187 88.536 323.695 88.712 324.079 89.064C324.463 89.408 324.655 89.872 324.655 90.456C324.655 91.336 324.207 92.296 323.311 93.336C322.999 93.696 322.759 93.96 322.591 94.128C322.431 94.296 322.179 94.54 321.835 94.86C321.499 95.18 321.311 95.36 321.271 95.4L324.163 95.364L324.271 94.632C324.295 94.464 324.375 94.348 324.511 94.284C324.647 94.22 324.755 94.212 324.835 94.26V96H320.287C320.223 95.808 320.199 95.664 320.215 95.568C320.567 95.256 321.003 94.828 321.523 94.284C322.051 93.732 322.379 93.376 322.507 93.216C322.635 93.048 322.795 92.832 322.987 92.568C323.179 92.304 323.319 92.072 323.407 91.872C323.647 91.36 323.767 90.908 323.767 90.516C323.767 90.116 323.651 89.792 323.419 89.544C323.187 89.288 322.855 89.16 322.423 89.16C321.991 89.16 321.659 89.3 321.427 89.58C321.203 89.86 321.091 90.252 321.091 90.756C320.899 90.764 320.735 90.716 320.599 90.612C320.463 90.508 320.395 90.336 320.395 90.096ZM326.479 95.532C326.479 95.356 326.535 95.212 326.647 95.1C326.767 94.98 326.919 94.92 327.103 94.92C327.295 94.92 327.451 94.98 327.571 95.1C327.691 95.22 327.751 95.416 327.751 95.688C327.751 95.96 327.643 96.26 327.427 96.588C327.219 96.924 326.995 97.144 326.755 97.248C326.715 97.264 326.663 97.24 326.599 97.176C326.543 97.12 326.515 97.076 326.515 97.044C326.763 96.868 326.931 96.584 327.019 96.192C326.859 96.176 326.727 96.108 326.623 95.988C326.527 95.86 326.479 95.708 326.479 95.532ZM338.3 93.636V94.26H337.244V96L336.416 96.12V94.26H333.392C333.24 94.012 333.156 93.82 333.14 93.684L336.464 88.656C336.72 88.584 336.972 88.576 337.22 88.632L337.232 93.636H338.3ZM336.416 93.636V89.712L333.884 93.636H336.416ZM344.586 93.636V94.26H343.53V96L342.702 96.12V94.26H339.678C339.526 94.012 339.442 93.82 339.426 93.684L342.75 88.656C343.006 88.584 343.258 88.576 343.506 88.632L343.518 93.636H344.586ZM342.702 93.636V89.712L340.17 93.636H342.702ZM345.988 95.532C345.988 95.356 346.044 95.212 346.156 95.1C346.276 94.98 346.428 94.92 346.612 94.92C346.804 94.92 346.96 94.98 347.08 95.1C347.2 95.22 347.26 95.416 347.26 95.688C347.26 95.96 347.152 96.26 346.936 96.588C346.728 96.924 346.504 97.144 346.264 97.248C346.224 97.264 346.172 97.24 346.108 97.176C346.052 97.12 346.024 97.076 346.024 97.044C346.272 96.868 346.44 96.584 346.528 96.192C346.368 96.176 346.236 96.108 346.132 95.988C346.036 95.86 345.988 95.708 345.988 95.532ZM357.808 93.636V94.26H356.752V96L355.924 96.12V94.26H352.9C352.748 94.012 352.664 93.82 352.648 93.684L355.972 88.656C356.228 88.584 356.48 88.576 356.728 88.632L356.74 93.636H357.808ZM355.924 93.636V89.712L353.392 93.636H355.924ZM360.231 92.292C360.759 91.948 361.339 91.776 361.971 91.776C362.611 91.776 363.103 91.952 363.447 92.304C363.791 92.656 363.963 93.16 363.963 93.816C363.963 94.472 363.755 95.032 363.339 95.496C362.931 95.952 362.379 96.18 361.683 96.18C360.107 96.18 359.319 95.132 359.319 93.036C359.319 91.572 359.579 90.456 360.099 89.688C360.619 88.92 361.351 88.536 362.295 88.536C362.735 88.536 363.071 88.608 363.303 88.752C363.535 88.896 363.651 89.08 363.651 89.304C363.651 89.664 363.459 89.86 363.075 89.892C363.075 89.684 363.003 89.504 362.859 89.352C362.715 89.2 362.495 89.124 362.199 89.124C361.647 89.124 361.199 89.4 360.855 89.952C360.511 90.496 360.303 91.276 360.231 92.292ZM360.207 93.048C360.207 94.736 360.707 95.58 361.707 95.58C362.147 95.58 362.487 95.436 362.727 95.148C362.967 94.852 363.087 94.448 363.087 93.936C363.087 93.424 362.967 93.04 362.727 92.784C362.495 92.52 362.123 92.388 361.611 92.388C361.107 92.388 360.639 92.564 360.207 92.916V93.048Z" fill="black"/>
</svg>
