<svg width="204" height="149" viewBox="0 0 204 149" fill="none" xmlns="http://www.w3.org/2000/svg">
<rect width="204" height="149" fill="#479B29"/>
<path d="M45.188 104V96.464H47.612C48.44 96.464 49.072 96.674 49.508 97.094C49.948 97.51 50.168 98.076 50.168 98.792C50.168 99.5 49.948 100.062 49.508 100.478C49.072 100.89 48.44 101.096 47.612 101.096H46.136V104H45.188ZM46.136 100.28H47.612C48.136 100.28 48.532 100.146 48.8 99.878C49.072 99.61 49.208 99.248 49.208 98.792C49.208 98.328 49.072 97.958 48.8 97.682C48.532 97.406 48.136 97.268 47.612 97.268H46.136V100.28ZM56.4765 98.252H57.4125V104H56.4765V98.252ZM52.4085 98.252H53.3445V101.828C53.3445 102.308 53.4605 102.672 53.6925 102.92C53.9285 103.168 54.2645 103.292 54.7005 103.292C55.0605 103.292 55.3725 103.196 55.6365 103.004C55.9045 102.812 56.1105 102.548 56.2545 102.212C56.4025 101.872 56.4765 101.484 56.4765 101.048H56.8245C56.8245 101.692 56.7305 102.242 56.5425 102.698C56.3585 103.154 56.0965 103.504 55.7565 103.748C55.4205 103.988 55.0245 104.108 54.5685 104.108C54.1365 104.108 53.7585 104.028 53.4345 103.868C53.1105 103.708 52.8585 103.466 52.6785 103.142C52.4985 102.814 52.4085 102.4 52.4085 101.9V98.252ZM62.3262 104.144C62.0142 104.144 61.7342 104.084 61.4862 103.964C61.2382 103.844 61.0422 103.664 60.8982 103.424C60.7542 103.184 60.6822 102.884 60.6822 102.524V96.668H61.6062V102.5C61.6062 103.092 61.8822 103.388 62.4342 103.388C62.5982 103.388 62.7562 103.37 62.9082 103.334C63.0642 103.298 63.2382 103.244 63.4302 103.172L63.5622 103.844C63.3582 103.932 63.1542 104.004 62.9502 104.06C62.7502 104.116 62.5422 104.144 62.3262 104.144ZM59.7582 98.912V98.264H63.4182V98.912H59.7582ZM67.5579 104.144C67.2459 104.144 66.9659 104.084 66.7179 103.964C66.4699 103.844 66.2739 103.664 66.1299 103.424C65.9859 103.184 65.9139 102.884 65.9139 102.524V96.668H66.8379V102.5C66.8379 103.092 67.1139 103.388 67.6659 103.388C67.8299 103.388 67.9879 103.37 68.1399 103.334C68.2959 103.298 68.4699 103.244 68.6619 103.172L68.7939 103.844C68.5899 103.932 68.3859 104.004 68.1819 104.06C67.9819 104.116 67.7739 104.144 67.5579 104.144ZM64.9899 98.912V98.264H68.6499V98.912H64.9899ZM78.6889 96.908C78.4969 96.908 78.3449 96.854 78.2329 96.746C78.1209 96.634 78.0649 96.488 78.0649 96.308C78.0649 96.132 78.1209 95.992 78.2329 95.888C78.3449 95.784 78.4969 95.732 78.6889 95.732C78.8809 95.732 79.0329 95.784 79.1449 95.888C79.2569 95.992 79.3129 96.132 79.3129 96.308C79.3129 96.488 79.2569 96.634 79.1449 96.746C79.0329 96.854 78.8809 96.908 78.6889 96.908ZM78.2209 104V98.252H79.1569V104H78.2209ZM89.9228 98.252H90.8588V104H89.9228V98.252ZM85.8548 98.252H86.7908V101.828C86.7908 102.308 86.9068 102.672 87.1388 102.92C87.3748 103.168 87.7108 103.292 88.1468 103.292C88.5068 103.292 88.8188 103.196 89.0828 103.004C89.3508 102.812 89.5568 102.548 89.7008 102.212C89.8488 101.872 89.9228 101.484 89.9228 101.048H90.2708C90.2708 101.692 90.1768 102.242 89.9888 102.698C89.8048 103.154 89.5428 103.504 89.2028 103.748C88.8668 103.988 88.4708 104.108 88.0148 104.108C87.5828 104.108 87.2048 104.028 86.8808 103.868C86.5568 103.708 86.3048 103.466 86.1248 103.142C85.9448 102.814 85.8548 102.4 85.8548 101.9V98.252ZM102.072 104V100.628C102.072 100.08 101.94 99.664 101.676 99.38C101.416 99.092 101.064 98.948 100.62 98.948C100.1 98.948 99.7024 99.15 99.4264 99.554C99.1504 99.954 99.0124 100.508 99.0124 101.216H98.5804C98.5804 100.7 98.6304 100.248 98.7304 99.86C98.8344 99.472 98.9844 99.15 99.1804 98.894C99.3764 98.634 99.6144 98.44 99.8944 98.312C100.174 98.184 100.492 98.12 100.848 98.12C101.3 98.12 101.686 98.222 102.006 98.426C102.33 98.626 102.578 98.914 102.75 99.29C102.922 99.666 103.008 100.112 103.008 100.628V104H102.072ZM94.0084 104V98.264H94.8124L94.9204 99.416C95.1004 99 95.3524 98.68 95.6764 98.456C96.0044 98.232 96.3964 98.12 96.8524 98.12C97.3044 98.12 97.6904 98.222 98.0104 98.426C98.3344 98.626 98.5824 98.914 98.7544 99.29C98.9264 99.666 99.0124 100.112 99.0124 100.628V104H98.0884V100.628C98.0884 100.08 97.9564 99.664 97.6924 99.38C97.4324 99.092 97.0764 98.948 96.6244 98.948C96.2804 98.948 95.9824 99.042 95.7304 99.23C95.4784 99.418 95.2844 99.688 95.1484 100.04C95.0124 100.388 94.9444 100.804 94.9444 101.288V104H94.0084ZM105.955 104V95.816H106.891V104H105.955ZM112.03 104.144C111.534 104.144 111.09 104.018 110.698 103.766C110.31 103.51 110.002 103.156 109.774 102.704C109.55 102.252 109.438 101.732 109.438 101.144C109.438 100.516 109.55 99.976 109.774 99.524C109.998 99.072 110.304 98.726 110.692 98.486C111.084 98.242 111.53 98.12 112.03 98.12C112.466 98.12 112.838 98.208 113.146 98.384C113.454 98.56 113.702 98.798 113.89 99.098C114.078 99.398 114.208 99.738 114.28 100.118C114.356 100.494 114.378 100.884 114.346 101.288H110.194V100.712H113.728L113.452 100.892C113.464 100.656 113.45 100.42 113.41 100.184C113.374 99.948 113.304 99.732 113.2 99.536C113.096 99.336 112.95 99.176 112.762 99.056C112.574 98.936 112.334 98.876 112.042 98.876C111.674 98.876 111.366 98.97 111.118 99.158C110.87 99.346 110.684 99.594 110.56 99.902C110.436 100.206 110.374 100.536 110.374 100.892V101.276C110.374 101.676 110.434 102.034 110.554 102.35C110.678 102.666 110.862 102.916 111.106 103.1C111.35 103.284 111.658 103.376 112.03 103.376C112.402 103.376 112.708 103.286 112.948 103.106C113.188 102.926 113.334 102.66 113.386 102.308H114.358C114.298 102.688 114.162 103.016 113.95 103.292C113.738 103.564 113.468 103.774 113.14 103.922C112.812 104.07 112.442 104.144 112.03 104.144ZM128.554 104V100.628C128.554 100.08 128.422 99.664 128.158 99.38C127.898 99.092 127.546 98.948 127.102 98.948C126.582 98.948 126.184 99.15 125.908 99.554C125.632 99.954 125.494 100.508 125.494 101.216H125.062C125.062 100.7 125.112 100.248 125.212 99.86C125.316 99.472 125.466 99.15 125.662 98.894C125.858 98.634 126.096 98.44 126.376 98.312C126.656 98.184 126.974 98.12 127.33 98.12C127.782 98.12 128.168 98.222 128.488 98.426C128.812 98.626 129.06 98.914 129.232 99.29C129.404 99.666 129.49 100.112 129.49 100.628V104H128.554ZM120.49 104V98.264H121.294L121.402 99.416C121.582 99 121.834 98.68 122.158 98.456C122.486 98.232 122.878 98.12 123.334 98.12C123.786 98.12 124.172 98.222 124.492 98.426C124.816 98.626 125.064 98.914 125.236 99.29C125.408 99.666 125.494 100.112 125.494 100.628V104H124.57V100.628C124.57 100.08 124.438 99.664 124.174 99.38C123.914 99.092 123.558 98.948 123.106 98.948C122.762 98.948 122.464 99.042 122.212 99.23C121.96 99.418 121.766 99.688 121.63 100.04C121.494 100.388 121.426 100.804 121.426 101.288V104H120.49ZM136.337 98.252H137.273V104H136.337V98.252ZM132.269 98.252H133.205V101.828C133.205 102.308 133.321 102.672 133.553 102.92C133.789 103.168 134.125 103.292 134.561 103.292C134.921 103.292 135.233 103.196 135.497 103.004C135.765 102.812 135.971 102.548 136.115 102.212C136.263 101.872 136.337 101.484 136.337 101.048H136.685C136.685 101.692 136.591 102.242 136.403 102.698C136.219 103.154 135.957 103.504 135.617 103.748C135.281 103.988 134.885 104.108 134.429 104.108C133.997 104.108 133.619 104.028 133.295 103.868C132.971 103.708 132.719 103.466 132.539 103.142C132.359 102.814 132.269 102.4 132.269 101.9V98.252ZM148.486 104V100.628C148.486 100.08 148.354 99.664 148.09 99.38C147.83 99.092 147.478 98.948 147.034 98.948C146.514 98.948 146.116 99.15 145.84 99.554C145.564 99.954 145.426 100.508 145.426 101.216H144.994C144.994 100.7 145.044 100.248 145.144 99.86C145.248 99.472 145.398 99.15 145.594 98.894C145.79 98.634 146.028 98.44 146.308 98.312C146.588 98.184 146.906 98.12 147.262 98.12C147.714 98.12 148.1 98.222 148.42 98.426C148.744 98.626 148.992 98.914 149.164 99.29C149.336 99.666 149.422 100.112 149.422 100.628V104H148.486ZM140.422 104V98.264H141.226L141.334 99.416C141.514 99 141.766 98.68 142.09 98.456C142.418 98.232 142.81 98.12 143.266 98.12C143.718 98.12 144.104 98.222 144.424 98.426C144.748 98.626 144.996 98.914 145.168 99.29C145.34 99.666 145.426 100.112 145.426 100.628V104H144.502V100.628C144.502 100.08 144.37 99.664 144.106 99.38C143.846 99.092 143.49 98.948 143.038 98.948C142.694 98.948 142.396 99.042 142.144 99.23C141.892 99.418 141.698 99.688 141.562 100.04C141.426 100.388 141.358 100.804 141.358 101.288V104H140.422ZM152.369 104V95.816H153.305V104H152.369ZM158.444 104.144C157.948 104.144 157.504 104.018 157.112 103.766C156.724 103.51 156.416 103.156 156.188 102.704C155.964 102.252 155.852 101.732 155.852 101.144C155.852 100.516 155.964 99.976 156.188 99.524C156.412 99.072 156.718 98.726 157.106 98.486C157.498 98.242 157.944 98.12 158.444 98.12C158.88 98.12 159.252 98.208 159.56 98.384C159.868 98.56 160.116 98.798 160.304 99.098C160.492 99.398 160.622 99.738 160.694 100.118C160.77 100.494 160.792 100.884 160.76 101.288H156.608V100.712H160.142L159.866 100.892C159.878 100.656 159.864 100.42 159.824 100.184C159.788 99.948 159.718 99.732 159.614 99.536C159.51 99.336 159.364 99.176 159.176 99.056C158.988 98.936 158.748 98.876 158.456 98.876C158.088 98.876 157.78 98.97 157.532 99.158C157.284 99.346 157.098 99.594 156.974 99.902C156.85 100.206 156.788 100.536 156.788 100.892V101.276C156.788 101.676 156.848 102.034 156.968 102.35C157.092 102.666 157.276 102.916 157.52 103.1C157.764 103.284 158.072 103.376 158.444 103.376C158.816 103.376 159.122 103.286 159.362 103.106C159.602 102.926 159.748 102.66 159.8 102.308H160.772C160.712 102.688 160.576 103.016 160.364 103.292C160.152 103.564 159.882 103.774 159.554 103.922C159.226 104.07 158.856 104.144 158.444 104.144ZM162.484 103.442C162.484 103.254 162.55 103.092 162.682 102.956C162.814 102.82 162.98 102.752 163.18 102.752C163.38 102.752 163.55 102.82 163.69 102.956C163.83 103.092 163.9 103.254 163.9 103.442C163.9 103.63 163.83 103.788 163.69 103.916C163.55 104.044 163.38 104.108 163.18 104.108C162.98 104.108 162.814 104.044 162.682 103.916C162.55 103.784 162.484 103.626 162.484 103.442ZM49.544 110.464H50.84L46.028 115.42V114.1L49.544 110.464ZM47.384 113.644L51.044 118H49.82L46.712 114.256L47.384 113.644ZM45.212 110.464H46.16V118H45.212V110.464ZM53.9291 110.908C53.7371 110.908 53.5871 110.854 53.4791 110.746C53.3711 110.634 53.3171 110.488 53.3171 110.308C53.3171 110.132 53.3711 109.992 53.4791 109.888C53.5871 109.784 53.7371 109.732 53.9291 109.732C54.1211 109.732 54.2731 109.784 54.3851 109.888C54.4971 109.992 54.5531 110.132 54.5531 110.308C54.5531 110.488 54.4971 110.634 54.3851 110.746C54.2731 110.854 54.1211 110.908 53.9291 110.908ZM52.5851 120.952C52.3091 120.952 52.0411 120.914 51.7811 120.838C51.5211 120.766 51.2531 120.656 50.9771 120.508L51.0251 119.692C51.2611 119.824 51.4931 119.93 51.7211 120.01C51.9451 120.094 52.1771 120.136 52.4171 120.136C52.7531 120.136 53.0131 120.028 53.1971 119.812C53.3811 119.596 53.4731 119.26 53.4731 118.804V112.24H54.3971V118.816C54.3971 119.576 54.2291 120.122 53.8931 120.454C53.5611 120.786 53.1251 120.952 52.5851 120.952ZM59.7788 118.144C59.2628 118.144 58.8028 118.03 58.3988 117.802C57.9988 117.574 57.6828 117.236 57.4508 116.788C57.2188 116.34 57.1028 115.788 57.1028 115.132C57.1028 114.472 57.2188 113.92 57.4508 113.476C57.6828 113.028 57.9988 112.69 58.3988 112.462C58.8028 112.234 59.2628 112.12 59.7788 112.12C60.2908 112.12 60.7468 112.234 61.1468 112.462C61.5508 112.69 61.8668 113.028 62.0948 113.476C62.3268 113.92 62.4428 114.472 62.4428 115.132C62.4428 115.788 62.3268 116.34 62.0948 116.788C61.8668 117.236 61.5508 117.574 61.1468 117.802C60.7468 118.03 60.2908 118.144 59.7788 118.144ZM59.7548 117.328C60.1268 117.328 60.4428 117.24 60.7028 117.064C60.9628 116.884 61.1588 116.63 61.2908 116.302C61.4268 115.974 61.4948 115.584 61.4948 115.132C61.4948 114.448 61.3528 113.91 61.0688 113.518C60.7848 113.122 60.3628 112.924 59.8028 112.924C59.4268 112.924 59.1088 113.014 58.8488 113.194C58.5928 113.37 58.3968 113.624 58.2608 113.956C58.1288 114.284 58.0628 114.676 58.0628 115.132C58.0628 115.808 58.2048 116.344 58.4888 116.74C58.7768 117.132 59.1988 117.328 59.7548 117.328ZM56.9528 118L61.7528 112.258H62.6228L57.8048 118H56.9528ZM67.5893 118.144C67.1693 118.144 66.8033 118.048 66.4913 117.856C66.1833 117.664 65.9453 117.384 65.7773 117.016C65.6093 116.644 65.5253 116.192 65.5253 115.66H65.9213C65.9213 116.016 65.9953 116.316 66.1433 116.56C66.2913 116.804 66.4833 116.99 66.7193 117.118C66.9593 117.242 67.2133 117.304 67.4813 117.304C67.7693 117.304 68.0453 117.222 68.3093 117.058C68.5733 116.89 68.7893 116.644 68.9573 116.32C69.1253 115.996 69.2093 115.596 69.2093 115.12C69.2093 114.664 69.1313 114.274 68.9753 113.95C68.8233 113.626 68.6173 113.378 68.3573 113.206C68.0973 113.034 67.8093 112.948 67.4933 112.948C67.2213 112.948 66.9653 113.014 66.7253 113.146C66.4853 113.278 66.2913 113.472 66.1433 113.728C65.9953 113.98 65.9213 114.292 65.9213 114.664H65.5253C65.5253 114.108 65.6173 113.642 65.8013 113.266C65.9853 112.886 66.2353 112.6 66.5513 112.408C66.8673 112.216 67.2213 112.12 67.6133 112.12C68.0613 112.12 68.4793 112.24 68.8673 112.48C69.2553 112.72 69.5693 113.064 69.8093 113.512C70.0493 113.96 70.1693 114.496 70.1693 115.12C70.1693 115.752 70.0473 116.294 69.8033 116.746C69.5633 117.198 69.2473 117.544 68.8553 117.784C68.4633 118.024 68.0413 118.144 67.5893 118.144ZM64.9853 120.82V112.264H65.7653L65.9213 113.608V120.82H64.9853ZM74.7168 118.144C74.2208 118.144 73.7768 118.018 73.3848 117.766C72.9968 117.51 72.6888 117.156 72.4608 116.704C72.2368 116.252 72.1248 115.732 72.1248 115.144C72.1248 114.516 72.2368 113.976 72.4608 113.524C72.6848 113.072 72.9908 112.726 73.3788 112.486C73.7708 112.242 74.2168 112.12 74.7168 112.12C75.1528 112.12 75.5248 112.208 75.8328 112.384C76.1408 112.56 76.3888 112.798 76.5768 113.098C76.7648 113.398 76.8948 113.738 76.9668 114.118C77.0428 114.494 77.0648 114.884 77.0328 115.288H72.8808V114.712H76.4148L76.1388 114.892C76.1508 114.656 76.1368 114.42 76.0968 114.184C76.0608 113.948 75.9908 113.732 75.8868 113.536C75.7828 113.336 75.6368 113.176 75.4488 113.056C75.2608 112.936 75.0208 112.876 74.7288 112.876C74.3608 112.876 74.0528 112.97 73.8048 113.158C73.5568 113.346 73.3708 113.594 73.2468 113.902C73.1228 114.206 73.0608 114.536 73.0608 114.892V115.276C73.0608 115.676 73.1208 116.034 73.2408 116.35C73.3648 116.666 73.5488 116.916 73.7928 117.1C74.0368 117.284 74.3448 117.376 74.7168 117.376C75.0888 117.376 75.3948 117.286 75.6348 117.106C75.8748 116.926 76.0208 116.66 76.0728 116.308H77.0448C76.9848 116.688 76.8488 117.016 76.6368 117.292C76.4248 117.564 76.1548 117.774 75.8268 117.922C75.4988 118.07 75.1288 118.144 74.7168 118.144ZM83.1765 118V109.816H84.1125V118H83.1765ZM83.9685 114.712L86.8965 112.264H88.2045L83.9685 115.708V114.712ZM87.1845 118L84.4605 114.376L85.4085 114.208L88.3365 118H87.1845ZM91.2725 110.908C91.0805 110.908 90.9305 110.854 90.8225 110.746C90.7145 110.634 90.6605 110.488 90.6605 110.308C90.6605 110.132 90.7145 109.992 90.8225 109.888C90.9305 109.784 91.0805 109.732 91.2725 109.732C91.4645 109.732 91.6165 109.784 91.7285 109.888C91.8405 109.992 91.8965 110.132 91.8965 110.308C91.8965 110.488 91.8405 110.634 91.7285 110.746C91.6165 110.854 91.4645 110.908 91.2725 110.908ZM89.9285 120.952C89.6525 120.952 89.3845 120.914 89.1245 120.838C88.8645 120.766 88.5965 120.656 88.3205 120.508L88.3685 119.692C88.6045 119.824 88.8365 119.93 89.0645 120.01C89.2885 120.094 89.5205 120.136 89.7605 120.136C90.0965 120.136 90.3565 120.028 90.5405 119.812C90.7245 119.596 90.8165 119.26 90.8165 118.804V112.24H91.7405V118.816C91.7405 119.576 91.5725 120.122 91.2365 120.454C90.9045 120.786 90.4685 120.952 89.9285 120.952ZM97.1222 118.144C96.6062 118.144 96.1462 118.03 95.7422 117.802C95.3422 117.574 95.0262 117.236 94.7942 116.788C94.5622 116.34 94.4462 115.788 94.4462 115.132C94.4462 114.472 94.5622 113.92 94.7942 113.476C95.0262 113.028 95.3422 112.69 95.7422 112.462C96.1462 112.234 96.6062 112.12 97.1222 112.12C97.6342 112.12 98.0902 112.234 98.4902 112.462C98.8942 112.69 99.2102 113.028 99.4382 113.476C99.6702 113.92 99.7862 114.472 99.7862 115.132C99.7862 115.788 99.6702 116.34 99.4382 116.788C99.2102 117.236 98.8942 117.574 98.4902 117.802C98.0902 118.03 97.6342 118.144 97.1222 118.144ZM97.0982 117.328C97.4702 117.328 97.7862 117.24 98.0462 117.064C98.3062 116.884 98.5022 116.63 98.6342 116.302C98.7702 115.974 98.8382 115.584 98.8382 115.132C98.8382 114.448 98.6962 113.91 98.4122 113.518C98.1282 113.122 97.7062 112.924 97.1462 112.924C96.7702 112.924 96.4522 113.014 96.1922 113.194C95.9362 113.37 95.7402 113.624 95.6042 113.956C95.4722 114.284 95.4062 114.676 95.4062 115.132C95.4062 115.808 95.5482 116.344 95.8322 116.74C96.1202 117.132 96.5422 117.328 97.0982 117.328ZM94.2962 118L99.0962 112.258H99.9662L95.1482 118H94.2962ZM104.933 118.144C104.513 118.144 104.147 118.048 103.835 117.856C103.527 117.664 103.289 117.384 103.121 117.016C102.953 116.644 102.869 116.192 102.869 115.66H103.265C103.265 116.016 103.339 116.316 103.487 116.56C103.635 116.804 103.827 116.99 104.063 117.118C104.303 117.242 104.557 117.304 104.825 117.304C105.113 117.304 105.389 117.222 105.653 117.058C105.917 116.89 106.133 116.644 106.301 116.32C106.469 115.996 106.553 115.596 106.553 115.12C106.553 114.664 106.475 114.274 106.319 113.95C106.167 113.626 105.961 113.378 105.701 113.206C105.441 113.034 105.153 112.948 104.837 112.948C104.565 112.948 104.309 113.014 104.069 113.146C103.829 113.278 103.635 113.472 103.487 113.728C103.339 113.98 103.265 114.292 103.265 114.664H102.869C102.869 114.108 102.961 113.642 103.145 113.266C103.329 112.886 103.579 112.6 103.895 112.408C104.211 112.216 104.565 112.12 104.957 112.12C105.405 112.12 105.823 112.24 106.211 112.48C106.599 112.72 106.913 113.064 107.153 113.512C107.393 113.96 107.513 114.496 107.513 115.12C107.513 115.752 107.391 116.294 107.147 116.746C106.907 117.198 106.591 117.544 106.199 117.784C105.807 118.024 105.385 118.144 104.933 118.144ZM102.329 120.82V112.264H103.109L103.265 113.608V120.82H102.329ZM112.672 118.144C112.252 118.144 111.886 118.048 111.574 117.856C111.266 117.664 111.028 117.384 110.86 117.016C110.692 116.644 110.608 116.192 110.608 115.66H111.004C111.004 116.016 111.078 116.316 111.226 116.56C111.374 116.804 111.566 116.99 111.802 117.118C112.042 117.242 112.296 117.304 112.564 117.304C112.852 117.304 113.128 117.222 113.392 117.058C113.656 116.89 113.872 116.644 114.04 116.32C114.208 115.996 114.292 115.596 114.292 115.12C114.292 114.664 114.214 114.274 114.058 113.95C113.906 113.626 113.7 113.378 113.44 113.206C113.18 113.034 112.892 112.948 112.576 112.948C112.304 112.948 112.048 113.014 111.808 113.146C111.568 113.278 111.374 113.472 111.226 113.728C111.078 113.98 111.004 114.292 111.004 114.664H110.608C110.608 114.108 110.7 113.642 110.884 113.266C111.068 112.886 111.318 112.6 111.634 112.408C111.95 112.216 112.304 112.12 112.696 112.12C113.144 112.12 113.562 112.24 113.95 112.48C114.338 112.72 114.652 113.064 114.892 113.512C115.132 113.96 115.252 114.496 115.252 115.12C115.252 115.752 115.13 116.294 114.886 116.746C114.646 117.198 114.33 117.544 113.938 117.784C113.546 118.024 113.124 118.144 112.672 118.144ZM110.068 120.82V112.264H110.848L111.004 113.608V120.82H110.068ZM119.8 118.144C119.304 118.144 118.86 118.018 118.468 117.766C118.08 117.51 117.772 117.156 117.544 116.704C117.32 116.252 117.208 115.732 117.208 115.144C117.208 114.516 117.32 113.976 117.544 113.524C117.768 113.072 118.074 112.726 118.462 112.486C118.854 112.242 119.3 112.12 119.8 112.12C120.236 112.12 120.608 112.208 120.916 112.384C121.224 112.56 121.472 112.798 121.66 113.098C121.848 113.398 121.978 113.738 122.05 114.118C122.126 114.494 122.148 114.884 122.116 115.288H117.964V114.712H121.498L121.222 114.892C121.234 114.656 121.22 114.42 121.18 114.184C121.144 113.948 121.074 113.732 120.97 113.536C120.866 113.336 120.72 113.176 120.532 113.056C120.344 112.936 120.104 112.876 119.812 112.876C119.444 112.876 119.136 112.97 118.888 113.158C118.64 113.346 118.454 113.594 118.33 113.902C118.206 114.206 118.144 114.536 118.144 114.892V115.276C118.144 115.676 118.204 116.034 118.324 116.35C118.448 116.666 118.632 116.916 118.876 117.1C119.12 117.284 119.428 117.376 119.8 117.376C120.172 117.376 120.478 117.286 120.718 117.106C120.958 116.926 121.104 116.66 121.156 116.308H122.128C122.068 116.688 121.932 117.016 121.72 117.292C121.508 117.564 121.238 117.774 120.91 117.922C120.582 118.07 120.212 118.144 119.8 118.144ZM127.312 112.264H128.356L130.228 117.184H130.012L131.464 112.264H132.424L130.264 119.152C130.084 119.728 129.844 120.172 129.544 120.484C129.244 120.796 128.86 120.952 128.392 120.952C128.14 120.952 127.9 120.916 127.672 120.844C127.448 120.772 127.216 120.668 126.976 120.532V119.668C127.188 119.836 127.392 119.956 127.588 120.028C127.788 120.1 127.996 120.136 128.212 120.136C128.452 120.136 128.652 120.06 128.812 119.908C128.976 119.756 129.112 119.56 129.22 119.32C129.328 119.084 129.42 118.836 129.496 118.576L129.664 118L127.312 112.264ZM136.561 118.144C136.065 118.144 135.621 118.018 135.229 117.766C134.841 117.51 134.533 117.156 134.305 116.704C134.081 116.252 133.969 115.732 133.969 115.144C133.969 114.516 134.081 113.976 134.305 113.524C134.529 113.072 134.835 112.726 135.223 112.486C135.615 112.242 136.061 112.12 136.561 112.12C136.997 112.12 137.369 112.208 137.677 112.384C137.985 112.56 138.233 112.798 138.421 113.098C138.609 113.398 138.739 113.738 138.811 114.118C138.887 114.494 138.909 114.884 138.877 115.288H134.725V114.712H138.259L137.983 114.892C137.995 114.656 137.981 114.42 137.941 114.184C137.905 113.948 137.835 113.732 137.731 113.536C137.627 113.336 137.481 113.176 137.293 113.056C137.105 112.936 136.865 112.876 136.573 112.876C136.205 112.876 135.897 112.97 135.649 113.158C135.401 113.346 135.215 113.594 135.091 113.902C134.967 114.206 134.905 114.536 134.905 114.892V115.276C134.905 115.676 134.965 116.034 135.085 116.35C135.209 116.666 135.393 116.916 135.637 117.1C135.881 117.284 136.189 117.376 136.561 117.376C136.933 117.376 137.239 117.286 137.479 117.106C137.719 116.926 137.865 116.66 137.917 116.308H138.889C138.829 116.688 138.693 117.016 138.481 117.292C138.269 117.564 137.999 117.774 137.671 117.922C137.343 118.07 136.973 118.144 136.561 118.144ZM145.005 118L144.885 116.74V114.28C144.885 113.764 144.775 113.394 144.555 113.17C144.335 112.942 144.005 112.828 143.565 112.828C143.317 112.828 143.091 112.864 142.887 112.936C142.687 113.008 142.527 113.12 142.407 113.272C142.291 113.42 142.233 113.612 142.233 113.848H141.189C141.189 113.432 141.291 113.098 141.495 112.846C141.699 112.59 141.979 112.406 142.335 112.294C142.695 112.178 143.105 112.12 143.565 112.12C144.005 112.12 144.395 112.194 144.735 112.342C145.075 112.49 145.341 112.726 145.533 113.05C145.725 113.37 145.821 113.788 145.821 114.304V118H145.005ZM143.049 118.144C142.577 118.144 142.187 118.06 141.879 117.892C141.571 117.724 141.341 117.506 141.189 117.238C141.037 116.97 140.961 116.688 140.961 116.392C140.961 116.004 141.057 115.688 141.249 115.444C141.445 115.2 141.711 115.022 142.047 114.91C142.383 114.794 142.761 114.736 143.181 114.736C143.481 114.736 143.781 114.766 144.081 114.826C144.385 114.886 144.681 114.968 144.969 115.072V115.66C144.729 115.564 144.457 115.488 144.153 115.432C143.853 115.376 143.577 115.348 143.325 115.348C142.941 115.348 142.617 115.428 142.353 115.588C142.089 115.744 141.957 116.012 141.957 116.392C141.957 116.672 142.057 116.912 142.257 117.112C142.461 117.312 142.785 117.412 143.229 117.412C143.541 117.412 143.821 117.34 144.069 117.196C144.321 117.048 144.519 116.864 144.663 116.644C144.811 116.424 144.885 116.204 144.885 115.984H145.113C145.113 116.368 145.029 116.724 144.861 117.052C144.697 117.38 144.461 117.644 144.153 117.844C143.845 118.044 143.477 118.144 143.049 118.144ZM152.863 118V114.628C152.863 114.08 152.731 113.664 152.467 113.38C152.207 113.092 151.851 112.948 151.399 112.948C151.055 112.948 150.757 113.042 150.505 113.23C150.253 113.418 150.059 113.688 149.923 114.04C149.787 114.388 149.719 114.804 149.719 115.288H149.359C149.359 114.62 149.447 114.05 149.623 113.578C149.799 113.106 150.055 112.746 150.391 112.498C150.731 112.246 151.143 112.12 151.627 112.12C152.079 112.12 152.465 112.222 152.785 112.426C153.109 112.626 153.357 112.914 153.529 113.29C153.701 113.666 153.787 114.112 153.787 114.628V118H152.863ZM148.783 118V109.816H149.719V118H148.783Z" fill="white"/>
<path d="M76.3691 34.7391V38.233H136.259V45.1494L129.266 57.4497H74.3856L66.5053 26H48V29.4939H61.0159L68.8962 60.9436H133.889L142.564 45.6868V34.7391H76.3691Z" fill="white"/>
<path d="M79.7151 64.4708C76.3723 64.4729 73.1675 65.2098 70.8037 66.5199C68.44 67.8299 67.1104 69.606 67.1066 71.4587C67.1066 73.312 68.435 75.0894 70.7995 76.3999C73.1641 77.7103 76.3711 78.4466 79.7151 78.4466C83.059 78.4466 86.2661 77.7103 88.6306 76.3999C90.9952 75.0894 92.3236 73.312 92.3236 71.4587C92.3198 69.606 90.9902 67.8299 88.6265 66.5198C86.2627 65.2098 83.0579 64.4729 79.7151 64.4708ZM79.7151 74.9526C78.4682 74.9526 77.2493 74.7477 76.2126 74.3638C75.1759 73.9799 74.3679 73.4342 73.8907 72.7958C73.4136 72.1573 73.2887 71.4548 73.532 70.7771C73.7752 70.0993 74.3756 69.4767 75.2573 68.9881C76.139 68.4995 77.2623 68.1667 78.4852 68.0319C79.7081 67.8971 80.9756 67.9663 82.1276 68.2307C83.2795 68.4952 84.2641 68.943 84.9569 69.5176C85.6496 70.0921 86.0193 70.7677 86.0193 71.4587C86.0173 72.385 85.3525 73.2731 84.1707 73.9281C82.9888 74.5831 81.3864 74.9515 79.7151 74.9526Z" fill="white"/>
<path d="M123.845 64.4708C120.502 64.4729 117.297 65.2098 114.933 66.5199C112.57 67.8299 111.24 69.606 111.236 71.4587C111.236 73.312 112.565 75.0894 114.929 76.3999C117.294 77.7103 120.501 78.4466 123.845 78.4466C127.189 78.4466 130.396 77.7103 132.76 76.3999C135.125 75.0894 136.453 73.312 136.453 71.4587C136.449 69.606 135.12 67.8299 132.756 66.5198C130.392 65.2098 127.188 64.4729 123.845 64.4708ZM123.845 74.9526C122.598 74.9526 121.379 74.7477 120.342 74.3638C119.306 73.9799 118.498 73.4342 118.02 72.7958C117.543 72.1573 117.418 71.4548 117.662 70.7771C117.905 70.0993 118.505 69.4767 119.387 68.9881C120.269 68.4995 121.392 68.1667 122.615 68.0319C123.838 67.8971 125.105 67.9663 126.257 68.2307C127.409 68.4952 128.394 68.943 129.087 69.5176C129.779 70.0921 130.149 70.7677 130.149 71.4587C130.147 72.385 129.482 73.2731 128.3 73.9281C127.118 74.5831 125.516 74.9515 123.845 74.9526Z" fill="white"/>
</svg>
