<svg viewBox="0 0 50 50" fill="currentColor" xmlns="http://www.w3.org/2000/svg">
<path fill-rule="evenodd" clip-rule="evenodd" d="M25 50C38.8071 50 50 38.8071 50 25C50 11.1929 38.8071 0 25 0C11.1929 0 0 11.1929 0 25C0 38.8071 11.1929 50 25 50ZM24.795 6.36363C23.876 6.36363 22.9874 6.69249 22.2899 7.29073L10.099 17.7403L5.31388 21.5692C5.10782 21.724 4.93496 21.9186 4.80556 22.1415C4.67616 22.3644 4.59286 22.611 4.5606 22.8667C4.52834 23.1224 4.54779 23.382 4.61778 23.63C4.68776 23.8781 4.80687 24.1095 4.96803 24.3106C5.12919 24.5118 5.32911 24.6785 5.55594 24.8008C5.78276 24.9232 6.03185 24.9988 6.28844 25.023C6.54502 25.0473 6.80386 25.0198 7.0496 24.9421C7.29534 24.8644 7.52296 24.7381 7.71895 24.5707L9.40251 23.2239V38.4624C9.40251 39.483 9.80793 40.4618 10.5296 41.1835C11.2513 41.9051 12.23 42.3106 13.2506 42.3106H20.9469V32.6903C20.9469 31.6697 21.3523 30.6909 22.074 29.9692C22.7956 29.2476 23.7744 28.8421 24.795 28.8421C25.8156 28.8421 26.7944 29.2476 27.516 29.9692C28.2377 30.6909 28.6431 31.6697 28.6431 32.6903V42.3106H36.3394C37.3599 42.3106 38.3387 41.9051 39.0604 41.1835C39.782 40.4618 40.1875 39.483 40.1875 38.4624V23.2258L41.871 24.5726C42.0684 24.7306 42.2949 24.8481 42.5376 24.9184C42.7804 24.9888 43.0346 25.0107 43.2858 24.9828C43.537 24.955 43.7803 24.8779 44.0017 24.756C44.2231 24.6341 44.4183 24.4698 44.5763 24.2725C44.7342 24.0751 44.8517 23.8486 44.9221 23.6059C44.9924 23.3631 45.0143 23.1089 44.9864 22.8577C44.9586 22.6065 44.8815 22.3633 44.7596 22.1418C44.6377 21.9204 44.4734 21.7252 44.2761 21.5673L39.491 17.7384L27.3001 7.29073C26.6026 6.69249 25.7139 6.36363 24.795 6.36363Z" fill="black"/>
</svg>
